{"glyphs":{"0":{"ha":833,"x_min":83,"x_max":775,"o":"m 408 -11 q 166 98 249 -11 q 83 417 83 207 q 126 726 83 597 q 251 923 169 856 q 449 990 333 990 q 692 881 608 990 q 775 563 775 772 q 678 140 775 290 q 408 -11 582 -11 m 413 85 q 597 210 533 85 q 660 581 660 336 q 608 817 660 740 q 447 894 556 894 q 262 769 325 894 q 199 399 199 643 q 251 162 199 239 q 413 85 304 85 z "},"1":{"ha":833,"x_min":147,"x_max":714,"o":"m 663 96 q 701 83 688 96 q 714 50 714 71 q 700 13 714 26 q 660 0 686 0 l 199 0 q 160 13 174 0 q 147 47 147 26 q 162 83 147 69 q 201 96 176 96 l 376 96 l 436 839 l 292 751 q 264 743 278 743 q 228 759 243 743 q 214 796 214 775 q 239 838 214 821 l 463 974 q 510 988 486 988 q 546 974 533 988 q 557 936 558 960 l 492 96 l 663 96 z "},"2":{"ha":833,"x_min":85,"x_max":740,"o":"m 689 96 q 736 53 736 96 q 722 15 736 29 q 681 0 708 0 l 133 0 q 98 13 111 0 q 85 44 85 25 q 110 97 85 72 l 472 463 q 591 609 556 546 q 626 740 626 672 q 581 853 626 813 q 458 894 536 894 q 326 872 388 894 q 203 800 264 849 q 167 786 185 786 q 139 799 150 786 q 128 829 128 811 q 157 885 128 861 q 296 962 215 933 q 464 990 376 990 q 666 923 592 990 q 740 742 740 856 q 697 574 740 654 q 549 392 653 494 l 249 96 l 689 96 z "},"3":{"ha":833,"x_min":63,"x_max":740,"o":"m 560 500 q 681 422 638 478 q 725 283 725 367 q 684 129 725 196 q 567 26 643 63 q 389 -10 492 -10 q 217 18 296 -10 q 83 90 138 46 q 63 133 63 107 q 75 170 63 154 q 107 186 88 186 q 140 174 121 186 q 392 86 257 86 q 554 137 496 86 q 613 281 613 188 q 399 449 613 449 l 321 449 q 291 463 303 449 q 279 497 279 476 q 292 531 279 518 q 326 544 304 544 l 396 544 q 565 598 503 544 q 626 744 626 651 q 580 854 626 814 q 453 894 533 894 q 203 800 322 894 q 167 786 185 786 q 139 799 150 786 q 128 829 128 811 q 157 885 128 861 q 296 962 215 933 q 464 990 376 990 q 665 926 589 990 q 740 753 740 861 q 692 598 740 665 q 560 500 644 531 z "},"4":{"ha":833,"x_min":54,"x_max":788,"o":"m 738 307 q 775 294 763 307 q 788 260 788 282 q 773 226 788 239 q 733 213 758 213 l 626 213 l 613 47 q 594 8 611 22 q 554 -7 578 -7 q 514 8 529 -7 q 500 51 499 24 l 513 213 l 110 213 q 69 226 85 213 q 54 260 54 239 q 72 304 54 282 l 578 960 q 632 988 597 988 q 670 973 656 988 q 683 932 685 958 l 633 307 l 738 307 m 521 307 l 558 785 l 190 307 l 521 307 z "},"5":{"ha":833,"x_min":96,"x_max":783,"o":"m 294 885 l 267 542 q 360 595 307 576 q 471 614 413 614 q 624 578 557 614 q 726 478 690 543 q 763 331 763 414 q 719 152 763 229 q 598 33 676 75 q 417 -10 519 -10 q 253 19 332 -10 q 118 97 174 47 q 96 142 96 115 q 109 176 96 161 q 143 190 122 190 q 182 176 163 190 q 419 86 299 86 q 588 150 525 86 q 650 322 650 214 q 595 465 650 411 q 450 519 540 519 q 331 495 383 519 q 233 419 278 471 q 192 404 217 404 q 158 418 171 404 q 147 456 144 432 l 183 924 q 201 965 185 950 q 244 979 218 979 l 732 979 q 770 967 757 979 q 783 933 783 954 q 769 898 783 911 q 728 885 754 885 l 294 885 z "},"6":{"ha":832,"x_min":86,"x_max":808,"o":"m 785 883 q 808 836 808 864 q 796 802 808 817 q 765 788 783 788 q 726 803 746 788 q 620 870 679 846 q 496 894 561 894 q 294 790 371 894 q 203 489 218 685 l 200 456 q 306 572 236 529 q 461 614 375 614 q 618 577 550 614 q 724 473 686 540 q 761 318 761 406 q 719 149 761 224 q 604 31 678 74 q 439 -11 531 -11 q 178 99 269 -11 q 86 410 86 208 q 136 717 86 586 q 279 919 186 849 q 497 990 372 990 q 660 963 583 990 q 785 883 736 935 m 440 519 q 283 456 344 519 q 222 292 222 392 q 281 142 222 199 q 436 85 340 85 q 590 148 531 85 q 649 314 649 211 q 592 463 649 407 q 440 519 535 519 z "},"7":{"ha":833,"x_min":136,"x_max":794,"o":"m 746 979 q 782 967 769 979 q 794 933 794 954 q 781 889 794 914 l 275 19 q 222 -14 256 -14 q 186 0 201 -14 q 171 35 171 14 q 181 67 171 51 l 657 883 l 189 883 q 149 896 163 883 q 136 929 136 908 q 151 966 136 953 q 192 979 165 979 l 746 979 z "},"8":{"ha":833,"x_min":58,"x_max":776,"o":"m 599 499 q 721 413 679 472 q 763 265 763 354 q 719 121 763 183 q 594 24 675 58 q 404 -10 514 -10 q 148 58 238 -10 q 58 254 58 126 q 113 411 58 343 q 260 506 167 479 q 155 588 192 533 q 118 718 118 642 q 160 862 118 800 q 278 957 201 924 q 456 990 354 990 q 692 926 608 990 q 776 747 776 861 q 728 594 776 660 q 599 499 681 528 m 456 896 q 288 848 346 896 q 231 711 231 800 q 285 589 231 633 q 442 544 339 544 q 606 594 549 544 q 663 735 663 644 q 610 854 663 813 q 456 896 558 896 m 403 86 q 585 134 521 86 q 650 271 650 182 q 595 406 650 363 q 417 449 540 449 q 234 401 297 449 q 171 257 171 353 q 403 86 171 86 z "},"9":{"ha":833,"x_min":50,"x_max":772,"o":"m 419 990 q 681 881 589 990 q 772 569 772 771 q 722 262 772 393 q 579 60 672 131 q 361 -11 486 -11 q 199 17 275 -11 q 74 96 122 44 q 50 143 50 115 q 63 177 50 163 q 93 192 75 192 q 131 176 111 192 q 238 109 179 133 q 361 85 297 85 q 564 190 488 85 q 654 492 640 294 l 657 525 q 553 408 621 450 q 397 365 485 365 q 240 403 308 365 q 135 508 172 440 q 97 663 97 575 q 139 831 97 756 q 254 948 181 906 q 419 990 328 990 m 418 460 q 575 524 514 460 q 636 688 636 588 q 577 838 636 781 q 421 894 518 894 q 268 831 326 894 q 210 665 210 768 q 267 516 210 572 q 418 460 324 460 z "},"\u0000":{"ha":0,"x_min":0,"x_max":0,"o":""},"\r":{"ha":358,"x_min":0,"x_max":0,"o":""}," ":{"ha":358,"x_min":0,"x_max":0,"o":""},"A":{"ha":1010,"x_min":26,"x_max":943,"o":"m 939 67 q 943 46 943 57 q 926 7 943 22 q 888 -8 910 -8 q 838 29 851 -8 l 758 251 l 243 251 l 128 25 q 106 1 119 10 q 79 -7 93 -7 q 42 8 58 -7 q 26 44 26 22 q 33 72 26 60 l 488 946 q 515 976 497 965 q 554 986 533 986 q 592 975 575 986 q 618 942 610 964 l 939 67 m 725 346 l 546 847 l 292 346 l 725 346 z "},"Á":{"ha":1010,"x_min":26,"x_max":943,"o":"m 939 67 q 943 46 943 57 q 926 7 943 22 q 888 -8 910 -8 q 838 29 851 -8 l 758 251 l 243 251 l 128 25 q 106 1 119 10 q 79 -7 93 -7 q 42 8 58 -7 q 26 44 26 22 q 33 72 26 60 l 488 946 q 515 976 497 965 q 554 986 533 986 q 592 975 575 986 q 618 942 610 964 l 939 67 m 725 346 l 546 847 l 292 346 l 725 346 m 607 1071 q 575 1056 589 1056 q 556 1064 564 1056 q 547 1083 547 1072 q 556 1107 547 1094 l 663 1256 q 710 1283 682 1283 q 742 1271 729 1283 q 756 1240 756 1258 q 736 1200 756 1219 l 607 1071 z "},"Ă":{"ha":1010,"x_min":26,"x_max":943,"o":"m 939 67 q 943 46 943 57 q 926 7 943 22 q 888 -8 910 -8 q 838 29 851 -8 l 758 251 l 243 251 l 128 25 q 106 1 119 10 q 79 -7 93 -7 q 42 8 58 -7 q 26 44 26 22 q 33 72 26 60 l 488 946 q 515 976 497 965 q 554 986 533 986 q 592 975 575 986 q 618 942 610 964 l 939 67 m 725 346 l 546 847 l 292 346 l 725 346 m 567 1079 q 443 1109 496 1079 q 363 1197 390 1139 q 357 1219 357 1208 q 368 1247 357 1236 q 396 1257 379 1257 q 435 1235 418 1257 q 571 1160 478 1160 q 715 1235 663 1160 q 758 1258 735 1258 q 784 1249 774 1258 q 794 1225 794 1239 q 786 1197 794 1213 q 694 1109 751 1139 q 567 1079 638 1079 z "},"Ắ":{"ha":1010,"x_min":26,"x_max":943,"o":"m 939 67 q 943 46 943 57 q 926 7 943 22 q 888 -8 910 -8 q 838 29 851 -8 l 758 251 l 243 251 l 128 25 q 106 1 119 10 q 79 -7 93 -7 q 42 8 58 -7 q 26 44 26 22 q 33 72 26 60 l 488 946 q 515 976 497 965 q 554 986 533 986 q 592 975 575 986 q 618 942 610 964 l 939 67 m 725 346 l 546 847 l 292 346 l 725 346 m 610 1207 q 585 1196 596 1196 q 566 1203 574 1196 q 558 1222 558 1211 q 565 1242 558 1233 l 672 1388 q 717 1414 692 1414 q 749 1400 735 1414 q 763 1368 763 1386 q 747 1336 763 1350 l 610 1207 m 565 1056 q 440 1086 493 1056 q 361 1175 386 1117 q 356 1197 356 1186 q 366 1222 356 1213 q 390 1232 376 1232 q 425 1211 411 1232 q 569 1131 472 1131 q 721 1211 658 1131 q 760 1233 738 1233 q 783 1224 774 1233 q 792 1201 792 1215 q 783 1175 792 1190 q 692 1086 750 1117 q 565 1056 635 1056 z "},"Ặ":{"ha":1010,"x_min":26,"x_max":943,"o":"m 939 67 q 943 46 943 57 q 926 7 943 22 q 888 -8 910 -8 q 838 29 851 -8 l 758 251 l 243 251 l 128 25 q 106 1 119 10 q 79 -7 93 -7 q 42 8 58 -7 q 26 44 26 22 q 33 72 26 60 l 488 946 q 515 976 497 965 q 554 986 533 986 q 592 975 575 986 q 618 942 610 964 l 939 67 m 725 346 l 546 847 l 292 346 l 725 346 m 464 -260 q 413 -241 432 -260 q 393 -192 393 -222 q 413 -142 393 -161 q 464 -124 432 -124 q 515 -142 494 -124 q 535 -192 535 -161 q 515 -241 535 -222 q 464 -260 496 -260 m 567 1079 q 443 1109 496 1079 q 363 1197 390 1139 q 357 1219 357 1208 q 368 1247 357 1236 q 396 1257 379 1257 q 435 1235 418 1257 q 571 1160 478 1160 q 715 1235 663 1160 q 758 1258 735 1258 q 784 1249 774 1258 q 794 1225 794 1239 q 786 1197 794 1213 q 694 1109 751 1139 q 567 1079 638 1079 z "},"Ằ":{"ha":1010,"x_min":26,"x_max":943,"o":"m 939 67 q 943 46 943 57 q 926 7 943 22 q 888 -8 910 -8 q 838 29 851 -8 l 758 251 l 243 251 l 128 25 q 106 1 119 10 q 79 -7 93 -7 q 42 8 58 -7 q 26 44 26 22 q 33 72 26 60 l 488 946 q 515 976 497 965 q 554 986 533 986 q 592 975 575 986 q 618 942 610 964 l 939 67 m 725 346 l 546 847 l 292 346 l 725 346 m 422 1339 q 408 1372 408 1354 q 421 1402 408 1390 q 451 1414 433 1414 q 494 1386 476 1414 l 582 1244 q 588 1226 588 1238 q 579 1207 588 1215 q 558 1199 571 1199 q 531 1213 544 1199 l 422 1339 m 565 1056 q 440 1086 493 1056 q 361 1175 386 1117 q 356 1197 356 1186 q 366 1222 356 1213 q 390 1232 376 1232 q 425 1211 411 1232 q 569 1131 472 1131 q 721 1211 658 1131 q 760 1233 738 1233 q 783 1224 774 1233 q 792 1201 792 1215 q 783 1175 792 1190 q 692 1086 750 1117 q 565 1056 635 1056 z "},"Ẳ":{"ha":1010,"x_min":26,"x_max":943,"o":"m 939 67 q 943 46 943 57 q 926 7 943 22 q 888 -8 910 -8 q 838 29 851 -8 l 758 251 l 243 251 l 128 25 q 106 1 119 10 q 79 -7 93 -7 q 42 8 58 -7 q 26 44 26 22 q 33 72 26 60 l 488 946 q 515 976 497 965 q 554 986 533 986 q 592 975 575 986 q 618 942 610 964 l 939 67 m 725 346 l 546 847 l 292 346 l 725 346 m 611 1222 q 599 1205 608 1211 q 576 1199 589 1199 q 551 1208 561 1199 q 542 1233 540 1217 q 558 1267 543 1256 q 603 1292 574 1279 q 631 1306 622 1300 q 639 1321 639 1311 q 586 1343 639 1343 q 511 1333 563 1343 l 503 1332 q 481 1340 489 1332 q 472 1361 472 1349 q 497 1393 472 1383 q 597 1410 543 1410 q 693 1388 658 1410 q 728 1331 728 1365 q 710 1286 728 1301 q 658 1257 692 1271 q 625 1240 636 1247 q 611 1222 614 1233 m 564 1056 q 439 1086 492 1056 q 360 1175 386 1117 q 354 1197 354 1186 q 365 1222 354 1213 q 389 1232 375 1232 q 425 1211 411 1232 q 568 1131 472 1131 q 719 1211 660 1131 q 758 1233 738 1233 q 782 1224 772 1233 q 792 1201 792 1215 q 783 1175 792 1190 q 691 1086 749 1117 q 564 1056 633 1056 z "},"Ẵ":{"ha":1010,"x_min":26,"x_max":943,"o":"m 939 67 q 943 46 943 57 q 926 7 943 22 q 888 -8 910 -8 q 838 29 851 -8 l 758 251 l 243 251 l 128 25 q 106 1 119 10 q 79 -7 93 -7 q 42 8 58 -7 q 26 44 26 22 q 33 72 26 60 l 488 946 q 515 976 497 965 q 554 986 533 986 q 592 975 575 986 q 618 942 610 964 l 939 67 m 725 346 l 546 847 l 292 346 l 725 346 m 678 1272 q 631 1280 654 1272 q 568 1304 607 1288 q 520 1324 539 1318 q 486 1331 501 1331 q 451 1322 464 1331 q 422 1296 438 1314 q 407 1279 414 1285 q 390 1274 400 1274 q 371 1283 378 1274 q 364 1306 364 1292 q 381 1351 364 1326 q 427 1392 397 1375 q 492 1408 457 1408 q 540 1400 515 1408 q 603 1376 565 1392 q 651 1356 632 1363 q 685 1350 669 1350 q 722 1360 708 1350 q 749 1386 736 1369 q 763 1401 756 1394 q 779 1407 771 1407 q 801 1398 793 1407 q 808 1375 808 1389 q 791 1330 808 1354 q 743 1289 774 1306 q 678 1272 713 1272 m 565 1056 q 440 1086 493 1056 q 361 1175 388 1117 q 356 1197 356 1186 q 366 1223 356 1213 q 390 1233 376 1233 q 426 1211 413 1233 q 569 1131 471 1131 q 721 1211 661 1131 q 760 1233 739 1233 q 783 1224 774 1233 q 793 1201 793 1215 q 785 1175 793 1190 q 692 1086 750 1117 q 565 1056 635 1056 z "},"Â":{"ha":1010,"x_min":26,"x_max":943,"o":"m 939 67 q 943 46 943 57 q 926 7 943 22 q 888 -8 910 -8 q 838 29 851 -8 l 758 251 l 243 251 l 128 25 q 106 1 119 10 q 79 -7 93 -7 q 42 8 58 -7 q 26 44 26 22 q 33 72 26 60 l 488 946 q 515 976 497 965 q 554 986 533 986 q 592 975 575 986 q 618 942 610 964 l 939 67 m 725 346 l 546 847 l 292 346 l 725 346 m 472 1075 q 433 1054 453 1054 q 404 1066 417 1054 q 392 1093 392 1078 q 404 1121 392 1107 l 526 1257 q 582 1282 550 1282 q 632 1257 614 1282 l 728 1124 q 738 1096 738 1110 q 725 1067 738 1079 q 696 1056 713 1056 q 656 1082 672 1056 l 578 1206 l 472 1075 z "},"Ấ":{"ha":1010,"x_min":26,"x_max":943,"o":"m 939 67 q 943 46 943 57 q 926 7 943 22 q 888 -8 910 -8 q 838 29 851 -8 l 758 251 l 243 251 l 128 25 q 106 1 119 10 q 79 -7 93 -7 q 42 8 58 -7 q 26 44 26 22 q 33 72 26 60 l 488 946 q 515 976 497 965 q 554 986 533 986 q 592 975 575 986 q 618 942 610 964 l 939 67 m 725 346 l 546 847 l 292 346 l 725 346 m 760 1208 q 736 1199 749 1199 q 717 1207 725 1199 q 708 1226 708 1215 q 717 1246 708 1236 l 819 1388 q 864 1413 836 1413 q 895 1400 882 1413 q 908 1369 908 1388 q 888 1328 908 1347 l 760 1208 m 469 1071 q 436 1054 454 1054 q 408 1067 421 1054 q 396 1094 396 1079 q 408 1122 396 1110 l 528 1251 q 582 1276 550 1276 q 631 1251 611 1276 l 726 1122 q 738 1093 738 1107 q 725 1067 738 1078 q 697 1056 713 1056 q 658 1078 674 1056 l 576 1200 l 469 1071 z "},"Ậ":{"ha":1010,"x_min":26,"x_max":943,"o":"m 939 67 q 943 46 943 57 q 926 7 943 22 q 888 -8 910 -8 q 838 29 851 -8 l 758 251 l 243 251 l 128 25 q 106 1 119 10 q 79 -7 93 -7 q 42 8 58 -7 q 26 44 26 22 q 33 72 26 60 l 488 946 q 515 976 497 965 q 554 986 533 986 q 592 975 575 986 q 618 942 610 964 l 939 67 m 725 346 l 546 847 l 292 346 l 725 346 m 464 -260 q 413 -241 432 -260 q 393 -192 393 -222 q 413 -142 393 -161 q 464 -124 432 -124 q 515 -142 494 -124 q 535 -192 535 -161 q 515 -241 535 -222 q 464 -260 496 -260 m 472 1075 q 433 1054 453 1054 q 404 1066 417 1054 q 392 1093 392 1078 q 404 1121 392 1107 l 526 1257 q 582 1282 550 1282 q 632 1257 614 1282 l 728 1124 q 738 1096 738 1110 q 725 1067 738 1079 q 696 1056 713 1056 q 656 1082 672 1056 l 578 1206 l 472 1075 z "},"Ầ":{"ha":1010,"x_min":26,"x_max":943,"o":"m 939 67 q 943 46 943 57 q 926 7 943 22 q 888 -8 910 -8 q 838 29 851 -8 l 758 251 l 243 251 l 128 25 q 106 1 119 10 q 79 -7 93 -7 q 42 8 58 -7 q 26 44 26 22 q 33 72 26 60 l 488 946 q 515 976 497 965 q 554 986 533 986 q 592 975 575 986 q 618 942 610 964 l 939 67 m 725 346 l 546 847 l 292 346 l 725 346 m 792 1229 q 782 1212 790 1218 q 765 1206 774 1206 q 750 1211 757 1206 q 742 1226 743 1217 l 694 1353 q 693 1368 693 1358 q 705 1397 693 1386 q 732 1407 717 1407 q 761 1395 749 1407 q 774 1363 774 1383 l 792 1229 m 469 1071 q 436 1054 454 1054 q 408 1067 421 1054 q 396 1094 396 1079 q 408 1122 396 1110 l 528 1251 q 582 1276 550 1276 q 631 1251 611 1276 l 726 1122 q 738 1093 738 1107 q 725 1067 738 1078 q 697 1056 713 1056 q 658 1078 674 1056 l 576 1200 l 469 1071 z "},"Ẩ":{"ha":1010,"x_min":26,"x_max":943,"o":"m 939 67 q 943 46 943 57 q 926 7 943 22 q 888 -8 910 -8 q 838 29 851 -8 l 758 251 l 243 251 l 128 25 q 106 1 119 10 q 79 -7 93 -7 q 42 8 58 -7 q 26 44 26 22 q 33 72 26 60 l 488 946 q 515 976 497 965 q 554 986 533 986 q 592 975 575 986 q 618 942 610 964 l 939 67 m 725 346 l 546 847 l 292 346 l 725 346 m 765 1224 q 752 1206 763 1213 q 729 1199 742 1199 q 706 1207 715 1199 q 696 1231 696 1215 q 712 1267 696 1254 q 757 1293 728 1281 q 785 1307 775 1300 q 794 1322 794 1314 q 781 1339 794 1333 q 740 1344 767 1344 q 667 1335 715 1344 l 658 1333 q 636 1341 644 1333 q 628 1361 628 1349 q 653 1393 628 1383 q 751 1410 693 1410 q 849 1388 814 1410 q 883 1332 883 1367 q 865 1287 883 1301 q 813 1257 847 1272 q 778 1240 789 1247 q 765 1224 768 1233 m 469 1071 q 436 1054 454 1054 q 408 1067 421 1054 q 396 1094 396 1079 q 408 1122 396 1110 l 528 1251 q 582 1276 550 1276 q 631 1251 611 1276 l 726 1122 q 738 1093 738 1107 q 725 1067 738 1078 q 697 1056 713 1056 q 658 1078 674 1056 l 576 1200 l 469 1071 z "},"Ẫ":{"ha":1010,"x_min":26,"x_max":943,"o":"m 939 67 q 943 46 943 57 q 926 7 943 22 q 888 -8 910 -8 q 838 29 851 -8 l 758 251 l 243 251 l 128 25 q 106 1 119 10 q 79 -7 93 -7 q 42 8 58 -7 q 26 44 26 22 q 33 72 26 60 l 488 946 q 515 976 497 965 q 554 986 533 986 q 592 975 575 986 q 618 942 610 964 l 939 67 m 725 346 l 546 847 l 292 346 l 725 346 m 392 1292 q 372 1301 379 1292 q 365 1324 365 1310 q 382 1368 365 1344 q 428 1408 399 1392 q 493 1424 458 1424 q 542 1415 517 1424 q 604 1392 567 1407 q 649 1374 626 1382 q 686 1367 671 1367 q 724 1376 710 1367 q 750 1400 738 1385 q 765 1415 757 1408 q 781 1421 772 1421 q 802 1412 794 1421 q 810 1389 810 1403 q 792 1344 810 1368 q 745 1305 775 1321 q 679 1289 715 1289 q 630 1297 656 1289 q 569 1319 604 1304 q 525 1337 547 1329 q 488 1344 503 1344 q 453 1337 465 1344 q 424 1313 440 1329 q 408 1297 414 1301 q 392 1292 401 1292 m 469 1071 q 436 1054 454 1054 q 408 1067 421 1054 q 396 1094 396 1079 q 408 1122 396 1110 l 528 1251 q 582 1276 550 1276 q 631 1251 611 1276 l 726 1122 q 738 1093 738 1107 q 725 1067 738 1078 q 697 1056 713 1056 q 658 1078 674 1056 l 576 1200 l 469 1071 z "},"Ȁ":{"ha":1010,"x_min":26,"x_max":943,"o":"m 939 67 q 943 46 943 57 q 926 7 943 22 q 888 -8 910 -8 q 838 29 851 -8 l 758 251 l 243 251 l 128 25 q 106 1 119 10 q 79 -7 93 -7 q 42 8 58 -7 q 26 44 26 22 q 33 72 26 60 l 488 946 q 515 976 497 965 q 554 986 533 986 q 592 975 575 986 q 618 942 610 964 l 939 67 m 725 346 l 546 847 l 292 346 l 725 346 m 361 1214 q 354 1238 354 1225 q 367 1268 354 1256 q 397 1281 381 1281 q 439 1246 428 1281 l 496 1096 q 499 1083 499 1088 q 490 1063 499 1071 q 471 1056 482 1056 q 447 1071 457 1056 l 361 1214 m 528 1214 q 521 1238 521 1225 q 534 1268 521 1256 q 564 1281 547 1281 q 606 1246 594 1281 l 664 1096 q 665 1085 665 1092 q 657 1064 665 1072 q 638 1056 649 1056 q 614 1071 622 1056 l 528 1214 z "},"Ä":{"ha":1010,"x_min":26,"x_max":943,"o":"m 939 67 q 943 46 943 57 q 926 7 943 22 q 888 -8 910 -8 q 838 29 851 -8 l 758 251 l 243 251 l 128 25 q 106 1 119 10 q 79 -7 93 -7 q 42 8 58 -7 q 26 44 26 22 q 33 72 26 60 l 488 946 q 515 976 497 965 q 554 986 533 986 q 592 975 575 986 q 618 942 610 964 l 939 67 m 725 346 l 546 847 l 292 346 l 725 346 m 453 1103 q 404 1122 424 1103 q 385 1169 385 1140 q 404 1217 385 1199 q 453 1236 424 1236 q 502 1217 482 1236 q 522 1169 522 1199 q 503 1121 522 1139 q 453 1103 483 1103 m 692 1103 q 642 1122 663 1103 q 622 1169 622 1140 q 642 1217 622 1199 q 692 1236 663 1236 q 740 1217 721 1236 q 760 1169 760 1199 q 740 1122 760 1140 q 692 1103 721 1103 z "},"Ạ":{"ha":1010,"x_min":26,"x_max":943,"o":"m 939 67 q 943 46 943 57 q 926 7 943 22 q 888 -8 910 -8 q 838 29 851 -8 l 758 251 l 243 251 l 128 25 q 106 1 119 10 q 79 -7 93 -7 q 42 8 58 -7 q 26 44 26 22 q 33 72 26 60 l 488 946 q 515 976 497 965 q 554 986 533 986 q 592 975 575 986 q 618 942 610 964 l 939 67 m 725 346 l 546 847 l 292 346 l 725 346 m 464 -260 q 413 -241 432 -260 q 393 -192 393 -222 q 413 -142 393 -161 q 464 -124 432 -124 q 515 -142 494 -124 q 535 -192 535 -161 q 515 -241 535 -222 q 464 -260 496 -260 z "},"À":{"ha":1010,"x_min":26,"x_max":943,"o":"m 939 67 q 943 46 943 57 q 926 7 943 22 q 888 -8 910 -8 q 838 29 851 -8 l 758 251 l 243 251 l 128 25 q 106 1 119 10 q 79 -7 93 -7 q 42 8 58 -7 q 26 44 26 22 q 33 72 26 60 l 488 946 q 515 976 497 965 q 554 986 533 986 q 592 975 575 986 q 618 942 610 964 l 939 67 m 725 346 l 546 847 l 292 346 l 725 346 m 410 1208 q 396 1242 396 1224 q 410 1272 396 1260 q 442 1285 424 1285 q 486 1256 471 1285 l 576 1103 q 582 1085 582 1093 q 572 1064 582 1072 q 550 1056 563 1056 q 519 1071 531 1056 l 410 1208 z "},"Ả":{"ha":1010,"x_min":26,"x_max":943,"o":"m 939 67 q 943 46 943 57 q 926 7 943 22 q 888 -8 910 -8 q 838 29 851 -8 l 758 251 l 243 251 l 128 25 q 106 1 119 10 q 79 -7 93 -7 q 42 8 58 -7 q 26 44 26 22 q 33 72 26 60 l 488 946 q 515 976 497 965 q 554 986 533 986 q 592 975 575 986 q 618 942 610 964 l 939 67 m 725 346 l 546 847 l 292 346 l 725 346 m 604 1081 q 591 1062 601 1068 q 567 1056 581 1056 q 540 1065 551 1056 q 531 1092 529 1074 q 547 1126 532 1114 q 590 1154 561 1139 q 619 1171 610 1163 q 629 1189 629 1179 q 576 1213 629 1213 q 503 1201 540 1213 q 492 1200 499 1200 q 472 1208 479 1200 q 464 1228 464 1217 q 490 1263 464 1253 q 588 1279 529 1279 q 683 1257 649 1279 q 718 1197 718 1235 q 701 1152 718 1168 q 651 1121 683 1136 q 618 1101 629 1110 q 604 1081 607 1093 z "},"Ȃ":{"ha":1010,"x_min":26,"x_max":943,"o":"m 939 67 q 943 46 943 57 q 926 7 943 22 q 888 -8 910 -8 q 838 29 851 -8 l 758 251 l 243 251 l 128 25 q 106 1 119 10 q 79 -7 93 -7 q 42 8 58 -7 q 26 44 26 22 q 33 72 26 60 l 488 946 q 515 976 497 965 q 554 986 533 986 q 592 975 575 986 q 618 942 610 964 l 939 67 m 725 346 l 546 847 l 292 346 l 725 346 m 575 1258 q 700 1228 647 1258 q 779 1139 753 1197 q 785 1115 785 1128 q 774 1089 785 1099 q 749 1079 764 1079 q 708 1103 724 1079 q 651 1160 685 1142 q 572 1178 618 1178 q 428 1103 485 1178 q 383 1079 408 1079 q 358 1088 368 1079 q 347 1111 347 1097 q 357 1139 347 1125 q 449 1228 392 1197 q 575 1258 506 1258 z "},"Ā":{"ha":1010,"x_min":26,"x_max":943,"o":"m 939 67 q 943 46 943 57 q 926 7 943 22 q 888 -8 910 -8 q 838 29 851 -8 l 758 251 l 243 251 l 128 25 q 106 1 119 10 q 79 -7 93 -7 q 42 8 58 -7 q 26 44 26 22 q 33 72 26 60 l 488 946 q 515 976 497 965 q 554 986 533 986 q 592 975 575 986 q 618 942 610 964 l 939 67 m 725 346 l 546 847 l 292 346 l 725 346 m 400 1126 q 366 1138 378 1126 q 354 1168 354 1149 q 369 1200 354 1189 q 407 1211 383 1211 l 744 1211 q 778 1200 767 1211 q 790 1169 790 1189 q 776 1138 790 1149 q 738 1126 761 1126 l 400 1126 z "},"Ą":{"ha":1010,"x_min":25,"x_max":992,"o":"m 950 -178 q 968 -174 961 -174 q 985 -181 979 -174 q 992 -201 992 -189 q 985 -224 992 -212 q 968 -242 979 -235 q 865 -268 919 -268 q 753 -230 796 -268 q 711 -131 711 -192 q 742 -27 711 -71 q 833 39 774 17 l 757 251 l 243 251 l 128 25 q 79 -7 110 -7 q 41 8 57 -7 q 25 44 25 22 q 32 72 25 60 l 488 946 q 515 976 497 965 q 553 986 533 986 q 592 975 575 986 q 618 942 610 964 l 936 68 q 940 44 940 56 q 928 12 940 25 q 900 -4 917 -1 q 829 -38 857 -8 q 801 -112 801 -68 q 823 -174 801 -153 q 883 -194 844 -194 q 950 -178 915 -194 m 724 346 l 544 847 l 290 346 l 724 346 z "},"Å":{"ha":1010,"x_min":26,"x_max":943,"o":"m 939 67 q 943 46 943 57 q 926 7 943 22 q 888 -8 910 -8 q 838 29 851 -8 l 758 251 l 243 251 l 128 25 q 106 1 119 10 q 79 -7 93 -7 q 42 8 58 -7 q 26 44 26 22 q 33 72 26 60 l 492 953 q 439 1003 458 971 q 419 1074 419 1035 q 461 1172 419 1132 q 561 1211 503 1211 q 660 1172 619 1211 q 701 1074 701 1132 q 678 997 701 1031 q 617 947 656 963 l 939 67 m 561 1143 q 513 1123 532 1143 q 493 1074 493 1103 q 513 1024 493 1044 q 561 1004 532 1004 q 609 1024 590 1004 q 628 1074 628 1044 q 609 1123 628 1103 q 561 1143 590 1143 m 725 346 l 546 847 l 292 346 l 725 346 z "},"Ǻ":{"ha":1010,"x_min":26,"x_max":943,"o":"m 939 67 q 943 46 943 57 q 926 7 943 22 q 888 -8 910 -8 q 838 29 851 -8 l 758 251 l 243 251 l 128 25 q 106 1 119 10 q 79 -7 93 -7 q 42 8 58 -7 q 26 44 26 22 q 33 72 26 60 l 492 953 q 439 1003 458 971 q 419 1074 419 1035 q 461 1172 419 1132 q 561 1211 503 1211 q 644 1185 607 1211 l 797 1299 q 839 1314 818 1314 q 876 1299 861 1314 q 890 1263 890 1283 q 846 1206 890 1225 l 686 1135 q 701 1074 701 1107 q 678 997 701 1031 q 617 947 656 963 l 939 67 m 561 1143 q 513 1123 532 1143 q 493 1074 493 1103 q 513 1024 493 1044 q 561 1004 532 1004 q 609 1024 590 1004 q 628 1074 628 1044 q 609 1123 628 1103 q 561 1143 590 1143 m 725 346 l 546 847 l 292 346 l 725 346 z "},"Ã":{"ha":1010,"x_min":26,"x_max":943,"o":"m 939 67 q 943 46 943 57 q 926 7 943 22 q 888 -8 910 -8 q 838 29 851 -8 l 758 251 l 243 251 l 128 25 q 106 1 119 10 q 79 -7 93 -7 q 42 8 58 -7 q 26 44 26 22 q 33 72 26 60 l 488 946 q 515 976 497 965 q 554 986 533 986 q 592 975 575 986 q 618 942 610 964 l 939 67 m 725 346 l 546 847 l 292 346 l 725 346 m 664 1094 q 617 1103 640 1094 q 557 1129 593 1111 q 475 1158 501 1158 q 438 1149 451 1158 q 408 1121 424 1139 q 393 1104 400 1110 q 376 1099 386 1099 q 357 1108 364 1099 q 350 1132 350 1117 q 367 1183 350 1157 q 413 1227 383 1210 q 481 1244 443 1244 q 528 1236 504 1244 q 588 1210 551 1228 q 669 1181 643 1181 q 707 1190 693 1181 q 736 1218 721 1200 q 767 1240 751 1240 q 788 1231 781 1240 q 794 1207 794 1222 q 778 1156 794 1182 q 731 1112 761 1129 q 664 1094 701 1094 z "},"Æ":{"ha":1376,"x_min":10,"x_max":1365,"o":"m 1315 979 q 1352 966 1339 979 q 1365 932 1365 953 q 1351 897 1365 910 q 1311 883 1336 883 l 756 883 l 801 544 l 1253 544 q 1291 532 1278 544 q 1304 499 1304 519 q 1290 463 1304 476 q 1250 450 1275 450 l 814 450 l 863 96 l 1244 96 q 1283 83 1269 96 q 1297 49 1297 69 q 1283 13 1297 26 q 1242 0 1268 0 l 821 0 q 782 11 797 0 q 764 43 767 22 l 736 251 l 268 251 l 115 24 q 61 -8 94 -8 q 25 5 40 -8 q 10 39 10 18 q 24 78 10 58 l 618 944 q 688 979 644 979 l 1315 979 m 724 346 l 658 833 l 331 346 l 724 346 z "},"Ǽ":{"ha":1376,"x_min":10,"x_max":1365,"o":"m 1315 979 q 1352 966 1339 979 q 1365 932 1365 953 q 1351 897 1365 910 q 1311 883 1336 883 l 756 883 l 801 544 l 1253 544 q 1291 532 1278 544 q 1304 499 1304 519 q 1290 463 1304 476 q 1250 450 1275 450 l 814 450 l 863 96 l 1244 96 q 1283 83 1269 96 q 1297 49 1297 69 q 1283 13 1297 26 q 1242 0 1268 0 l 821 0 q 782 11 797 0 q 764 43 767 22 l 736 251 l 268 251 l 115 24 q 61 -8 94 -8 q 25 5 40 -8 q 10 39 10 18 q 24 78 10 58 l 618 944 q 688 979 644 979 l 1315 979 m 724 346 l 658 833 l 331 346 l 724 346 m 793 1071 q 761 1056 775 1056 q 742 1064 750 1056 q 733 1083 733 1072 q 742 1107 733 1094 l 849 1256 q 896 1283 868 1283 q 928 1271 915 1283 q 942 1240 942 1258 q 922 1200 942 1219 l 793 1071 z "},"B":{"ha":936,"x_min":97,"x_max":864,"o":"m 686 500 q 808 422 765 479 q 850 282 850 365 q 761 74 850 149 q 514 0 672 0 l 157 0 q 113 17 129 0 q 99 63 97 35 l 167 924 q 185 965 168 950 q 226 979 201 979 l 550 979 q 784 917 704 979 q 864 739 864 854 q 819 592 864 653 q 686 500 774 531 m 276 885 l 250 544 l 524 544 q 692 592 633 544 q 750 729 750 639 q 540 885 750 885 l 276 885 m 510 94 q 739 281 739 94 q 526 450 739 450 l 243 450 l 215 94 l 510 94 z "},"C":{"ha":940,"x_min":96,"x_max":925,"o":"m 515 -11 q 293 44 388 -11 q 147 203 199 100 q 96 449 96 307 q 153 735 96 613 q 317 924 211 857 q 568 990 424 990 q 760 960 674 990 q 903 875 846 931 q 925 832 925 857 q 912 796 925 811 q 879 781 899 781 q 847 793 864 781 q 724 867 790 843 q 569 892 658 892 q 308 774 401 892 q 214 447 214 656 q 296 181 214 275 q 531 88 378 88 q 671 112 603 88 q 794 183 739 136 q 829 197 813 197 q 858 184 847 197 q 869 151 869 171 q 847 107 869 125 q 701 19 786 50 q 515 -11 617 -11 z "},"Ć":{"ha":940,"x_min":96,"x_max":925,"o":"m 515 -11 q 293 44 388 -11 q 147 203 199 100 q 96 449 96 307 q 153 735 96 613 q 317 924 211 857 q 568 990 424 990 q 760 960 674 990 q 903 875 846 931 q 925 832 925 857 q 912 796 925 811 q 879 781 899 781 q 847 793 864 781 q 724 867 790 843 q 569 892 658 892 q 308 774 401 892 q 214 447 214 656 q 296 181 214 275 q 531 88 378 88 q 671 112 603 88 q 794 183 739 136 q 829 197 813 197 q 858 184 847 197 q 869 151 869 171 q 847 107 869 125 q 701 19 786 50 q 515 -11 617 -11 m 638 1071 q 606 1056 619 1056 q 586 1064 594 1056 q 578 1083 578 1072 q 586 1107 578 1094 l 693 1256 q 740 1283 713 1283 q 773 1271 760 1283 q 786 1240 786 1258 q 767 1200 786 1219 l 638 1071 z "},"Č":{"ha":940,"x_min":96,"x_max":925,"o":"m 515 -11 q 293 44 388 -11 q 147 203 199 100 q 96 449 96 307 q 153 735 96 613 q 317 924 211 857 q 568 990 424 990 q 760 960 674 990 q 903 875 846 931 q 925 832 925 857 q 912 796 925 811 q 879 781 899 781 q 847 793 864 781 q 724 867 790 843 q 569 892 658 892 q 308 774 401 892 q 214 447 214 656 q 296 181 214 275 q 531 88 378 88 q 671 112 603 88 q 794 183 739 136 q 829 197 813 197 q 858 184 847 197 q 869 151 869 171 q 847 107 869 125 q 701 19 786 50 q 515 -11 617 -11 m 701 1261 q 740 1282 718 1282 q 768 1270 756 1282 q 781 1243 781 1258 q 769 1215 781 1228 l 647 1079 q 592 1054 624 1054 q 542 1079 561 1054 l 446 1211 q 435 1240 435 1226 q 447 1269 435 1257 q 476 1281 460 1281 q 518 1254 501 1281 l 596 1129 l 701 1261 z "},"Ç":{"ha":940,"x_min":96,"x_max":925,"o":"m 903 875 q 925 832 925 857 q 912 796 925 811 q 879 781 899 781 q 847 793 864 781 q 724 867 790 843 q 569 892 658 892 q 308 774 401 892 q 214 447 214 656 q 296 181 214 275 q 531 88 378 88 q 671 112 603 88 q 794 183 739 136 q 829 197 813 197 q 858 184 847 197 q 869 151 869 171 q 847 107 869 125 q 533 -11 726 -6 l 524 -58 q 553 -57 532 -57 q 626 -82 599 -57 q 654 -150 654 -107 q 610 -236 654 -204 q 490 -268 565 -268 q 390 -251 440 -268 q 367 -221 367 -242 q 380 -194 367 -206 q 411 -189 393 -183 q 490 -201 453 -201 q 571 -153 571 -201 q 558 -125 571 -135 q 524 -115 546 -115 q 485 -122 504 -115 q 461 -128 467 -128 q 442 -119 450 -128 q 436 -101 435 -111 l 456 -8 q 192 132 289 11 q 96 449 96 253 q 153 735 96 613 q 317 924 211 857 q 568 990 424 990 q 760 960 674 990 q 903 875 846 931 z "},"Ḉ":{"ha":940,"x_min":96,"x_max":925,"o":"m 638 1071 q 606 1056 619 1056 q 586 1064 594 1056 q 578 1083 578 1072 q 586 1107 578 1094 l 693 1256 q 740 1283 713 1283 q 773 1271 760 1283 q 786 1240 786 1258 q 767 1200 786 1219 l 638 1071 m 903 875 q 925 832 925 857 q 912 796 925 811 q 879 781 899 781 q 847 793 864 781 q 724 867 790 843 q 569 892 658 892 q 308 774 401 892 q 214 447 214 656 q 296 181 214 275 q 531 88 378 88 q 671 112 603 88 q 794 183 739 136 q 829 197 813 197 q 858 184 847 197 q 869 151 869 171 q 847 107 869 125 q 533 -11 726 -6 l 524 -58 q 553 -57 532 -57 q 626 -82 599 -57 q 654 -150 654 -107 q 610 -236 654 -204 q 490 -268 565 -268 q 390 -251 440 -268 q 367 -221 367 -242 q 380 -194 367 -206 q 411 -189 393 -183 q 490 -201 453 -201 q 571 -153 571 -201 q 558 -125 571 -135 q 524 -115 546 -115 q 485 -122 504 -115 q 461 -128 467 -128 q 442 -119 450 -128 q 436 -101 435 -111 l 456 -8 q 192 132 289 11 q 96 449 96 253 q 153 735 96 613 q 317 924 211 857 q 568 990 424 990 q 760 960 674 990 q 903 875 846 931 z "},"Ĉ":{"ha":940,"x_min":96,"x_max":925,"o":"m 515 -11 q 293 44 388 -11 q 147 203 199 100 q 96 449 96 307 q 153 735 96 613 q 317 924 211 857 q 568 990 424 990 q 760 960 674 990 q 903 875 846 931 q 925 832 925 857 q 912 796 925 811 q 879 781 899 781 q 847 793 864 781 q 724 867 790 843 q 569 892 658 892 q 308 774 401 892 q 214 447 214 656 q 296 181 214 275 q 531 88 378 88 q 671 112 603 88 q 794 183 739 136 q 829 197 813 197 q 858 184 847 197 q 869 151 869 171 q 847 107 869 125 q 701 19 786 50 q 515 -11 617 -11 m 503 1075 q 464 1054 483 1054 q 435 1066 447 1054 q 422 1093 422 1078 q 435 1121 422 1107 l 557 1257 q 613 1282 581 1282 q 663 1257 644 1282 l 758 1124 q 768 1096 768 1110 q 756 1067 768 1079 q 726 1056 743 1056 q 686 1082 703 1056 l 608 1206 l 503 1075 z "},"Ċ":{"ha":940,"x_min":96,"x_max":925,"o":"m 515 -11 q 293 44 388 -11 q 147 203 199 100 q 96 449 96 307 q 153 735 96 613 q 317 924 211 857 q 568 990 424 990 q 760 960 674 990 q 903 875 846 931 q 925 832 925 857 q 912 796 925 811 q 879 781 899 781 q 847 793 864 781 q 724 867 790 843 q 569 892 658 892 q 308 774 401 892 q 214 447 214 656 q 296 181 214 275 q 531 88 378 88 q 671 112 603 88 q 794 183 739 136 q 829 197 813 197 q 858 184 847 197 q 869 151 869 171 q 847 107 869 125 q 701 19 786 50 q 515 -11 617 -11 m 603 1099 q 549 1118 569 1099 q 528 1169 528 1138 q 549 1220 528 1201 q 603 1239 569 1239 q 657 1220 636 1239 q 678 1169 678 1201 q 657 1118 678 1138 q 603 1099 636 1099 z "},"D":{"ha":1026,"x_min":97,"x_max":954,"o":"m 157 0 q 113 17 129 0 q 99 63 97 35 l 167 924 q 185 965 168 950 q 226 979 201 979 l 494 979 q 835 861 715 979 q 954 529 954 743 q 896 245 954 364 q 725 63 838 126 q 454 0 613 0 l 157 0 m 449 97 q 738 208 640 97 q 836 531 836 319 q 485 882 836 882 l 278 882 l 217 97 l 449 97 z "},"Ǆ":{"ha":1825,"x_min":99,"x_max":1814,"o":"m 157 0 q 113 17 129 0 q 99 63 97 35 l 167 924 q 185 965 168 950 q 226 979 201 979 l 494 979 q 835 861 715 979 q 954 529 954 743 q 896 245 954 364 q 725 63 838 126 q 454 0 613 0 l 157 0 m 449 97 q 738 208 640 97 q 836 531 836 319 q 485 882 836 882 l 278 882 l 217 97 l 449 97 m 1768 979 q 1801 966 1789 979 q 1814 933 1814 953 q 1799 890 1814 910 l 1185 96 l 1711 96 q 1749 83 1736 96 q 1763 50 1763 71 q 1749 13 1763 26 q 1708 0 1735 0 l 1085 0 q 1049 13 1063 0 q 1036 46 1036 26 q 1053 89 1036 68 l 1667 883 l 1156 883 q 1119 896 1132 883 q 1106 929 1106 908 q 1160 979 1106 979 l 1768 979 m 1581 1261 q 1619 1282 1597 1282 q 1647 1270 1635 1282 q 1660 1243 1660 1258 q 1649 1215 1660 1228 l 1526 1079 q 1471 1054 1503 1054 q 1421 1079 1440 1054 l 1325 1211 q 1314 1240 1314 1226 q 1326 1269 1314 1257 q 1356 1281 1339 1281 q 1397 1254 1381 1281 l 1475 1129 l 1581 1261 z "},"Ð":{"ha":1044,"x_min":13,"x_max":972,"o":"m 513 979 q 853 861 733 979 q 972 529 972 743 q 914 245 972 364 q 743 63 856 126 q 472 0 631 0 l 175 0 q 131 17 147 0 q 118 63 115 35 l 149 450 l 65 450 q 26 463 40 450 q 13 496 13 475 q 27 531 13 518 q 68 543 42 543 l 156 543 l 185 924 q 203 965 186 950 q 244 979 219 979 l 513 979 m 467 97 q 756 208 658 97 q 854 531 854 319 q 767 793 854 704 q 504 882 679 882 l 296 882 l 269 543 l 490 543 q 530 531 517 543 q 543 497 543 518 q 529 463 543 475 q 489 450 515 450 l 263 450 l 235 97 l 467 97 z "},"Ď":{"ha":1026,"x_min":99,"x_max":954,"o":"m 157 0 q 113 17 129 0 q 99 63 97 35 l 167 924 q 185 965 168 950 q 226 979 201 979 l 494 979 q 835 861 715 979 q 954 529 954 743 q 896 245 954 364 q 725 63 838 126 q 454 0 613 0 l 157 0 m 449 97 q 738 208 640 97 q 836 531 836 319 q 485 882 836 882 l 278 882 l 217 97 l 449 97 m 678 1261 q 717 1282 694 1282 q 744 1270 732 1282 q 757 1243 757 1258 q 746 1215 757 1228 l 624 1079 q 568 1054 600 1054 q 518 1079 538 1054 l 422 1211 q 411 1240 411 1226 q 424 1269 411 1257 q 453 1281 436 1281 q 494 1254 478 1281 l 572 1129 l 678 1261 z "},"Đ":{"ha":1044,"x_min":13,"x_max":972,"o":"m 513 979 q 853 861 733 979 q 972 529 972 743 q 914 245 972 364 q 743 63 856 126 q 472 0 631 0 l 175 0 q 131 17 147 0 q 118 63 115 35 l 149 450 l 65 450 q 26 463 40 450 q 13 496 13 475 q 27 531 13 518 q 68 543 42 543 l 156 543 l 185 924 q 203 965 186 950 q 244 979 219 979 l 513 979 m 467 97 q 756 208 658 97 q 854 531 854 319 q 767 793 854 704 q 504 882 679 882 l 296 882 l 269 543 l 490 543 q 530 531 517 543 q 543 497 543 518 q 529 463 543 475 q 489 450 515 450 l 263 450 l 235 97 l 467 97 z "},"Ḍ":{"ha":1026,"x_min":99,"x_max":954,"o":"m 157 0 q 113 17 129 0 q 99 63 97 35 l 167 924 q 185 965 168 950 q 226 979 201 979 l 494 979 q 835 861 715 979 q 954 529 954 743 q 896 245 954 364 q 725 63 838 126 q 454 0 613 0 l 157 0 m 449 97 q 738 208 640 97 q 836 531 836 319 q 485 882 836 882 l 278 882 l 217 97 l 449 97 m 472 -260 q 421 -241 440 -260 q 401 -192 401 -222 q 421 -142 401 -161 q 472 -124 440 -124 q 523 -142 503 -124 q 543 -192 543 -161 q 524 -241 543 -222 q 472 -260 504 -260 z "},"Ḏ":{"ha":1026,"x_min":99,"x_max":954,"o":"m 157 0 q 113 17 129 0 q 99 63 97 35 l 167 924 q 185 965 168 950 q 226 979 201 979 l 494 979 q 835 861 715 979 q 954 529 954 743 q 896 245 954 364 q 725 63 838 126 q 454 0 613 0 l 157 0 m 449 97 q 738 208 640 97 q 836 531 836 319 q 485 882 836 882 l 278 882 l 217 97 l 449 97 m 301 -233 q 267 -222 279 -233 q 254 -193 254 -211 q 269 -162 254 -172 q 307 -151 283 -151 l 644 -151 q 678 -162 667 -151 q 690 -190 690 -172 q 676 -222 690 -211 q 638 -233 663 -233 l 301 -233 z "},"ǅ":{"ha":1725,"x_min":99,"x_max":1683,"o":"m 157 0 q 113 17 129 0 q 99 63 97 35 l 167 924 q 185 965 168 950 q 226 979 201 979 l 494 979 q 835 861 715 979 q 954 529 954 743 q 896 245 954 364 q 725 63 838 126 q 454 0 613 0 l 157 0 m 449 97 q 738 208 640 97 q 836 531 836 319 q 485 882 836 882 l 278 882 l 217 97 l 449 97 m 1639 676 q 1672 663 1660 676 q 1683 631 1683 650 q 1665 588 1683 606 l 1218 89 l 1607 89 q 1642 77 1629 89 q 1654 46 1654 65 q 1641 13 1654 25 q 1603 0 1628 0 l 1106 0 q 1073 13 1085 0 q 1061 43 1061 25 q 1079 83 1061 65 l 1531 588 l 1165 588 q 1131 599 1143 588 q 1119 631 1119 610 q 1132 664 1119 651 q 1169 676 1144 676 l 1639 676 m 1526 1026 q 1544 1046 1533 1039 q 1567 1053 1556 1053 q 1597 1040 1583 1053 q 1610 1011 1610 1028 q 1600 982 1610 996 l 1475 793 q 1415 758 1450 758 q 1363 793 1381 758 l 1267 985 q 1261 1008 1261 996 q 1276 1040 1261 1026 q 1308 1053 1290 1053 q 1346 1025 1333 1053 l 1422 847 l 1526 1026 z "},"E":{"ha":808,"x_min":97,"x_max":797,"o":"m 747 979 q 784 967 771 979 q 797 933 797 954 q 783 897 797 910 q 743 885 769 885 l 276 885 l 250 544 l 685 544 q 723 532 710 544 q 736 499 736 519 q 722 463 736 476 q 682 450 707 450 l 243 450 l 215 94 l 678 94 q 715 82 701 94 q 728 49 728 69 q 713 13 728 26 q 674 0 699 0 l 153 0 q 111 15 125 0 q 99 58 97 31 l 167 924 q 226 979 171 979 l 747 979 z "},"É":{"ha":808,"x_min":99,"x_max":797,"o":"m 747 979 q 784 967 771 979 q 797 933 797 954 q 783 897 797 910 q 743 885 769 885 l 276 885 l 250 544 l 685 544 q 723 532 710 544 q 736 499 736 519 q 722 463 736 476 q 682 450 707 450 l 243 450 l 215 94 l 678 94 q 715 82 701 94 q 728 49 728 69 q 713 13 728 26 q 674 0 699 0 l 153 0 q 111 15 125 0 q 99 58 97 31 l 167 924 q 226 979 171 979 l 747 979 m 551 1071 q 519 1056 533 1056 q 500 1064 508 1056 q 492 1083 492 1072 q 500 1107 492 1094 l 607 1256 q 654 1283 626 1283 q 687 1271 674 1283 q 700 1240 700 1258 q 681 1200 700 1219 l 551 1071 z "},"Ĕ":{"ha":808,"x_min":99,"x_max":797,"o":"m 747 979 q 784 967 771 979 q 797 933 797 954 q 783 897 797 910 q 743 885 769 885 l 276 885 l 250 544 l 685 544 q 723 532 710 544 q 736 499 736 519 q 722 463 736 476 q 682 450 707 450 l 243 450 l 215 94 l 678 94 q 715 82 701 94 q 728 49 728 69 q 713 13 728 26 q 674 0 699 0 l 153 0 q 111 15 125 0 q 99 58 97 31 l 167 924 q 226 979 171 979 l 747 979 m 511 1079 q 388 1109 440 1079 q 307 1197 335 1139 q 301 1219 301 1208 q 313 1247 301 1236 q 340 1257 324 1257 q 379 1235 363 1257 q 515 1160 422 1160 q 660 1235 607 1160 q 703 1258 679 1258 q 728 1249 718 1258 q 739 1225 739 1239 q 731 1197 739 1213 q 639 1109 696 1139 q 511 1079 582 1079 z "},"Ě":{"ha":808,"x_min":99,"x_max":797,"o":"m 747 979 q 784 967 771 979 q 797 933 797 954 q 783 897 797 910 q 743 885 769 885 l 276 885 l 250 544 l 685 544 q 723 532 710 544 q 736 499 736 519 q 722 463 736 476 q 682 450 707 450 l 243 450 l 215 94 l 678 94 q 715 82 701 94 q 728 49 728 69 q 713 13 728 26 q 674 0 699 0 l 153 0 q 111 15 125 0 q 99 58 97 31 l 167 924 q 226 979 171 979 l 747 979 m 615 1261 q 654 1282 632 1282 q 682 1270 669 1282 q 694 1243 694 1258 q 683 1215 694 1228 l 561 1079 q 506 1054 538 1054 q 456 1079 475 1054 l 360 1211 q 349 1240 349 1226 q 361 1269 349 1257 q 390 1281 374 1281 q 432 1254 415 1281 l 510 1129 l 615 1261 z "},"Ȩ":{"ha":808,"x_min":97,"x_max":797,"o":"m 747 979 q 784 967 771 979 q 797 933 797 954 q 783 897 797 910 q 743 885 769 885 l 276 885 l 250 544 l 685 544 q 723 532 710 544 q 736 499 736 519 q 722 463 736 476 q 682 450 707 450 l 243 450 l 215 94 l 678 94 q 715 82 701 94 q 728 49 728 69 q 713 13 728 26 q 674 0 699 0 l 450 0 l 439 -58 q 468 -57 447 -57 q 542 -82 514 -57 q 569 -150 569 -107 q 525 -236 569 -204 q 406 -268 481 -268 q 306 -251 356 -268 q 282 -221 282 -242 q 295 -194 282 -206 q 326 -189 308 -183 q 406 -201 368 -201 q 486 -153 486 -201 q 474 -125 486 -135 q 439 -115 461 -115 q 401 -122 419 -115 q 376 -128 382 -128 q 358 -119 365 -128 q 351 -101 350 -111 l 372 0 l 153 0 q 111 15 125 0 q 99 58 97 31 l 167 924 q 226 979 171 979 l 747 979 z "},"Ḝ":{"ha":808,"x_min":97,"x_max":797,"o":"m 511 1079 q 388 1109 440 1079 q 307 1197 335 1139 q 301 1219 301 1208 q 313 1247 301 1236 q 340 1257 324 1257 q 379 1235 363 1257 q 515 1160 422 1160 q 660 1235 607 1160 q 703 1258 679 1258 q 728 1249 718 1258 q 739 1225 739 1239 q 731 1197 739 1213 q 639 1109 696 1139 q 511 1079 582 1079 m 747 979 q 784 967 771 979 q 797 933 797 954 q 783 897 797 910 q 743 885 769 885 l 276 885 l 250 544 l 685 544 q 723 532 710 544 q 736 499 736 519 q 722 463 736 476 q 682 450 707 450 l 243 450 l 215 94 l 678 94 q 715 82 701 94 q 728 49 728 69 q 713 13 728 26 q 674 0 699 0 l 450 0 l 439 -58 q 468 -57 447 -57 q 542 -82 514 -57 q 569 -150 569 -107 q 525 -236 569 -204 q 406 -268 481 -268 q 306 -251 356 -268 q 282 -221 282 -242 q 295 -194 282 -206 q 326 -189 308 -183 q 406 -201 368 -201 q 486 -153 486 -201 q 474 -125 486 -135 q 439 -115 461 -115 q 401 -122 419 -115 q 376 -128 382 -128 q 358 -119 365 -128 q 351 -101 350 -111 l 372 0 l 153 0 q 111 15 125 0 q 99 58 97 31 l 167 924 q 226 979 171 979 l 747 979 z "},"Ê":{"ha":808,"x_min":99,"x_max":797,"o":"m 747 979 q 784 967 771 979 q 797 933 797 954 q 783 897 797 910 q 743 885 769 885 l 276 885 l 250 544 l 685 544 q 723 532 710 544 q 736 499 736 519 q 722 463 736 476 q 682 450 707 450 l 243 450 l 215 94 l 678 94 q 715 82 701 94 q 728 49 728 69 q 713 13 728 26 q 674 0 699 0 l 153 0 q 111 15 125 0 q 99 58 97 31 l 167 924 q 226 979 171 979 l 747 979 m 417 1075 q 378 1054 397 1054 q 349 1066 361 1054 q 336 1093 336 1078 q 349 1121 336 1107 l 471 1257 q 526 1282 494 1282 q 576 1257 558 1282 l 672 1124 q 682 1096 682 1110 q 669 1067 682 1079 q 640 1056 657 1056 q 600 1082 617 1056 l 522 1206 l 417 1075 z "},"Ế":{"ha":808,"x_min":99,"x_max":853,"o":"m 747 979 q 784 967 771 979 q 797 933 797 954 q 783 897 797 910 q 743 885 769 885 l 276 885 l 250 544 l 685 544 q 723 532 710 544 q 736 499 736 519 q 722 463 736 476 q 682 450 707 450 l 243 450 l 215 94 l 678 94 q 715 82 701 94 q 728 49 728 69 q 713 13 728 26 q 674 0 699 0 l 153 0 q 111 15 125 0 q 99 58 97 31 l 167 924 q 226 979 171 979 l 747 979 m 704 1208 q 681 1199 693 1199 q 661 1207 669 1199 q 653 1226 653 1215 q 661 1246 653 1236 l 764 1388 q 808 1413 781 1413 q 840 1400 826 1413 q 853 1369 853 1388 q 832 1328 853 1347 l 704 1208 m 414 1071 q 381 1054 399 1054 q 353 1067 365 1054 q 340 1094 340 1079 q 353 1122 340 1110 l 472 1251 q 526 1276 494 1276 q 575 1251 556 1276 l 671 1122 q 682 1093 682 1107 q 669 1067 682 1078 q 642 1056 657 1056 q 603 1078 618 1056 l 521 1200 l 414 1071 z "},"Ệ":{"ha":808,"x_min":99,"x_max":797,"o":"m 747 979 q 784 967 771 979 q 797 933 797 954 q 783 897 797 910 q 743 885 769 885 l 276 885 l 250 544 l 685 544 q 723 532 710 544 q 736 499 736 519 q 722 463 736 476 q 682 450 707 450 l 243 450 l 215 94 l 678 94 q 715 82 701 94 q 728 49 728 69 q 713 13 728 26 q 674 0 699 0 l 153 0 q 111 15 125 0 q 99 58 97 31 l 167 924 q 226 979 171 979 l 747 979 m 408 -260 q 357 -241 376 -260 q 338 -192 338 -222 q 357 -142 338 -161 q 408 -124 376 -124 q 459 -142 439 -124 q 479 -192 479 -161 q 460 -241 479 -222 q 408 -260 440 -260 m 417 1075 q 378 1054 397 1054 q 349 1066 361 1054 q 336 1093 336 1078 q 349 1121 336 1107 l 471 1257 q 526 1282 494 1282 q 576 1257 558 1282 l 672 1124 q 682 1096 682 1110 q 669 1067 682 1079 q 640 1056 657 1056 q 600 1082 617 1056 l 522 1206 l 417 1075 z "},"Ề":{"ha":808,"x_min":99,"x_max":797,"o":"m 747 979 q 784 967 771 979 q 797 933 797 954 q 783 897 797 910 q 743 885 769 885 l 276 885 l 250 544 l 685 544 q 723 532 710 544 q 736 499 736 519 q 722 463 736 476 q 682 450 707 450 l 243 450 l 215 94 l 678 94 q 715 82 701 94 q 728 49 728 69 q 713 13 728 26 q 674 0 699 0 l 153 0 q 111 15 125 0 q 99 58 97 31 l 167 924 q 226 979 171 979 l 747 979 m 736 1229 q 726 1212 735 1218 q 710 1206 718 1206 q 694 1211 701 1206 q 686 1226 688 1217 l 639 1353 q 638 1368 638 1358 q 649 1397 638 1386 q 676 1407 661 1407 q 706 1395 693 1407 q 718 1363 718 1383 l 736 1229 m 414 1071 q 381 1054 399 1054 q 353 1067 365 1054 q 340 1094 340 1079 q 353 1122 340 1110 l 472 1251 q 526 1276 494 1276 q 575 1251 556 1276 l 671 1122 q 682 1093 682 1107 q 669 1067 682 1078 q 642 1056 657 1056 q 603 1078 618 1056 l 521 1200 l 414 1071 z "},"Ể":{"ha":808,"x_min":99,"x_max":828,"o":"m 747 979 q 784 967 771 979 q 797 933 797 954 q 783 897 797 910 q 743 885 769 885 l 276 885 l 250 544 l 685 544 q 723 532 710 544 q 736 499 736 519 q 722 463 736 476 q 682 450 707 450 l 243 450 l 215 94 l 678 94 q 715 82 701 94 q 728 49 728 69 q 713 13 728 26 q 674 0 699 0 l 153 0 q 111 15 125 0 q 99 58 97 31 l 167 924 q 226 979 171 979 l 747 979 m 710 1224 q 697 1206 707 1213 q 674 1199 686 1199 q 650 1207 660 1199 q 640 1231 640 1215 q 656 1267 640 1254 q 701 1293 672 1281 q 729 1307 719 1300 q 739 1322 739 1314 q 725 1339 739 1333 q 685 1344 711 1344 q 611 1335 660 1344 l 603 1333 q 581 1341 589 1333 q 572 1361 572 1349 q 597 1393 572 1383 q 696 1410 638 1410 q 793 1388 758 1410 q 828 1332 828 1367 q 810 1287 828 1301 q 757 1257 792 1272 q 723 1240 733 1247 q 710 1224 713 1233 m 414 1071 q 381 1054 399 1054 q 353 1067 365 1054 q 340 1094 340 1079 q 353 1122 340 1110 l 472 1251 q 526 1276 494 1276 q 575 1251 556 1276 l 671 1122 q 682 1093 682 1107 q 669 1067 682 1078 q 642 1056 657 1056 q 603 1078 618 1056 l 521 1200 l 414 1071 z "},"Ễ":{"ha":808,"x_min":99,"x_max":797,"o":"m 747 979 q 784 967 771 979 q 797 933 797 954 q 783 897 797 910 q 743 885 769 885 l 276 885 l 250 544 l 685 544 q 723 532 710 544 q 736 499 736 519 q 722 463 736 476 q 682 450 707 450 l 243 450 l 215 94 l 678 94 q 715 82 701 94 q 728 49 728 69 q 713 13 728 26 q 674 0 699 0 l 153 0 q 111 15 125 0 q 99 58 97 31 l 167 924 q 226 979 171 979 l 747 979 m 336 1292 q 317 1301 324 1292 q 310 1324 310 1310 q 326 1368 310 1344 q 373 1408 343 1392 q 438 1424 403 1424 q 486 1415 461 1424 q 549 1392 511 1407 q 593 1374 571 1382 q 631 1367 615 1367 q 668 1376 654 1367 q 694 1400 682 1385 q 709 1415 701 1408 q 725 1421 717 1421 q 747 1412 739 1421 q 754 1389 754 1403 q 737 1344 754 1368 q 690 1305 719 1321 q 624 1289 660 1289 q 574 1297 600 1289 q 514 1319 549 1304 q 469 1337 492 1329 q 432 1344 447 1344 q 397 1337 410 1344 q 368 1313 385 1329 q 352 1297 358 1301 q 336 1292 346 1292 m 414 1071 q 381 1054 399 1054 q 353 1067 365 1054 q 340 1094 340 1079 q 353 1122 340 1110 l 472 1251 q 526 1276 494 1276 q 575 1251 556 1276 l 671 1122 q 682 1093 682 1107 q 669 1067 682 1078 q 642 1056 657 1056 q 603 1078 618 1056 l 521 1200 l 414 1071 z "},"Ȅ":{"ha":808,"x_min":99,"x_max":797,"o":"m 747 979 q 784 967 771 979 q 797 933 797 954 q 783 897 797 910 q 743 885 769 885 l 276 885 l 250 544 l 685 544 q 723 532 710 544 q 736 499 736 519 q 722 463 736 476 q 682 450 707 450 l 243 450 l 215 94 l 678 94 q 715 82 701 94 q 728 49 728 69 q 713 13 728 26 q 674 0 699 0 l 153 0 q 111 15 125 0 q 99 58 97 31 l 167 924 q 226 979 171 979 l 747 979 m 306 1214 q 299 1238 299 1225 q 312 1268 299 1256 q 342 1281 325 1281 q 383 1246 372 1281 l 440 1096 q 443 1083 443 1088 q 435 1063 443 1071 q 415 1056 426 1056 q 392 1071 401 1056 l 306 1214 m 472 1214 q 465 1238 465 1225 q 478 1268 465 1256 q 508 1281 492 1281 q 550 1246 539 1281 l 608 1096 q 610 1085 610 1092 q 601 1064 610 1072 q 582 1056 593 1056 q 558 1071 567 1056 l 472 1214 z "},"Ë":{"ha":808,"x_min":99,"x_max":797,"o":"m 747 979 q 784 967 771 979 q 797 933 797 954 q 783 897 797 910 q 743 885 769 885 l 276 885 l 250 544 l 685 544 q 723 532 710 544 q 736 499 736 519 q 722 463 736 476 q 682 450 707 450 l 243 450 l 215 94 l 678 94 q 715 82 701 94 q 728 49 728 69 q 713 13 728 26 q 674 0 699 0 l 153 0 q 111 15 125 0 q 99 58 97 31 l 167 924 q 226 979 171 979 l 747 979 m 397 1103 q 349 1122 368 1103 q 329 1169 329 1140 q 349 1217 329 1199 q 397 1236 368 1236 q 447 1217 426 1236 q 467 1169 467 1199 q 447 1121 467 1139 q 397 1103 428 1103 m 636 1103 q 587 1122 607 1103 q 567 1169 567 1140 q 587 1217 567 1199 q 636 1236 607 1236 q 685 1217 665 1236 q 704 1169 704 1199 q 685 1122 704 1140 q 636 1103 665 1103 z "},"Ė":{"ha":808,"x_min":99,"x_max":797,"o":"m 747 979 q 784 967 771 979 q 797 933 797 954 q 783 897 797 910 q 743 885 769 885 l 276 885 l 250 544 l 685 544 q 723 532 710 544 q 736 499 736 519 q 722 463 736 476 q 682 450 707 450 l 243 450 l 215 94 l 678 94 q 715 82 701 94 q 728 49 728 69 q 713 13 728 26 q 674 0 699 0 l 153 0 q 111 15 125 0 q 99 58 97 31 l 167 924 q 226 979 171 979 l 747 979 m 517 1099 q 463 1118 483 1099 q 442 1169 442 1138 q 463 1220 442 1201 q 517 1239 483 1239 q 571 1220 550 1239 q 592 1169 592 1201 q 571 1118 592 1138 q 517 1099 550 1099 z "},"Ẹ":{"ha":808,"x_min":99,"x_max":797,"o":"m 747 979 q 784 967 771 979 q 797 933 797 954 q 783 897 797 910 q 743 885 769 885 l 276 885 l 250 544 l 685 544 q 723 532 710 544 q 736 499 736 519 q 722 463 736 476 q 682 450 707 450 l 243 450 l 215 94 l 678 94 q 715 82 701 94 q 728 49 728 69 q 713 13 728 26 q 674 0 699 0 l 153 0 q 111 15 125 0 q 99 58 97 31 l 167 924 q 226 979 171 979 l 747 979 m 408 -260 q 357 -241 376 -260 q 338 -192 338 -222 q 357 -142 338 -161 q 408 -124 376 -124 q 459 -142 439 -124 q 479 -192 479 -161 q 460 -241 479 -222 q 408 -260 440 -260 z "},"È":{"ha":808,"x_min":99,"x_max":797,"o":"m 747 979 q 784 967 771 979 q 797 933 797 954 q 783 897 797 910 q 743 885 769 885 l 276 885 l 250 544 l 685 544 q 723 532 710 544 q 736 499 736 519 q 722 463 736 476 q 682 450 707 450 l 243 450 l 215 94 l 678 94 q 715 82 701 94 q 728 49 728 69 q 713 13 728 26 q 674 0 699 0 l 153 0 q 111 15 125 0 q 99 58 97 31 l 167 924 q 226 979 171 979 l 747 979 m 354 1208 q 340 1242 340 1224 q 354 1272 340 1260 q 386 1285 368 1285 q 431 1256 415 1285 l 521 1103 q 526 1085 526 1093 q 517 1064 526 1072 q 494 1056 507 1056 q 464 1071 475 1056 l 354 1208 z "},"Ẻ":{"ha":808,"x_min":99,"x_max":797,"o":"m 747 979 q 784 967 771 979 q 797 933 797 954 q 783 897 797 910 q 743 885 769 885 l 276 885 l 250 544 l 685 544 q 723 532 710 544 q 736 499 736 519 q 722 463 736 476 q 682 450 707 450 l 243 450 l 215 94 l 678 94 q 715 82 701 94 q 728 49 728 69 q 713 13 728 26 q 674 0 699 0 l 153 0 q 111 15 125 0 q 99 58 97 31 l 167 924 q 226 979 171 979 l 747 979 m 549 1081 q 535 1062 546 1068 q 511 1056 525 1056 q 485 1065 496 1056 q 475 1092 474 1074 q 491 1126 476 1114 q 535 1154 506 1139 q 564 1171 554 1163 q 574 1189 574 1179 q 521 1213 574 1213 q 447 1201 485 1213 q 436 1200 443 1200 q 416 1208 424 1200 q 408 1228 408 1217 q 435 1263 408 1253 q 532 1279 474 1279 q 628 1257 593 1279 q 663 1197 663 1235 q 645 1152 663 1168 q 596 1121 628 1136 q 563 1101 574 1110 q 549 1081 551 1093 z "},"Ȇ":{"ha":808,"x_min":99,"x_max":797,"o":"m 747 979 q 784 967 771 979 q 797 933 797 954 q 783 897 797 910 q 743 885 769 885 l 276 885 l 250 544 l 685 544 q 723 532 710 544 q 736 499 736 519 q 722 463 736 476 q 682 450 707 450 l 243 450 l 215 94 l 678 94 q 715 82 701 94 q 728 49 728 69 q 713 13 728 26 q 674 0 699 0 l 153 0 q 111 15 125 0 q 99 58 97 31 l 167 924 q 226 979 171 979 l 747 979 m 519 1258 q 644 1228 592 1258 q 724 1139 697 1197 q 729 1115 729 1128 q 719 1089 729 1099 q 693 1079 708 1079 q 653 1103 668 1079 q 596 1160 629 1142 q 517 1178 563 1178 q 372 1103 429 1178 q 328 1079 353 1079 q 302 1088 313 1079 q 292 1111 292 1097 q 301 1139 292 1125 q 393 1228 336 1197 q 519 1258 450 1258 z "},"Ē":{"ha":808,"x_min":99,"x_max":797,"o":"m 747 979 q 784 967 771 979 q 797 933 797 954 q 783 897 797 910 q 743 885 769 885 l 276 885 l 250 544 l 685 544 q 723 532 710 544 q 736 499 736 519 q 722 463 736 476 q 682 450 707 450 l 243 450 l 215 94 l 678 94 q 715 82 701 94 q 728 49 728 69 q 713 13 728 26 q 674 0 699 0 l 153 0 q 111 15 125 0 q 99 58 97 31 l 167 924 q 226 979 171 979 l 747 979 m 344 1126 q 310 1138 322 1126 q 299 1168 299 1149 q 313 1200 299 1189 q 351 1211 328 1211 l 689 1211 q 723 1200 711 1211 q 735 1169 735 1189 q 720 1138 735 1149 q 682 1126 706 1126 l 344 1126 z "},"Ḗ":{"ha":808,"x_min":99,"x_max":797,"o":"m 747 979 q 784 967 771 979 q 797 933 797 954 q 783 897 797 910 q 743 885 769 885 l 276 885 l 250 544 l 685 544 q 723 532 710 544 q 736 499 736 519 q 722 463 736 476 q 682 450 707 450 l 243 450 l 215 94 l 678 94 q 715 82 701 94 q 728 49 728 69 q 713 13 728 26 q 674 0 699 0 l 153 0 q 111 15 125 0 q 99 58 97 31 l 167 924 q 226 979 171 979 l 747 979 m 344 1126 q 310 1138 322 1126 q 299 1168 299 1149 q 313 1200 299 1189 q 351 1211 328 1211 l 689 1211 q 723 1200 711 1211 q 735 1169 735 1189 q 720 1138 735 1149 q 682 1126 706 1126 l 344 1126 m 569 1293 q 538 1278 551 1278 q 518 1286 526 1278 q 510 1306 510 1294 q 518 1329 510 1317 l 625 1478 q 672 1506 644 1506 q 705 1493 692 1506 q 718 1463 718 1481 q 699 1422 718 1442 l 569 1293 z "},"Ḕ":{"ha":808,"x_min":99,"x_max":797,"o":"m 747 979 q 784 967 771 979 q 797 933 797 954 q 783 897 797 910 q 743 885 769 885 l 276 885 l 250 544 l 685 544 q 723 532 710 544 q 736 499 736 519 q 722 463 736 476 q 682 450 707 450 l 243 450 l 215 94 l 678 94 q 715 82 701 94 q 728 49 728 69 q 713 13 728 26 q 674 0 699 0 l 153 0 q 111 15 125 0 q 99 58 97 31 l 167 924 q 226 979 171 979 l 747 979 m 344 1126 q 310 1138 322 1126 q 299 1168 299 1149 q 313 1200 299 1189 q 351 1211 328 1211 l 689 1211 q 723 1200 711 1211 q 735 1169 735 1189 q 720 1138 735 1149 q 682 1126 706 1126 l 344 1126 m 372 1431 q 358 1464 358 1446 q 372 1494 358 1482 q 404 1507 386 1507 q 449 1478 433 1507 l 539 1325 q 544 1307 544 1315 q 535 1286 544 1294 q 513 1278 525 1278 q 482 1293 493 1278 l 372 1431 z "},"Ę":{"ha":808,"x_min":97,"x_max":797,"o":"m 276 885 l 250 544 l 685 544 q 723 532 710 544 q 736 499 736 519 q 722 463 736 476 q 682 450 707 450 l 243 450 l 215 94 l 678 94 q 715 82 701 94 q 728 49 728 69 q 682 0 728 7 q 591 -33 622 -1 q 560 -112 560 -65 q 581 -174 560 -153 q 640 -194 603 -194 q 708 -178 669 -194 q 725 -174 719 -174 q 744 -181 738 -174 q 750 -201 750 -189 q 726 -242 750 -228 q 624 -268 678 -268 q 512 -230 554 -268 q 469 -131 469 -192 q 532 0 469 -51 l 153 0 q 111 15 125 0 q 99 58 97 31 l 167 924 q 226 979 171 979 l 747 979 q 784 967 771 979 q 797 933 797 954 q 783 897 797 910 q 743 885 769 885 l 276 885 z "},"Ẽ":{"ha":808,"x_min":99,"x_max":797,"o":"m 747 979 q 784 967 771 979 q 797 933 797 954 q 783 897 797 910 q 743 885 769 885 l 276 885 l 250 544 l 685 544 q 723 532 710 544 q 736 499 736 519 q 722 463 736 476 q 682 450 707 450 l 243 450 l 215 94 l 678 94 q 715 82 701 94 q 728 49 728 69 q 713 13 728 26 q 674 0 699 0 l 153 0 q 111 15 125 0 q 99 58 97 31 l 167 924 q 226 979 171 979 l 747 979 m 608 1094 q 561 1103 585 1094 q 501 1129 538 1111 q 419 1158 446 1158 q 382 1149 396 1158 q 353 1121 368 1139 q 338 1104 344 1110 q 321 1099 331 1099 q 301 1108 308 1099 q 294 1132 294 1117 q 311 1183 294 1157 q 358 1227 328 1210 q 425 1244 388 1244 q 472 1236 449 1244 q 532 1210 496 1228 q 614 1181 588 1181 q 651 1190 638 1181 q 681 1218 665 1200 q 711 1240 696 1240 q 732 1231 725 1240 q 739 1207 739 1222 q 722 1156 739 1182 q 676 1112 706 1129 q 608 1094 646 1094 z "},"F":{"ha":774,"x_min":96,"x_max":783,"o":"m 733 979 q 770 966 757 979 q 783 932 783 953 q 769 896 783 908 q 729 883 756 883 l 278 883 l 251 546 l 671 546 q 709 533 696 546 q 722 500 722 521 q 708 463 722 476 q 668 450 694 450 l 243 450 l 211 47 q 193 8 210 22 q 151 -7 176 -7 q 111 9 126 -7 q 97 51 96 25 l 167 924 q 226 979 171 979 l 733 979 z "},"G":{"ha":1006,"x_min":94,"x_max":933,"o":"m 585 893 q 385 839 469 893 q 257 683 301 785 q 213 443 213 582 q 297 178 213 271 q 549 85 382 85 q 775 122 665 85 l 799 421 l 601 421 q 563 433 576 421 q 549 464 549 444 q 563 497 549 485 q 601 510 578 510 l 851 510 q 892 494 876 510 q 904 454 907 478 l 879 114 q 865 64 876 81 q 826 40 853 47 q 690 3 768 17 q 542 -11 611 -11 q 210 108 326 -11 q 94 439 94 226 q 154 731 94 607 q 324 923 214 856 q 585 990 435 990 q 768 962 686 990 q 907 881 850 933 q 933 831 933 858 q 920 796 933 811 q 889 781 907 781 q 856 793 872 781 q 731 869 794 844 q 585 893 667 893 z "},"Ğ":{"ha":1006,"x_min":94,"x_max":933,"o":"m 585 893 q 385 839 469 893 q 257 683 301 785 q 213 443 213 582 q 297 178 213 271 q 549 85 382 85 q 775 122 665 85 l 799 421 l 601 421 q 563 433 576 421 q 549 464 549 444 q 563 497 549 485 q 601 510 578 510 l 851 510 q 892 494 876 510 q 904 454 907 478 l 879 114 q 865 64 876 81 q 826 40 853 47 q 690 3 768 17 q 542 -11 611 -11 q 210 108 326 -11 q 94 439 94 226 q 154 731 94 607 q 324 923 214 856 q 585 990 435 990 q 768 962 686 990 q 907 881 850 933 q 933 831 933 858 q 920 796 933 811 q 889 781 907 781 q 856 793 872 781 q 731 869 794 844 q 585 893 667 893 m 606 1079 q 482 1109 535 1079 q 401 1197 429 1139 q 396 1219 396 1208 q 407 1247 396 1236 q 435 1257 418 1257 q 474 1235 457 1257 q 610 1160 517 1160 q 754 1235 701 1160 q 797 1258 774 1258 q 823 1249 813 1258 q 833 1225 833 1239 q 825 1197 833 1213 q 733 1109 790 1139 q 606 1079 676 1079 z "},"Ǧ":{"ha":1006,"x_min":94,"x_max":933,"o":"m 585 893 q 385 839 469 893 q 257 683 301 785 q 213 443 213 582 q 297 178 213 271 q 549 85 382 85 q 775 122 665 85 l 799 421 l 601 421 q 563 433 576 421 q 549 464 549 444 q 563 497 549 485 q 601 510 578 510 l 851 510 q 892 494 876 510 q 904 454 907 478 l 879 114 q 865 64 876 81 q 826 40 853 47 q 690 3 768 17 q 542 -11 611 -11 q 210 108 326 -11 q 94 439 94 226 q 154 731 94 607 q 324 923 214 856 q 585 990 435 990 q 768 962 686 990 q 907 881 850 933 q 933 831 933 858 q 920 796 933 811 q 889 781 907 781 q 856 793 872 781 q 731 869 794 844 q 585 893 667 893 m 710 1261 q 749 1282 726 1282 q 776 1270 764 1282 q 789 1243 789 1258 q 778 1215 789 1228 l 656 1079 q 600 1054 632 1054 q 550 1079 569 1054 l 454 1211 q 443 1240 443 1226 q 456 1269 443 1257 q 485 1281 468 1281 q 526 1254 510 1281 l 604 1129 l 710 1261 z "},"Ĝ":{"ha":1006,"x_min":94,"x_max":933,"o":"m 585 893 q 385 839 469 893 q 257 683 301 785 q 213 443 213 582 q 297 178 213 271 q 549 85 382 85 q 775 122 665 85 l 799 421 l 601 421 q 563 433 576 421 q 549 464 549 444 q 563 497 549 485 q 601 510 578 510 l 851 510 q 892 494 876 510 q 904 454 907 478 l 879 114 q 865 64 876 81 q 826 40 853 47 q 690 3 768 17 q 542 -11 611 -11 q 210 108 326 -11 q 94 439 94 226 q 154 731 94 607 q 324 923 214 856 q 585 990 435 990 q 768 962 686 990 q 907 881 850 933 q 933 831 933 858 q 920 796 933 811 q 889 781 907 781 q 856 793 872 781 q 731 869 794 844 q 585 893 667 893 m 511 1075 q 472 1054 492 1054 q 443 1066 456 1054 q 431 1093 431 1078 q 443 1121 431 1107 l 565 1257 q 621 1282 589 1282 q 671 1257 653 1282 l 767 1124 q 776 1096 776 1110 q 764 1067 776 1079 q 735 1056 751 1056 q 694 1082 711 1056 l 617 1206 l 511 1075 z "},"Ģ":{"ha":1006,"x_min":94,"x_max":933,"o":"m 585 893 q 385 839 469 893 q 257 683 301 785 q 213 443 213 582 q 297 178 213 271 q 549 85 382 85 q 775 122 665 85 l 799 421 l 601 421 q 563 433 576 421 q 549 464 549 444 q 563 497 549 485 q 601 510 578 510 l 851 510 q 892 494 876 510 q 904 454 907 478 l 879 114 q 865 64 876 81 q 826 40 853 47 q 690 3 768 17 q 542 -11 611 -11 q 210 108 326 -11 q 94 439 94 226 q 154 731 94 607 q 324 923 214 856 q 585 990 435 990 q 768 962 686 990 q 907 881 850 933 q 933 831 933 858 q 920 796 933 811 q 889 781 907 781 q 856 793 872 781 q 731 869 794 844 q 585 893 667 893 m 517 -93 q 572 -114 553 -93 q 592 -174 592 -135 q 574 -261 592 -218 q 521 -340 556 -304 q 486 -357 506 -357 q 465 -349 474 -357 q 456 -331 456 -342 q 467 -306 456 -317 q 513 -222 504 -262 l 511 -222 q 465 -206 483 -222 q 447 -162 447 -190 q 467 -112 447 -132 q 517 -93 488 -93 z "},"Ġ":{"ha":1006,"x_min":94,"x_max":933,"o":"m 585 893 q 385 839 469 893 q 257 683 301 785 q 213 443 213 582 q 297 178 213 271 q 549 85 382 85 q 775 122 665 85 l 799 421 l 601 421 q 563 433 576 421 q 549 464 549 444 q 563 497 549 485 q 601 510 578 510 l 851 510 q 892 494 876 510 q 904 454 907 478 l 879 114 q 865 64 876 81 q 826 40 853 47 q 690 3 768 17 q 542 -11 611 -11 q 210 108 326 -11 q 94 439 94 226 q 154 731 94 607 q 324 923 214 856 q 585 990 435 990 q 768 962 686 990 q 907 881 850 933 q 933 831 933 858 q 920 796 933 811 q 889 781 907 781 q 856 793 872 781 q 731 869 794 844 q 585 893 667 893 m 611 1099 q 557 1118 578 1099 q 536 1169 536 1138 q 557 1220 536 1201 q 611 1239 578 1239 q 665 1220 644 1239 q 686 1169 686 1201 q 665 1118 686 1138 q 611 1099 644 1099 z "},"Ḡ":{"ha":1006,"x_min":94,"x_max":933,"o":"m 585 893 q 385 839 469 893 q 257 683 301 785 q 213 443 213 582 q 297 178 213 271 q 549 85 382 85 q 775 122 665 85 l 799 421 l 601 421 q 563 433 576 421 q 549 464 549 444 q 563 497 549 485 q 601 510 578 510 l 851 510 q 892 494 876 510 q 904 454 907 478 l 879 114 q 865 64 876 81 q 826 40 853 47 q 690 3 768 17 q 542 -11 611 -11 q 210 108 326 -11 q 94 439 94 226 q 154 731 94 607 q 324 923 214 856 q 585 990 435 990 q 768 962 686 990 q 907 881 850 933 q 933 831 933 858 q 920 796 933 811 q 889 781 907 781 q 856 793 872 781 q 731 869 794 844 q 585 893 667 893 m 439 1126 q 405 1138 417 1126 q 393 1168 393 1149 q 408 1200 393 1189 q 446 1211 422 1211 l 783 1211 q 817 1200 806 1211 q 829 1169 829 1189 q 815 1138 829 1149 q 776 1126 800 1126 l 439 1126 z "},"H":{"ha":1053,"x_min":97,"x_max":979,"o":"m 924 986 q 964 970 949 986 q 978 928 979 954 l 908 47 q 891 8 907 22 q 850 -7 875 -7 q 810 9 825 -7 q 796 51 794 25 l 828 449 l 243 449 l 211 47 q 193 8 210 22 q 153 -7 176 -7 q 113 9 128 -7 q 99 51 97 25 l 168 932 q 185 972 169 957 q 226 986 201 986 q 267 970 251 986 q 281 928 282 954 l 250 546 l 835 546 l 865 932 q 883 972 867 957 q 924 986 900 986 z "},"Ħ":{"ha":1090,"x_min":35,"x_max":1124,"o":"m 1075 813 q 1110 800 1097 813 q 1124 768 1124 788 q 1110 735 1124 747 q 1072 722 1096 722 l 982 722 l 929 47 q 911 8 928 22 q 869 -7 894 -7 q 829 9 844 -7 q 815 51 814 25 l 847 449 l 263 449 l 231 47 q 213 8 229 22 q 172 -7 197 -7 q 132 9 147 -7 q 118 51 117 25 l 171 722 l 82 722 q 47 734 60 722 q 35 765 35 746 q 49 799 35 786 q 86 813 63 813 l 178 813 l 188 932 q 205 972 189 957 q 246 986 221 986 q 286 970 271 986 q 300 928 301 954 l 290 813 l 875 813 l 885 932 q 903 972 886 957 q 943 986 919 986 q 983 970 968 986 q 997 928 999 954 l 989 813 l 1075 813 m 868 722 l 283 722 l 269 546 l 854 546 l 868 722 z "},"Ḫ":{"ha":1053,"x_min":99,"x_max":978,"o":"m 924 986 q 964 970 949 986 q 978 928 979 954 l 908 47 q 891 8 907 22 q 850 -7 875 -7 q 810 9 825 -7 q 796 51 794 25 l 828 449 l 243 449 l 211 47 q 193 8 210 22 q 153 -7 176 -7 q 113 9 128 -7 q 99 51 97 25 l 168 932 q 185 972 169 957 q 226 986 201 986 q 267 970 251 986 q 281 928 282 954 l 250 546 l 835 546 l 865 932 q 883 972 867 957 q 924 986 900 986 m 479 -293 q 353 -257 407 -293 q 274 -153 300 -221 q 269 -132 269 -143 q 281 -103 269 -114 q 310 -92 293 -92 q 350 -119 336 -92 q 403 -187 368 -164 q 485 -211 439 -211 q 631 -119 581 -211 q 674 -92 646 -92 q 699 -101 689 -92 q 710 -126 710 -111 q 703 -153 710 -136 q 611 -256 671 -219 q 479 -293 551 -293 z "},"Ĥ":{"ha":1053,"x_min":99,"x_max":978,"o":"m 924 986 q 964 970 949 986 q 978 928 979 954 l 908 47 q 891 8 907 22 q 850 -7 875 -7 q 810 9 825 -7 q 796 51 794 25 l 828 449 l 243 449 l 211 47 q 193 8 210 22 q 153 -7 176 -7 q 113 9 128 -7 q 99 51 97 25 l 168 932 q 185 972 169 957 q 226 986 201 986 q 267 970 251 986 q 281 928 282 954 l 250 546 l 835 546 l 865 932 q 883 972 867 957 q 924 986 900 986 m 493 1075 q 454 1054 474 1054 q 425 1066 438 1054 q 413 1093 413 1078 q 425 1121 413 1107 l 547 1257 q 603 1282 571 1282 q 653 1257 635 1282 l 749 1124 q 758 1096 758 1110 q 746 1067 758 1079 q 717 1056 733 1056 q 676 1082 693 1056 l 599 1206 l 493 1075 z "},"Ḥ":{"ha":1053,"x_min":99,"x_max":978,"o":"m 924 986 q 964 970 949 986 q 978 928 979 954 l 908 47 q 891 8 907 22 q 850 -7 875 -7 q 810 9 825 -7 q 796 51 794 25 l 828 449 l 243 449 l 211 47 q 193 8 210 22 q 153 -7 176 -7 q 113 9 128 -7 q 99 51 97 25 l 168 932 q 185 972 169 957 q 226 986 201 986 q 267 970 251 986 q 281 928 282 954 l 250 546 l 835 546 l 865 932 q 883 972 867 957 q 924 986 900 986 m 485 -260 q 433 -241 453 -260 q 414 -192 414 -222 q 433 -142 414 -161 q 485 -124 453 -124 q 535 -142 515 -124 q 556 -192 556 -161 q 536 -241 556 -222 q 485 -260 517 -260 z "},"I":{"ha":356,"x_min":97,"x_max":283,"o":"m 153 -7 q 113 9 128 -7 q 99 51 97 25 l 168 932 q 185 972 169 957 q 226 986 201 986 q 268 970 253 986 q 282 928 283 954 l 213 47 q 194 8 211 22 q 153 -7 178 -7 z "},"Í":{"ha":356,"x_min":99,"x_max":428,"o":"m 153 -7 q 113 9 128 -7 q 99 51 97 25 l 168 932 q 185 972 169 957 q 226 986 201 986 q 268 970 253 986 q 282 928 283 954 l 213 47 q 194 8 211 22 q 153 -7 178 -7 m 279 1071 q 247 1056 261 1056 q 228 1064 236 1056 q 219 1083 219 1072 q 228 1107 219 1094 l 335 1256 q 382 1283 354 1283 q 415 1271 401 1283 q 428 1240 428 1258 q 408 1200 428 1219 l 279 1071 z "},"Ĭ":{"ha":356,"x_min":29,"x_max":467,"o":"m 153 -7 q 113 9 128 -7 q 99 51 97 25 l 168 932 q 185 972 169 957 q 226 986 201 986 q 268 970 253 986 q 282 928 283 954 l 213 47 q 194 8 211 22 q 153 -7 178 -7 m 239 1079 q 115 1109 168 1079 q 35 1197 63 1139 q 29 1219 29 1208 q 40 1247 29 1236 q 68 1257 51 1257 q 107 1235 90 1257 q 243 1160 150 1160 q 388 1235 335 1160 q 431 1258 407 1258 q 456 1249 446 1258 q 467 1225 467 1239 q 458 1197 467 1213 q 367 1109 424 1139 q 239 1079 310 1079 z "},"Î":{"ha":356,"x_min":64,"x_max":410,"o":"m 153 -7 q 113 9 128 -7 q 99 51 97 25 l 168 932 q 185 972 169 957 q 226 986 201 986 q 268 970 253 986 q 282 928 283 954 l 213 47 q 194 8 211 22 q 153 -7 178 -7 m 144 1075 q 106 1054 125 1054 q 76 1066 89 1054 q 64 1093 64 1078 q 76 1121 64 1107 l 199 1257 q 254 1282 222 1282 q 304 1257 286 1282 l 400 1124 q 410 1096 410 1110 q 397 1067 410 1079 q 368 1056 385 1056 q 328 1082 344 1056 l 250 1206 l 144 1075 z "},"Ȉ":{"ha":356,"x_min":26,"x_max":338,"o":"m 153 -7 q 113 9 128 -7 q 99 51 97 25 l 168 932 q 185 972 169 957 q 226 986 201 986 q 268 970 253 986 q 282 928 283 954 l 213 47 q 194 8 211 22 q 153 -7 178 -7 m 33 1214 q 26 1238 26 1225 q 40 1268 26 1256 q 69 1281 53 1281 q 111 1246 100 1281 l 168 1096 q 171 1083 171 1088 q 163 1063 171 1071 q 143 1056 154 1056 q 119 1071 129 1056 l 33 1214 m 200 1214 q 193 1238 193 1225 q 206 1268 193 1256 q 236 1281 219 1281 q 278 1246 267 1281 l 336 1096 q 338 1085 338 1092 q 329 1064 338 1072 q 310 1056 321 1056 q 286 1071 294 1056 l 200 1214 z "},"Ï":{"ha":356,"x_min":57,"x_max":432,"o":"m 153 -7 q 113 9 128 -7 q 99 51 97 25 l 168 932 q 185 972 169 957 q 226 986 201 986 q 268 970 253 986 q 282 928 283 954 l 213 47 q 194 8 211 22 q 153 -7 178 -7 m 125 1103 q 76 1122 96 1103 q 57 1169 57 1140 q 76 1217 57 1199 q 125 1236 96 1236 q 174 1217 154 1236 q 194 1169 194 1199 q 175 1121 194 1139 q 125 1103 156 1103 m 364 1103 q 315 1122 335 1103 q 294 1169 294 1140 q 315 1217 294 1199 q 364 1236 335 1236 q 413 1217 393 1236 q 432 1169 432 1199 q 413 1122 432 1140 q 364 1103 393 1103 z "},"Ḯ":{"ha":356,"x_min":57,"x_max":446,"o":"m 153 -7 q 113 9 128 -7 q 99 51 97 25 l 168 932 q 185 972 169 957 q 226 986 201 986 q 268 970 253 986 q 282 928 283 954 l 213 47 q 194 8 211 22 q 153 -7 178 -7 m 125 1103 q 76 1122 96 1103 q 57 1169 57 1140 q 76 1217 57 1199 q 125 1236 96 1236 q 174 1217 154 1236 q 194 1169 194 1199 q 175 1121 194 1139 q 125 1103 156 1103 m 364 1103 q 315 1122 335 1103 q 294 1169 294 1140 q 315 1217 294 1199 q 364 1236 335 1236 q 413 1217 393 1236 q 432 1169 432 1199 q 413 1122 432 1140 q 364 1103 393 1103 m 297 1293 q 265 1278 279 1278 q 246 1286 254 1278 q 238 1306 238 1294 q 246 1329 238 1317 l 353 1478 q 400 1506 372 1506 q 433 1493 419 1506 q 446 1463 446 1481 q 426 1422 446 1442 l 297 1293 z "},"İ":{"ha":356,"x_min":99,"x_max":319,"o":"m 153 -7 q 113 9 128 -7 q 99 51 97 25 l 168 932 q 185 972 169 957 q 226 986 201 986 q 268 970 253 986 q 282 928 283 954 l 213 47 q 194 8 211 22 q 153 -7 178 -7 m 244 1099 q 190 1118 211 1099 q 169 1169 169 1138 q 190 1220 169 1201 q 244 1239 211 1239 q 299 1220 278 1239 q 319 1169 319 1201 q 299 1118 319 1138 q 244 1099 278 1099 z "},"Ị":{"ha":356,"x_min":65,"x_max":282,"o":"m 153 -7 q 113 9 128 -7 q 99 51 97 25 l 168 932 q 185 972 169 957 q 226 986 201 986 q 268 970 253 986 q 282 928 283 954 l 213 47 q 194 8 211 22 q 153 -7 178 -7 m 136 -260 q 85 -241 104 -260 q 65 -192 65 -222 q 85 -142 65 -161 q 136 -124 104 -124 q 187 -142 167 -124 q 207 -192 207 -161 q 188 -241 207 -222 q 136 -260 168 -260 z "},"Ì":{"ha":356,"x_min":68,"x_max":282,"o":"m 153 -7 q 113 9 128 -7 q 99 51 97 25 l 168 932 q 185 972 169 957 q 226 986 201 986 q 268 970 253 986 q 282 928 283 954 l 213 47 q 194 8 211 22 q 153 -7 178 -7 m 82 1208 q 68 1242 68 1224 q 82 1272 68 1260 q 114 1285 96 1285 q 158 1256 143 1285 l 249 1103 q 254 1085 254 1093 q 244 1064 254 1072 q 222 1056 235 1056 q 192 1071 203 1056 l 82 1208 z "},"Ỉ":{"ha":356,"x_min":99,"x_max":390,"o":"m 153 -7 q 113 9 128 -7 q 99 51 97 25 l 168 932 q 185 972 169 957 q 226 986 201 986 q 268 970 253 986 q 282 928 283 954 l 213 47 q 194 8 211 22 q 153 -7 178 -7 m 276 1081 q 263 1062 274 1068 q 239 1056 253 1056 q 213 1065 224 1056 q 203 1092 201 1074 q 219 1126 204 1114 q 263 1154 233 1139 q 292 1171 282 1163 q 301 1189 301 1179 q 249 1213 301 1213 q 175 1201 213 1213 q 164 1200 171 1200 q 144 1208 151 1200 q 136 1228 136 1217 q 163 1263 136 1253 q 260 1279 201 1279 q 356 1257 321 1279 q 390 1197 390 1235 q 373 1152 390 1168 q 324 1121 356 1136 q 290 1101 301 1110 q 276 1081 279 1093 z "},"Ȋ":{"ha":356,"x_min":19,"x_max":457,"o":"m 153 -7 q 113 9 128 -7 q 99 51 97 25 l 168 932 q 185 972 169 957 q 226 986 201 986 q 268 970 253 986 q 282 928 283 954 l 213 47 q 194 8 211 22 q 153 -7 178 -7 m 247 1258 q 372 1228 319 1258 q 451 1139 425 1197 q 457 1115 457 1128 q 447 1089 457 1099 q 421 1079 436 1079 q 381 1103 396 1079 q 324 1160 357 1142 q 244 1178 290 1178 q 100 1103 157 1178 q 56 1079 81 1079 q 30 1088 40 1079 q 19 1111 19 1097 q 29 1139 19 1125 q 121 1228 64 1197 q 247 1258 178 1258 z "},"Ī":{"ha":356,"x_min":26,"x_max":463,"o":"m 153 -7 q 113 9 128 -7 q 99 51 97 25 l 168 932 q 185 972 169 957 q 226 986 201 986 q 268 970 253 986 q 282 928 283 954 l 213 47 q 194 8 211 22 q 153 -7 178 -7 m 72 1126 q 38 1138 50 1126 q 26 1168 26 1149 q 41 1200 26 1189 q 79 1211 56 1211 l 417 1211 q 451 1200 439 1211 q 463 1169 463 1189 q 448 1138 463 1149 q 410 1126 433 1126 l 72 1126 z "},"Į":{"ha":356,"x_min":-24,"x_max":283,"o":"m 168 -3 q 93 -40 119 -11 q 67 -112 67 -68 q 88 -174 67 -153 q 149 -194 110 -194 q 217 -178 179 -194 q 235 -174 228 -174 q 252 -181 246 -174 q 258 -201 258 -189 q 252 -224 258 -212 q 235 -242 246 -235 q 132 -268 189 -268 q 19 -230 61 -268 q -24 -129 -24 -192 q 8 -24 -24 -68 q 99 39 40 19 q 99 54 96 46 l 168 932 q 185 972 169 957 q 226 986 201 986 q 268 970 253 986 q 282 928 283 954 l 213 47 q 199 14 211 28 q 168 -3 186 0 z "},"Ĩ":{"ha":356,"x_min":22,"x_max":467,"o":"m 153 -7 q 113 9 128 -7 q 99 51 97 25 l 168 932 q 185 972 169 957 q 226 986 201 986 q 268 970 253 986 q 282 928 283 954 l 213 47 q 194 8 211 22 q 153 -7 178 -7 m 336 1094 q 289 1103 313 1094 q 229 1129 265 1111 q 147 1158 174 1158 q 110 1149 124 1158 q 81 1121 96 1139 q 65 1104 72 1110 q 49 1099 58 1099 q 29 1108 36 1099 q 22 1132 22 1117 q 39 1183 22 1157 q 85 1227 56 1210 q 153 1244 115 1244 q 200 1236 176 1244 q 260 1210 224 1228 q 342 1181 315 1181 q 379 1190 365 1181 q 408 1218 393 1200 q 439 1240 424 1240 q 460 1231 453 1240 q 467 1207 467 1222 q 450 1156 467 1182 q 403 1112 433 1129 q 336 1094 374 1094 z "},"J":{"ha":453,"x_min":-39,"x_max":381,"o":"m 21 -7 q -24 5 -10 -8 q -37 42 -39 18 q -25 74 -37 63 q 11 88 -12 86 l 56 90 q 165 139 125 96 q 211 261 206 182 l 265 929 q 283 971 267 956 q 326 986 300 986 q 367 971 353 986 q 379 929 381 956 l 326 260 q 251 69 317 136 q 65 -4 185 3 l 21 -7 z "},"Ĵ":{"ha":453,"x_min":-37,"x_max":507,"o":"m 21 -7 q -24 5 -10 -8 q -37 42 -39 18 q -25 74 -37 63 q 11 88 -12 86 l 56 90 q 165 139 125 96 q 211 261 206 182 l 265 929 q 283 971 267 956 q 326 986 300 986 q 367 971 353 986 q 379 929 381 956 l 326 260 q 251 69 317 136 q 65 -4 185 3 l 21 -7 m 242 1075 q 203 1054 222 1054 q 174 1066 186 1054 q 161 1093 161 1078 q 174 1121 161 1107 l 296 1257 q 351 1282 319 1282 q 401 1257 383 1282 l 497 1124 q 507 1096 507 1110 q 494 1067 507 1079 q 465 1056 482 1056 q 425 1082 442 1056 l 347 1206 l 242 1075 z "},"K":{"ha":872,"x_min":97,"x_max":854,"o":"m 771 971 q 806 986 789 986 q 840 971 825 986 q 854 936 854 956 q 835 896 854 914 l 360 500 l 797 78 q 811 46 811 64 q 795 10 811 26 q 760 -7 779 -7 q 722 11 739 -7 l 246 467 l 213 47 q 194 8 210 24 q 153 -7 178 -7 q 113 10 128 -7 q 99 51 97 26 l 168 932 q 186 971 169 956 q 226 986 203 986 q 267 969 251 986 q 282 928 283 953 l 250 531 l 771 971 z "},"Ķ":{"ha":872,"x_min":99,"x_max":854,"o":"m 771 971 q 806 986 789 986 q 840 971 825 986 q 854 936 854 956 q 835 896 854 914 l 360 500 l 797 78 q 811 46 811 64 q 795 10 811 26 q 760 -7 779 -7 q 722 11 739 -7 l 246 467 l 213 47 q 194 8 210 24 q 153 -7 178 -7 q 113 10 128 -7 q 99 51 97 26 l 168 932 q 186 971 169 956 q 226 986 203 986 q 267 969 251 986 q 282 928 283 953 l 250 531 l 771 971 m 401 -93 q 457 -114 438 -93 q 476 -174 476 -135 q 458 -261 476 -218 q 406 -340 440 -304 q 371 -357 390 -357 q 349 -349 358 -357 q 340 -331 340 -342 q 351 -306 340 -317 q 397 -222 389 -262 l 396 -222 q 350 -206 368 -222 q 332 -162 332 -190 q 352 -112 332 -132 q 401 -93 372 -93 z "},"L":{"ha":750,"x_min":96,"x_max":714,"o":"m 153 0 q 110 15 125 0 q 99 58 96 31 l 168 932 q 186 972 169 957 q 228 986 203 986 q 269 970 254 986 q 282 928 283 954 l 217 97 l 663 97 q 701 84 688 97 q 714 50 714 71 q 700 13 714 26 q 660 0 686 0 l 153 0 z "},"Ǉ":{"ha":1201,"x_min":96,"x_max":1131,"o":"m 153 0 q 110 15 125 0 q 99 58 96 31 l 168 932 q 186 972 169 957 q 228 986 203 986 q 269 970 254 986 q 282 928 283 954 l 217 97 l 621 97 q 659 84 646 97 q 672 50 672 71 q 658 13 672 26 q 618 0 644 0 l 153 0 m 768 -7 q 724 6 739 -8 q 711 42 708 19 q 724 74 713 63 q 758 88 736 86 l 804 90 q 914 138 875 94 q 960 261 953 182 l 1014 929 q 1033 971 1015 956 q 1075 986 1050 986 q 1116 971 1101 986 q 1128 929 1131 956 l 1075 260 q 1000 69 1065 136 q 815 -4 935 3 l 768 -7 z "},"Ĺ":{"ha":750,"x_min":99,"x_max":714,"o":"m 153 0 q 110 15 125 0 q 99 58 96 31 l 168 932 q 186 972 169 957 q 228 986 203 986 q 269 970 254 986 q 282 928 283 954 l 217 97 l 663 97 q 701 84 688 97 q 714 50 714 71 q 700 13 714 26 q 660 0 686 0 l 153 0 m 279 1071 q 247 1056 261 1056 q 228 1064 236 1056 q 219 1083 219 1072 q 228 1107 219 1094 l 335 1256 q 382 1283 354 1283 q 415 1271 401 1283 q 428 1240 428 1258 q 408 1200 428 1219 l 279 1071 z "},"Ľ":{"ha":750,"x_min":99,"x_max":714,"o":"m 153 0 q 110 15 125 0 q 99 58 96 31 l 168 932 q 186 972 169 957 q 228 986 203 986 q 269 970 254 986 q 282 928 283 954 l 217 97 l 663 97 q 701 84 688 97 q 714 50 714 71 q 700 13 714 26 q 660 0 686 0 l 153 0 m 444 731 q 433 711 442 718 q 413 704 424 704 q 391 713 400 704 q 383 735 382 721 l 399 940 q 414 976 400 963 q 446 989 428 989 q 476 977 464 989 q 489 944 489 965 q 488 931 489 936 l 444 731 z "},"Ļ":{"ha":750,"x_min":99,"x_max":714,"o":"m 153 0 q 110 15 125 0 q 99 58 96 31 l 168 932 q 186 972 169 957 q 228 986 203 986 q 269 970 254 986 q 282 928 283 954 l 217 97 l 663 97 q 701 84 688 97 q 714 50 714 71 q 700 13 714 26 q 660 0 686 0 l 153 0 m 392 -93 q 447 -114 428 -93 q 467 -174 467 -135 q 449 -261 467 -218 q 396 -340 431 -304 q 361 -357 381 -357 q 340 -349 349 -357 q 331 -331 331 -342 q 342 -306 331 -317 q 388 -222 379 -262 l 386 -222 q 340 -206 358 -222 q 322 -162 322 -190 q 342 -112 322 -132 q 392 -93 363 -93 z "},"Ŀ":{"ha":750,"x_min":99,"x_max":714,"o":"m 153 0 q 110 15 125 0 q 99 58 96 31 l 168 932 q 186 972 169 957 q 228 986 203 986 q 269 970 254 986 q 282 928 283 954 l 217 97 l 663 97 q 701 84 688 97 q 714 50 714 71 q 700 13 714 26 q 660 0 686 0 l 153 0 m 499 419 q 444 439 465 419 q 424 490 424 458 q 444 542 424 522 q 499 561 465 561 q 553 542 532 561 q 574 490 574 522 q 553 439 574 458 q 499 419 532 419 z "},"Ḷ":{"ha":750,"x_min":99,"x_max":714,"o":"m 153 0 q 110 15 125 0 q 99 58 96 31 l 168 932 q 186 972 169 957 q 228 986 203 986 q 269 970 254 986 q 282 928 283 954 l 217 97 l 663 97 q 701 84 688 97 q 714 50 714 71 q 700 13 714 26 q 660 0 686 0 l 153 0 m 388 -260 q 336 -241 356 -260 q 317 -192 317 -222 q 336 -142 317 -161 q 388 -124 356 -124 q 438 -142 418 -124 q 458 -192 458 -161 q 439 -241 458 -222 q 388 -260 419 -260 z "},"ǈ":{"ha":1072,"x_min":99,"x_max":1032,"o":"m 153 0 q 110 15 125 0 q 99 58 96 31 l 168 932 q 186 972 169 957 q 228 986 203 986 q 269 970 254 986 q 282 928 283 954 l 217 97 l 663 97 q 701 84 688 97 q 714 50 714 71 q 700 13 714 26 q 660 0 686 0 l 153 0 m 642 -254 q 599 -243 614 -256 q 585 -210 583 -231 q 597 -180 585 -192 q 632 -167 608 -168 l 672 -164 q 784 -119 747 -158 q 828 3 821 -79 l 879 635 q 897 676 881 663 q 938 690 914 690 q 977 676 961 690 q 992 635 993 663 l 942 14 q 866 -180 932 -115 q 671 -251 800 -244 l 642 -254 m 957 836 q 903 856 924 836 q 882 907 882 875 q 903 957 882 938 q 957 976 924 976 q 1011 957 990 976 q 1032 907 1032 938 q 1011 856 1032 875 q 957 836 990 836 z "},"Ḻ":{"ha":750,"x_min":99,"x_max":714,"o":"m 153 0 q 110 15 125 0 q 99 58 96 31 l 168 932 q 186 972 169 957 q 228 986 203 986 q 269 970 254 986 q 282 928 283 954 l 217 97 l 663 97 q 701 84 688 97 q 714 50 714 71 q 700 13 714 26 q 660 0 686 0 l 153 0 m 217 -233 q 182 -222 194 -233 q 169 -193 169 -211 q 184 -162 169 -172 q 222 -151 199 -151 l 560 -151 q 594 -162 582 -151 q 606 -190 606 -172 q 592 -222 606 -211 q 553 -233 578 -233 l 217 -233 z "},"Ł":{"ha":768,"x_min":6,"x_max":732,"o":"m 682 97 q 719 84 706 97 q 732 50 732 71 q 718 13 732 26 q 678 0 704 0 l 171 0 q 129 15 143 0 q 117 58 115 31 l 144 410 l 72 369 q 47 363 58 363 q 18 376 31 363 q 6 407 6 390 q 33 450 6 435 l 153 515 l 186 932 q 204 972 188 957 q 246 986 221 986 q 287 970 272 986 q 300 928 301 954 l 272 581 l 485 697 q 507 704 499 704 q 538 690 525 704 q 550 658 550 676 q 525 619 550 635 l 264 475 l 235 97 l 682 97 z "},"M":{"ha":1168,"x_min":97,"x_max":1096,"o":"m 1046 988 q 1083 974 1069 988 q 1093 936 1096 960 l 1022 44 q 1006 6 1021 19 q 968 -7 990 -7 q 931 8 944 -7 q 918 49 917 24 l 975 756 l 628 183 q 571 147 607 147 q 517 186 533 147 l 260 753 l 204 44 q 187 7 203 21 q 149 -7 171 -7 q 111 8 125 -7 q 99 49 97 24 l 168 929 q 186 970 171 954 q 226 986 201 986 q 281 946 264 986 l 579 272 l 986 951 q 1046 988 1007 988 z "},"Ṃ":{"ha":1168,"x_min":99,"x_max":1093,"o":"m 1046 988 q 1083 974 1069 988 q 1093 936 1096 960 l 1022 44 q 1006 6 1021 19 q 968 -7 990 -7 q 931 8 944 -7 q 918 49 917 24 l 975 756 l 628 183 q 571 147 607 147 q 517 186 533 147 l 260 753 l 204 44 q 187 7 203 21 q 149 -7 171 -7 q 111 8 125 -7 q 99 49 97 24 l 168 929 q 186 970 171 954 q 226 986 201 986 q 281 946 264 986 l 579 272 l 986 951 q 1046 988 1007 988 m 542 -260 q 490 -241 510 -260 q 471 -192 471 -222 q 490 -142 471 -161 q 542 -124 510 -124 q 592 -142 572 -124 q 613 -192 613 -161 q 593 -241 613 -222 q 542 -260 574 -260 z "},"N":{"ha":1026,"x_min":96,"x_max":954,"o":"m 901 986 q 940 970 925 986 q 953 929 954 954 l 883 49 q 867 8 881 22 q 829 -7 854 -7 q 779 19 796 -7 l 264 788 l 204 47 q 188 8 203 22 q 149 -7 172 -7 q 110 9 125 -7 q 97 51 96 25 l 167 929 q 184 971 168 956 q 224 986 200 986 q 272 960 254 986 l 786 194 l 846 932 q 863 972 847 957 q 901 986 878 986 z "},"Ǌ":{"ha":1479,"x_min":97,"x_max":1406,"o":"m 901 986 q 940 970 925 986 q 953 929 954 954 l 883 49 q 867 8 881 22 q 829 -7 854 -7 q 779 19 796 -7 l 264 788 l 204 47 q 188 8 203 22 q 149 -7 172 -7 q 110 9 125 -7 q 97 51 96 25 l 167 929 q 184 971 168 956 q 224 986 200 986 q 272 960 254 986 l 786 194 l 846 932 q 863 972 847 957 q 901 986 878 986 m 1047 -7 q 1002 5 1017 -8 q 989 42 988 18 q 1001 74 989 63 q 1038 88 1014 86 l 1082 90 q 1192 139 1151 96 q 1238 261 1232 182 l 1292 929 q 1310 971 1293 956 q 1353 986 1326 986 q 1393 971 1379 986 q 1406 929 1407 956 l 1353 260 q 1277 69 1343 136 q 1092 -4 1211 3 l 1047 -7 z "},"Ń":{"ha":1026,"x_min":97,"x_max":953,"o":"m 901 986 q 940 970 925 986 q 953 929 954 954 l 883 49 q 867 8 881 22 q 829 -7 854 -7 q 779 19 796 -7 l 264 788 l 204 47 q 188 8 203 22 q 149 -7 172 -7 q 110 9 125 -7 q 97 51 96 25 l 167 929 q 184 971 168 956 q 224 986 200 986 q 272 960 254 986 l 786 194 l 846 932 q 863 972 847 957 q 901 986 878 986 m 614 1071 q 582 1056 596 1056 q 563 1064 571 1056 q 554 1083 554 1072 q 563 1107 554 1094 l 669 1256 q 717 1283 689 1283 q 749 1271 736 1283 q 763 1240 763 1258 q 743 1200 763 1219 l 614 1071 z "},"Ň":{"ha":1026,"x_min":97,"x_max":953,"o":"m 901 986 q 940 970 925 986 q 953 929 954 954 l 883 49 q 867 8 881 22 q 829 -7 854 -7 q 779 19 796 -7 l 264 788 l 204 47 q 188 8 203 22 q 149 -7 172 -7 q 110 9 125 -7 q 97 51 96 25 l 167 929 q 184 971 168 956 q 224 986 200 986 q 272 960 254 986 l 786 194 l 846 932 q 863 972 847 957 q 901 986 878 986 m 678 1261 q 717 1282 694 1282 q 744 1270 732 1282 q 757 1243 757 1258 q 746 1215 757 1228 l 624 1079 q 568 1054 600 1054 q 518 1079 538 1054 l 422 1211 q 411 1240 411 1226 q 424 1269 411 1257 q 453 1281 436 1281 q 494 1254 478 1281 l 572 1129 l 678 1261 z "},"Ņ":{"ha":1026,"x_min":97,"x_max":953,"o":"m 901 986 q 940 970 925 986 q 953 929 954 954 l 883 49 q 867 8 881 22 q 829 -7 854 -7 q 779 19 796 -7 l 264 788 l 204 47 q 188 8 203 22 q 149 -7 172 -7 q 110 9 125 -7 q 97 51 96 25 l 167 929 q 184 971 168 956 q 224 986 200 986 q 272 960 254 986 l 786 194 l 846 932 q 863 972 847 957 q 901 986 878 986 m 476 -93 q 532 -114 513 -93 q 551 -174 551 -135 q 533 -261 551 -218 q 481 -340 515 -304 q 446 -357 465 -357 q 424 -349 433 -357 q 415 -331 415 -342 q 426 -306 415 -317 q 472 -222 464 -262 l 471 -222 q 425 -206 443 -222 q 407 -162 407 -190 q 427 -112 407 -132 q 476 -93 447 -93 z "},"Ṅ":{"ha":1026,"x_min":97,"x_max":953,"o":"m 901 986 q 940 970 925 986 q 953 929 954 954 l 883 49 q 867 8 881 22 q 829 -7 854 -7 q 779 19 796 -7 l 264 788 l 204 47 q 188 8 203 22 q 149 -7 172 -7 q 110 9 125 -7 q 97 51 96 25 l 167 929 q 184 971 168 956 q 224 986 200 986 q 272 960 254 986 l 786 194 l 846 932 q 863 972 847 957 q 901 986 878 986 m 579 1099 q 525 1118 546 1099 q 504 1169 504 1138 q 525 1220 504 1201 q 579 1239 546 1239 q 633 1220 613 1239 q 654 1169 654 1201 q 633 1118 654 1138 q 579 1099 613 1099 z "},"Ṇ":{"ha":1026,"x_min":97,"x_max":953,"o":"m 901 986 q 940 970 925 986 q 953 929 954 954 l 883 49 q 867 8 881 22 q 829 -7 854 -7 q 779 19 796 -7 l 264 788 l 204 47 q 188 8 203 22 q 149 -7 172 -7 q 110 9 125 -7 q 97 51 96 25 l 167 929 q 184 971 168 956 q 224 986 200 986 q 272 960 254 986 l 786 194 l 846 932 q 863 972 847 957 q 901 986 878 986 m 472 -260 q 421 -241 440 -260 q 401 -192 401 -222 q 421 -142 401 -161 q 472 -124 440 -124 q 523 -142 503 -124 q 543 -192 543 -161 q 524 -241 543 -222 q 472 -260 504 -260 z "},"Ŋ":{"ha":1026,"x_min":96,"x_max":954,"o":"m 901 986 q 940 970 925 986 q 953 929 954 954 l 881 11 q 805 -180 871 -112 q 621 -254 739 -247 l 572 -257 q 530 -246 544 -258 q 515 -211 515 -233 q 528 -178 515 -190 q 563 -164 540 -165 l 618 -161 q 725 -113 683 -158 q 772 10 767 -68 l 774 25 l 264 788 l 204 47 q 188 8 203 22 q 149 -7 172 -7 q 110 9 125 -7 q 97 51 96 25 l 167 929 q 184 971 168 956 q 224 986 200 986 q 272 960 254 986 l 786 194 l 846 932 q 863 972 847 957 q 901 986 878 986 z "},"ǋ":{"ha":1349,"x_min":97,"x_max":1308,"o":"m 901 986 q 940 970 925 986 q 953 929 954 954 l 883 49 q 867 8 881 22 q 829 -7 854 -7 q 779 19 796 -7 l 264 788 l 204 47 q 188 8 203 22 q 149 -7 172 -7 q 110 9 125 -7 q 97 51 96 25 l 167 929 q 184 971 168 956 q 224 986 200 986 q 272 960 254 986 l 786 194 l 846 932 q 863 972 847 957 q 901 986 878 986 m 918 -254 q 875 -243 890 -256 q 861 -210 860 -231 q 873 -180 861 -192 q 908 -167 885 -168 l 949 -164 q 1060 -119 1024 -158 q 1104 3 1097 -79 l 1156 635 q 1174 676 1157 663 q 1214 690 1190 690 q 1253 676 1238 690 q 1268 635 1269 663 l 1218 14 q 1142 -180 1208 -115 q 947 -251 1076 -244 l 918 -254 m 1233 836 q 1179 856 1200 836 q 1158 907 1158 875 q 1179 957 1158 938 q 1233 976 1200 976 q 1288 957 1267 976 q 1308 907 1308 938 q 1288 856 1308 875 q 1233 836 1267 836 z "},"Ṉ":{"ha":1026,"x_min":97,"x_max":953,"o":"m 901 986 q 940 970 925 986 q 953 929 954 954 l 883 49 q 867 8 881 22 q 829 -7 854 -7 q 779 19 796 -7 l 264 788 l 204 47 q 188 8 203 22 q 149 -7 172 -7 q 110 9 125 -7 q 97 51 96 25 l 167 929 q 184 971 168 956 q 224 986 200 986 q 272 960 254 986 l 786 194 l 846 932 q 863 972 847 957 q 901 986 878 986 m 301 -233 q 267 -222 279 -233 q 254 -193 254 -211 q 269 -162 254 -172 q 307 -151 283 -151 l 644 -151 q 678 -162 667 -151 q 690 -190 690 -172 q 676 -222 690 -211 q 638 -233 663 -233 l 301 -233 z "},"Ñ":{"ha":1026,"x_min":97,"x_max":953,"o":"m 901 986 q 940 970 925 986 q 953 929 954 954 l 883 49 q 867 8 881 22 q 829 -7 854 -7 q 779 19 796 -7 l 264 788 l 204 47 q 188 8 203 22 q 149 -7 172 -7 q 110 9 125 -7 q 97 51 96 25 l 167 929 q 184 971 168 956 q 224 986 200 986 q 272 960 254 986 l 786 194 l 846 932 q 863 972 847 957 q 901 986 878 986 m 671 1094 q 624 1103 647 1094 q 564 1129 600 1111 q 482 1158 508 1158 q 444 1149 458 1158 q 415 1121 431 1139 q 400 1104 407 1110 q 383 1099 393 1099 q 364 1108 371 1099 q 357 1132 357 1117 q 374 1183 357 1157 q 420 1227 390 1210 q 488 1244 450 1244 q 535 1236 511 1244 q 594 1210 558 1228 q 676 1181 650 1181 q 714 1190 700 1181 q 743 1218 728 1200 q 774 1240 758 1240 q 794 1231 788 1240 q 801 1207 801 1222 q 785 1156 801 1182 q 738 1112 768 1129 q 671 1094 708 1094 z "},"O":{"ha":1061,"x_min":96,"x_max":989,"o":"m 532 -12 q 299 43 397 -12 q 149 203 201 99 q 96 449 96 307 q 152 735 96 613 q 312 925 208 858 q 553 992 415 992 q 785 936 688 992 q 936 776 883 881 q 989 529 989 672 q 933 244 989 367 q 773 54 876 121 q 532 -12 669 -12 m 532 86 q 714 140 638 86 q 831 293 790 193 q 872 531 872 393 q 789 799 872 706 q 553 893 706 893 q 371 840 447 893 q 253 686 294 786 q 213 447 213 586 q 296 180 213 274 q 532 86 379 86 z "},"Ó":{"ha":1061,"x_min":96,"x_max":989,"o":"m 532 -12 q 299 43 397 -12 q 149 203 201 99 q 96 449 96 307 q 152 735 96 613 q 312 925 208 858 q 553 992 415 992 q 785 936 688 992 q 936 776 883 881 q 989 529 989 672 q 933 244 989 367 q 773 54 876 121 q 532 -12 669 -12 m 532 86 q 714 140 638 86 q 831 293 790 193 q 872 531 872 393 q 789 799 872 706 q 553 893 706 893 q 371 840 447 893 q 253 686 294 786 q 213 447 213 586 q 296 180 213 274 q 532 86 379 86 m 632 1071 q 600 1056 614 1056 q 581 1064 589 1056 q 572 1083 572 1072 q 581 1107 572 1094 l 688 1256 q 735 1283 707 1283 q 767 1271 754 1283 q 781 1240 781 1258 q 761 1200 781 1219 l 632 1071 z "},"Ŏ":{"ha":1061,"x_min":96,"x_max":989,"o":"m 532 -12 q 299 43 397 -12 q 149 203 201 99 q 96 449 96 307 q 152 735 96 613 q 312 925 208 858 q 553 992 415 992 q 785 936 688 992 q 936 776 883 881 q 989 529 989 672 q 933 244 989 367 q 773 54 876 121 q 532 -12 669 -12 m 532 86 q 714 140 638 86 q 831 293 790 193 q 872 531 872 393 q 789 799 872 706 q 553 893 706 893 q 371 840 447 893 q 253 686 294 786 q 213 447 213 586 q 296 180 213 274 q 532 86 379 86 m 592 1079 q 468 1109 521 1079 q 388 1197 415 1139 q 382 1219 382 1208 q 393 1247 382 1236 q 421 1257 404 1257 q 460 1235 443 1257 q 596 1160 503 1160 q 740 1235 688 1160 q 783 1258 760 1258 q 809 1249 799 1258 q 819 1225 819 1239 q 811 1197 819 1213 q 719 1109 776 1139 q 592 1079 663 1079 z "},"Ô":{"ha":1061,"x_min":96,"x_max":989,"o":"m 532 -12 q 299 43 397 -12 q 149 203 201 99 q 96 449 96 307 q 152 735 96 613 q 312 925 208 858 q 553 992 415 992 q 785 936 688 992 q 936 776 883 881 q 989 529 989 672 q 933 244 989 367 q 773 54 876 121 q 532 -12 669 -12 m 532 86 q 714 140 638 86 q 831 293 790 193 q 872 531 872 393 q 789 799 872 706 q 553 893 706 893 q 371 840 447 893 q 253 686 294 786 q 213 447 213 586 q 296 180 213 274 q 532 86 379 86 m 497 1075 q 458 1054 478 1054 q 429 1066 442 1054 q 417 1093 417 1078 q 429 1121 417 1107 l 551 1257 q 607 1282 575 1282 q 657 1257 639 1282 l 753 1124 q 763 1096 763 1110 q 750 1067 763 1079 q 721 1056 738 1056 q 681 1082 697 1056 l 603 1206 l 497 1075 z "},"Ố":{"ha":1061,"x_min":96,"x_max":989,"o":"m 532 -12 q 299 43 397 -12 q 149 203 201 99 q 96 449 96 307 q 152 735 96 613 q 312 925 208 858 q 553 992 415 992 q 785 936 688 992 q 936 776 883 881 q 989 529 989 672 q 933 244 989 367 q 773 54 876 121 q 532 -12 669 -12 m 532 86 q 714 140 638 86 q 831 293 790 193 q 872 531 872 393 q 789 799 872 706 q 553 893 706 893 q 371 840 447 893 q 253 686 294 786 q 213 447 213 586 q 296 180 213 274 q 532 86 379 86 m 785 1208 q 761 1199 774 1199 q 742 1207 750 1199 q 733 1226 733 1215 q 742 1246 733 1236 l 844 1388 q 889 1413 861 1413 q 920 1400 907 1413 q 933 1369 933 1388 q 913 1328 933 1347 l 785 1208 m 494 1071 q 461 1054 479 1054 q 433 1067 446 1054 q 421 1094 421 1079 q 433 1122 421 1110 l 553 1251 q 607 1276 575 1276 q 656 1251 636 1276 l 751 1122 q 763 1093 763 1107 q 750 1067 763 1078 q 722 1056 738 1056 q 683 1078 699 1056 l 601 1200 l 494 1071 z "},"Ộ":{"ha":1061,"x_min":96,"x_max":989,"o":"m 532 -12 q 299 43 397 -12 q 149 203 201 99 q 96 449 96 307 q 152 735 96 613 q 312 925 208 858 q 553 992 415 992 q 785 936 688 992 q 936 776 883 881 q 989 529 989 672 q 933 244 989 367 q 773 54 876 121 q 532 -12 669 -12 m 532 86 q 714 140 638 86 q 831 293 790 193 q 872 531 872 393 q 789 799 872 706 q 553 893 706 893 q 371 840 447 893 q 253 686 294 786 q 213 447 213 586 q 296 180 213 274 q 532 86 379 86 m 489 -260 q 438 -241 457 -260 q 418 -192 418 -222 q 438 -142 418 -161 q 489 -124 457 -124 q 540 -142 519 -124 q 560 -192 560 -161 q 540 -241 560 -222 q 489 -260 521 -260 m 497 1075 q 458 1054 478 1054 q 429 1066 442 1054 q 417 1093 417 1078 q 429 1121 417 1107 l 551 1257 q 607 1282 575 1282 q 657 1257 639 1282 l 753 1124 q 763 1096 763 1110 q 750 1067 763 1079 q 721 1056 738 1056 q 681 1082 697 1056 l 603 1206 l 497 1075 z "},"Ồ":{"ha":1061,"x_min":96,"x_max":989,"o":"m 532 -12 q 299 43 397 -12 q 149 203 201 99 q 96 449 96 307 q 152 735 96 613 q 312 925 208 858 q 553 992 415 992 q 785 936 688 992 q 936 776 883 881 q 989 529 989 672 q 933 244 989 367 q 773 54 876 121 q 532 -12 669 -12 m 532 86 q 714 140 638 86 q 831 293 790 193 q 872 531 872 393 q 789 799 872 706 q 553 893 706 893 q 371 840 447 893 q 253 686 294 786 q 213 447 213 586 q 296 180 213 274 q 532 86 379 86 m 817 1229 q 807 1212 815 1218 q 790 1206 799 1206 q 775 1211 782 1206 q 767 1226 768 1217 l 719 1353 q 718 1368 718 1358 q 730 1397 718 1386 q 757 1407 742 1407 q 786 1395 774 1407 q 799 1363 799 1383 l 817 1229 m 494 1071 q 461 1054 479 1054 q 433 1067 446 1054 q 421 1094 421 1079 q 433 1122 421 1110 l 553 1251 q 607 1276 575 1276 q 656 1251 636 1276 l 751 1122 q 763 1093 763 1107 q 750 1067 763 1078 q 722 1056 738 1056 q 683 1078 699 1056 l 601 1200 l 494 1071 z "},"Ổ":{"ha":1061,"x_min":96,"x_max":989,"o":"m 532 -12 q 299 43 397 -12 q 149 203 201 99 q 96 449 96 307 q 152 735 96 613 q 312 925 208 858 q 553 992 415 992 q 785 936 688 992 q 936 776 883 881 q 989 529 989 672 q 933 244 989 367 q 773 54 876 121 q 532 -12 669 -12 m 532 86 q 714 140 638 86 q 831 293 790 193 q 872 531 872 393 q 789 799 872 706 q 553 893 706 893 q 371 840 447 893 q 253 686 294 786 q 213 447 213 586 q 296 180 213 274 q 532 86 379 86 m 790 1224 q 777 1206 788 1213 q 754 1199 767 1199 q 731 1207 740 1199 q 721 1231 721 1215 q 737 1267 721 1254 q 782 1293 753 1281 q 810 1307 800 1300 q 819 1322 819 1314 q 806 1339 819 1333 q 765 1344 792 1344 q 692 1335 740 1344 l 683 1333 q 661 1341 669 1333 q 653 1361 653 1349 q 678 1393 653 1383 q 776 1410 718 1410 q 874 1388 839 1410 q 908 1332 908 1367 q 890 1287 908 1301 q 838 1257 872 1272 q 803 1240 814 1247 q 790 1224 793 1233 m 494 1071 q 461 1054 479 1054 q 433 1067 446 1054 q 421 1094 421 1079 q 433 1122 421 1110 l 553 1251 q 607 1276 575 1276 q 656 1251 636 1276 l 751 1122 q 763 1093 763 1107 q 750 1067 763 1078 q 722 1056 738 1056 q 683 1078 699 1056 l 601 1200 l 494 1071 z "},"Ỗ":{"ha":1061,"x_min":96,"x_max":989,"o":"m 532 -12 q 299 43 397 -12 q 149 203 201 99 q 96 449 96 307 q 152 735 96 613 q 312 925 208 858 q 553 992 415 992 q 785 936 688 992 q 936 776 883 881 q 989 529 989 672 q 933 244 989 367 q 773 54 876 121 q 532 -12 669 -12 m 532 86 q 714 140 638 86 q 831 293 790 193 q 872 531 872 393 q 789 799 872 706 q 553 893 706 893 q 371 840 447 893 q 253 686 294 786 q 213 447 213 586 q 296 180 213 274 q 532 86 379 86 m 417 1292 q 397 1301 404 1292 q 390 1324 390 1310 q 407 1368 390 1344 q 453 1408 424 1392 q 518 1424 483 1424 q 567 1415 542 1424 q 629 1392 592 1407 q 674 1374 651 1382 q 711 1367 696 1367 q 749 1376 735 1367 q 775 1400 763 1385 q 790 1415 782 1408 q 806 1421 797 1421 q 827 1412 819 1421 q 835 1389 835 1403 q 817 1344 835 1368 q 770 1305 800 1321 q 704 1289 740 1289 q 655 1297 681 1289 q 594 1319 629 1304 q 550 1337 572 1329 q 513 1344 528 1344 q 478 1337 490 1344 q 449 1313 465 1329 q 433 1297 439 1301 q 417 1292 426 1292 m 494 1071 q 461 1054 479 1054 q 433 1067 446 1054 q 421 1094 421 1079 q 433 1122 421 1110 l 553 1251 q 607 1276 575 1276 q 656 1251 636 1276 l 751 1122 q 763 1093 763 1107 q 750 1067 763 1078 q 722 1056 738 1056 q 683 1078 699 1056 l 601 1200 l 494 1071 z "},"Ȍ":{"ha":1061,"x_min":96,"x_max":989,"o":"m 532 -12 q 299 43 397 -12 q 149 203 201 99 q 96 449 96 307 q 152 735 96 613 q 312 925 208 858 q 553 992 415 992 q 785 936 688 992 q 936 776 883 881 q 989 529 989 672 q 933 244 989 367 q 773 54 876 121 q 532 -12 669 -12 m 532 86 q 714 140 638 86 q 831 293 790 193 q 872 531 872 393 q 789 799 872 706 q 553 893 706 893 q 371 840 447 893 q 253 686 294 786 q 213 447 213 586 q 296 180 213 274 q 532 86 379 86 m 386 1214 q 379 1238 379 1225 q 392 1268 379 1256 q 422 1281 406 1281 q 464 1246 453 1281 l 521 1096 q 524 1083 524 1088 q 515 1063 524 1071 q 496 1056 507 1056 q 472 1071 482 1056 l 386 1214 m 553 1214 q 546 1238 546 1225 q 559 1268 546 1256 q 589 1281 572 1281 q 631 1246 619 1281 l 689 1096 q 690 1085 690 1092 q 682 1064 690 1072 q 663 1056 674 1056 q 639 1071 647 1056 l 553 1214 z "},"Ö":{"ha":1061,"x_min":96,"x_max":989,"o":"m 532 -12 q 299 43 397 -12 q 149 203 201 99 q 96 449 96 307 q 152 735 96 613 q 312 925 208 858 q 553 992 415 992 q 785 936 688 992 q 936 776 883 881 q 989 529 989 672 q 933 244 989 367 q 773 54 876 121 q 532 -12 669 -12 m 532 86 q 714 140 638 86 q 831 293 790 193 q 872 531 872 393 q 789 799 872 706 q 553 893 706 893 q 371 840 447 893 q 253 686 294 786 q 213 447 213 586 q 296 180 213 274 q 532 86 379 86 m 478 1103 q 429 1122 449 1103 q 410 1169 410 1140 q 429 1217 410 1199 q 478 1236 449 1236 q 527 1217 507 1236 q 547 1169 547 1199 q 528 1121 547 1139 q 478 1103 508 1103 m 717 1103 q 667 1122 688 1103 q 647 1169 647 1140 q 667 1217 647 1199 q 717 1236 688 1236 q 765 1217 746 1236 q 785 1169 785 1199 q 765 1122 785 1140 q 717 1103 746 1103 z "},"Ȫ":{"ha":1061,"x_min":96,"x_max":989,"o":"m 532 -12 q 299 43 397 -12 q 149 203 201 99 q 96 449 96 307 q 152 735 96 613 q 312 925 208 858 q 553 992 415 992 q 785 936 688 992 q 936 776 883 881 q 989 529 989 672 q 933 244 989 367 q 773 54 876 121 q 532 -12 669 -12 m 532 86 q 714 140 638 86 q 831 293 790 193 q 872 531 872 393 q 789 799 872 706 q 553 893 706 893 q 371 840 447 893 q 253 686 294 786 q 213 447 213 586 q 296 180 213 274 q 532 86 379 86 m 478 1103 q 429 1122 449 1103 q 410 1169 410 1140 q 429 1217 410 1199 q 478 1236 449 1236 q 527 1217 507 1236 q 547 1169 547 1199 q 528 1121 547 1139 q 478 1103 508 1103 m 717 1103 q 667 1122 688 1103 q 647 1169 647 1140 q 667 1217 647 1199 q 717 1236 688 1236 q 765 1217 746 1236 q 785 1169 785 1199 q 765 1122 785 1140 q 717 1103 746 1103 m 443 1349 q 409 1360 421 1349 q 397 1390 397 1371 q 412 1422 397 1411 q 450 1433 426 1433 l 788 1433 q 822 1422 810 1433 q 833 1392 833 1411 q 819 1360 833 1371 q 781 1349 804 1349 l 443 1349 z "},"Ȱ":{"ha":1061,"x_min":96,"x_max":989,"o":"m 532 -12 q 299 43 397 -12 q 149 203 201 99 q 96 449 96 307 q 152 735 96 613 q 312 925 208 858 q 553 992 415 992 q 785 936 688 992 q 936 776 883 881 q 989 529 989 672 q 933 244 989 367 q 773 54 876 121 q 532 -12 669 -12 m 532 86 q 714 140 638 86 q 831 293 790 193 q 872 531 872 393 q 789 799 872 706 q 553 893 706 893 q 371 840 447 893 q 253 686 294 786 q 213 447 213 586 q 296 180 213 274 q 532 86 379 86 m 597 1099 q 543 1118 564 1099 q 522 1169 522 1138 q 543 1220 522 1201 q 597 1239 564 1239 q 651 1220 631 1239 q 672 1169 672 1201 q 651 1118 672 1138 q 597 1099 631 1099 m 443 1349 q 409 1360 421 1349 q 397 1390 397 1371 q 412 1422 397 1411 q 450 1433 426 1433 l 788 1433 q 822 1422 810 1433 q 833 1392 833 1411 q 819 1360 833 1371 q 781 1349 804 1349 l 443 1349 z "},"Ọ":{"ha":1061,"x_min":96,"x_max":989,"o":"m 532 -12 q 299 43 397 -12 q 149 203 201 99 q 96 449 96 307 q 152 735 96 613 q 312 925 208 858 q 553 992 415 992 q 785 936 688 992 q 936 776 883 881 q 989 529 989 672 q 933 244 989 367 q 773 54 876 121 q 532 -12 669 -12 m 532 86 q 714 140 638 86 q 831 293 790 193 q 872 531 872 393 q 789 799 872 706 q 553 893 706 893 q 371 840 447 893 q 253 686 294 786 q 213 447 213 586 q 296 180 213 274 q 532 86 379 86 m 489 -260 q 438 -241 457 -260 q 418 -192 418 -222 q 438 -142 418 -161 q 489 -124 457 -124 q 540 -142 519 -124 q 560 -192 560 -161 q 540 -241 560 -222 q 489 -260 521 -260 z "},"Ò":{"ha":1061,"x_min":96,"x_max":989,"o":"m 532 -12 q 299 43 397 -12 q 149 203 201 99 q 96 449 96 307 q 152 735 96 613 q 312 925 208 858 q 553 992 415 992 q 785 936 688 992 q 936 776 883 881 q 989 529 989 672 q 933 244 989 367 q 773 54 876 121 q 532 -12 669 -12 m 532 86 q 714 140 638 86 q 831 293 790 193 q 872 531 872 393 q 789 799 872 706 q 553 893 706 893 q 371 840 447 893 q 253 686 294 786 q 213 447 213 586 q 296 180 213 274 q 532 86 379 86 m 435 1208 q 421 1242 421 1224 q 435 1272 421 1260 q 467 1285 449 1285 q 511 1256 496 1285 l 601 1103 q 607 1085 607 1093 q 597 1064 607 1072 q 575 1056 588 1056 q 544 1071 556 1056 l 435 1208 z "},"Ỏ":{"ha":1061,"x_min":96,"x_max":989,"o":"m 532 -12 q 299 43 397 -12 q 149 203 201 99 q 96 449 96 307 q 152 735 96 613 q 312 925 208 858 q 553 992 415 992 q 785 936 688 992 q 936 776 883 881 q 989 529 989 672 q 933 244 989 367 q 773 54 876 121 q 532 -12 669 -12 m 532 86 q 714 140 638 86 q 831 293 790 193 q 872 531 872 393 q 789 799 872 706 q 553 893 706 893 q 371 840 447 893 q 253 686 294 786 q 213 447 213 586 q 296 180 213 274 q 532 86 379 86 m 629 1081 q 616 1062 626 1068 q 592 1056 606 1056 q 565 1065 576 1056 q 556 1092 554 1074 q 572 1126 557 1114 q 615 1154 586 1139 q 644 1171 635 1163 q 654 1189 654 1179 q 601 1213 654 1213 q 528 1201 565 1213 q 517 1200 524 1200 q 497 1208 504 1200 q 489 1228 489 1217 q 515 1263 489 1253 q 613 1279 554 1279 q 708 1257 674 1279 q 743 1197 743 1235 q 726 1152 743 1168 q 676 1121 708 1136 q 643 1101 654 1110 q 629 1081 632 1093 z "},"Ơ":{"ha":1061,"x_min":96,"x_max":1039,"o":"m 828 910 q 945 759 901 856 q 989 529 989 663 q 933 244 989 367 q 773 54 876 121 q 532 -12 669 -12 q 299 43 397 -12 q 149 203 201 99 q 96 449 96 307 q 153 735 96 613 q 316 925 210 858 q 567 992 422 992 q 665 986 599 992 q 774 979 724 979 q 894 1013 858 979 q 938 1128 929 1046 q 992 1179 944 1179 q 1039 1126 1039 1179 q 983 974 1039 1033 q 828 910 928 915 m 532 86 q 714 140 638 86 q 831 293 790 193 q 872 531 872 393 q 789 799 872 706 q 553 893 706 893 q 371 840 447 893 q 253 686 294 786 q 213 447 213 586 q 296 180 213 274 q 532 86 379 86 z "},"Ớ":{"ha":1061,"x_min":96,"x_max":1039,"o":"m 828 910 q 945 759 901 856 q 989 529 989 663 q 933 244 989 367 q 773 54 876 121 q 532 -12 669 -12 q 299 43 397 -12 q 149 203 201 99 q 96 449 96 307 q 153 735 96 613 q 316 925 210 858 q 567 992 422 992 q 665 986 599 992 q 774 979 724 979 q 894 1013 858 979 q 938 1128 929 1046 q 992 1179 944 1179 q 1039 1126 1039 1179 q 983 974 1039 1033 q 828 910 928 915 m 532 86 q 714 140 638 86 q 831 293 790 193 q 872 531 872 393 q 789 799 872 706 q 553 893 706 893 q 371 840 447 893 q 253 686 294 786 q 213 447 213 586 q 296 180 213 274 q 532 86 379 86 m 632 1071 q 600 1056 614 1056 q 581 1064 589 1056 q 572 1083 572 1072 q 581 1107 572 1094 l 688 1256 q 735 1283 707 1283 q 767 1271 754 1283 q 781 1240 781 1258 q 761 1200 781 1219 l 632 1071 z "},"Ợ":{"ha":1061,"x_min":96,"x_max":1039,"o":"m 828 910 q 945 759 901 856 q 989 529 989 663 q 933 244 989 367 q 773 54 876 121 q 532 -12 669 -12 q 299 43 397 -12 q 149 203 201 99 q 96 449 96 307 q 153 735 96 613 q 316 925 210 858 q 567 992 422 992 q 665 986 599 992 q 774 979 724 979 q 894 1013 858 979 q 938 1128 929 1046 q 992 1179 944 1179 q 1039 1126 1039 1179 q 983 974 1039 1033 q 828 910 928 915 m 532 86 q 714 140 638 86 q 831 293 790 193 q 872 531 872 393 q 789 799 872 706 q 553 893 706 893 q 371 840 447 893 q 253 686 294 786 q 213 447 213 586 q 296 180 213 274 q 532 86 379 86 m 490 -260 q 439 -241 458 -260 q 419 -192 419 -222 q 439 -142 419 -161 q 490 -124 458 -124 q 541 -142 521 -124 q 561 -192 561 -161 q 542 -241 561 -222 q 490 -260 522 -260 z "},"Ờ":{"ha":1061,"x_min":96,"x_max":1039,"o":"m 828 910 q 945 759 901 856 q 989 529 989 663 q 933 244 989 367 q 773 54 876 121 q 532 -12 669 -12 q 299 43 397 -12 q 149 203 201 99 q 96 449 96 307 q 153 735 96 613 q 316 925 210 858 q 567 992 422 992 q 665 986 599 992 q 774 979 724 979 q 894 1013 858 979 q 938 1128 929 1046 q 992 1179 944 1179 q 1039 1126 1039 1179 q 983 974 1039 1033 q 828 910 928 915 m 532 86 q 714 140 638 86 q 831 293 790 193 q 872 531 872 393 q 789 799 872 706 q 553 893 706 893 q 371 840 447 893 q 253 686 294 786 q 213 447 213 586 q 296 180 213 274 q 532 86 379 86 m 435 1208 q 421 1242 421 1224 q 435 1272 421 1260 q 467 1285 449 1285 q 511 1256 496 1285 l 601 1103 q 607 1085 607 1093 q 597 1064 607 1072 q 575 1056 588 1056 q 544 1071 556 1056 l 435 1208 z "},"Ở":{"ha":1061,"x_min":96,"x_max":1039,"o":"m 828 910 q 945 759 901 856 q 989 529 989 663 q 933 244 989 367 q 773 54 876 121 q 532 -12 669 -12 q 299 43 397 -12 q 149 203 201 99 q 96 449 96 307 q 153 735 96 613 q 316 925 210 858 q 567 992 422 992 q 665 986 599 992 q 774 979 724 979 q 894 1013 858 979 q 938 1128 929 1046 q 992 1179 944 1179 q 1039 1126 1039 1179 q 983 974 1039 1033 q 828 910 928 915 m 532 86 q 714 140 638 86 q 831 293 790 193 q 872 531 872 393 q 789 799 872 706 q 553 893 706 893 q 371 840 447 893 q 253 686 294 786 q 213 447 213 586 q 296 180 213 274 q 532 86 379 86 m 629 1081 q 616 1062 626 1068 q 592 1056 606 1056 q 565 1065 576 1056 q 556 1092 554 1074 q 572 1126 557 1114 q 615 1154 586 1139 q 644 1171 635 1163 q 654 1189 654 1179 q 601 1213 654 1213 q 528 1201 565 1213 q 517 1200 524 1200 q 497 1208 504 1200 q 489 1228 489 1217 q 515 1263 489 1253 q 613 1279 554 1279 q 708 1257 674 1279 q 743 1197 743 1235 q 726 1152 743 1168 q 676 1121 708 1136 q 643 1101 654 1110 q 629 1081 632 1093 z "},"Ỡ":{"ha":1061,"x_min":96,"x_max":1039,"o":"m 828 910 q 945 759 901 856 q 989 529 989 663 q 933 244 989 367 q 773 54 876 121 q 532 -12 669 -12 q 299 43 397 -12 q 149 203 201 99 q 96 449 96 307 q 153 735 96 613 q 316 925 210 858 q 567 992 422 992 q 665 986 599 992 q 774 979 724 979 q 894 1013 858 979 q 938 1128 929 1046 q 992 1179 944 1179 q 1039 1126 1039 1179 q 983 974 1039 1033 q 828 910 928 915 m 532 86 q 714 140 638 86 q 831 293 790 193 q 872 531 872 393 q 789 799 872 706 q 553 893 706 893 q 371 840 447 893 q 253 686 294 786 q 213 447 213 586 q 296 180 213 274 q 532 86 379 86 m 689 1094 q 642 1103 665 1094 q 582 1129 618 1111 q 500 1158 526 1158 q 463 1149 476 1158 q 433 1121 449 1139 q 418 1104 425 1110 q 401 1099 411 1099 q 382 1108 389 1099 q 375 1132 375 1117 q 392 1183 375 1157 q 438 1227 408 1210 q 506 1244 468 1244 q 553 1236 529 1244 q 613 1210 576 1228 q 694 1181 668 1181 q 732 1190 718 1181 q 761 1218 746 1200 q 792 1240 776 1240 q 813 1231 806 1240 q 819 1207 819 1222 q 803 1156 819 1182 q 756 1112 786 1129 q 689 1094 726 1094 z "},"Ő":{"ha":1061,"x_min":96,"x_max":989,"o":"m 532 -12 q 299 43 397 -12 q 149 203 201 99 q 96 449 96 307 q 152 735 96 613 q 312 925 208 858 q 553 992 415 992 q 785 936 688 992 q 936 776 883 881 q 989 529 989 672 q 933 244 989 367 q 773 54 876 121 q 532 -12 669 -12 m 532 86 q 714 140 638 86 q 831 293 790 193 q 872 531 872 393 q 789 799 872 706 q 553 893 706 893 q 371 840 447 893 q 253 686 294 786 q 213 447 213 586 q 296 180 213 274 q 532 86 379 86 m 536 1069 q 511 1056 526 1056 q 497 1063 503 1056 q 490 1079 490 1069 q 493 1093 490 1088 l 572 1249 q 617 1281 589 1281 q 645 1269 633 1281 q 657 1242 657 1258 q 644 1210 657 1226 l 536 1069 m 704 1069 q 679 1056 692 1056 q 663 1063 669 1056 q 657 1079 657 1069 q 660 1093 657 1088 l 739 1249 q 783 1281 756 1281 q 812 1269 800 1281 q 824 1242 824 1258 q 811 1210 824 1226 l 704 1069 z "},"Ȏ":{"ha":1061,"x_min":96,"x_max":989,"o":"m 532 -12 q 299 43 397 -12 q 149 203 201 99 q 96 449 96 307 q 152 735 96 613 q 312 925 208 858 q 553 992 415 992 q 785 936 688 992 q 936 776 883 881 q 989 529 989 672 q 933 244 989 367 q 773 54 876 121 q 532 -12 669 -12 m 532 86 q 714 140 638 86 q 831 293 790 193 q 872 531 872 393 q 789 799 872 706 q 553 893 706 893 q 371 840 447 893 q 253 686 294 786 q 213 447 213 586 q 296 180 213 274 q 532 86 379 86 m 600 1258 q 725 1228 672 1258 q 804 1139 778 1197 q 810 1115 810 1128 q 799 1089 810 1099 q 774 1079 789 1079 q 733 1103 749 1079 q 676 1160 710 1142 q 597 1178 643 1178 q 453 1103 510 1178 q 408 1079 433 1079 q 383 1088 393 1079 q 372 1111 372 1097 q 382 1139 372 1125 q 474 1228 417 1197 q 600 1258 531 1258 z "},"Ō":{"ha":1061,"x_min":96,"x_max":989,"o":"m 532 -12 q 299 43 397 -12 q 149 203 201 99 q 96 449 96 307 q 152 735 96 613 q 312 925 208 858 q 553 992 415 992 q 785 936 688 992 q 936 776 883 881 q 989 529 989 672 q 933 244 989 367 q 773 54 876 121 q 532 -12 669 -12 m 532 86 q 714 140 638 86 q 831 293 790 193 q 872 531 872 393 q 789 799 872 706 q 553 893 706 893 q 371 840 447 893 q 253 686 294 786 q 213 447 213 586 q 296 180 213 274 q 532 86 379 86 m 425 1126 q 391 1138 403 1126 q 379 1168 379 1149 q 394 1200 379 1189 q 432 1211 408 1211 l 769 1211 q 803 1200 792 1211 q 815 1169 815 1189 q 801 1138 815 1149 q 763 1126 786 1126 l 425 1126 z "},"Ṓ":{"ha":1061,"x_min":96,"x_max":989,"o":"m 532 -12 q 299 43 397 -12 q 149 203 201 99 q 96 449 96 307 q 152 735 96 613 q 312 925 208 858 q 553 992 415 992 q 785 936 688 992 q 936 776 883 881 q 989 529 989 672 q 933 244 989 367 q 773 54 876 121 q 532 -12 669 -12 m 532 86 q 714 140 638 86 q 831 293 790 193 q 872 531 872 393 q 789 799 872 706 q 553 893 706 893 q 371 840 447 893 q 253 686 294 786 q 213 447 213 586 q 296 180 213 274 q 532 86 379 86 m 425 1126 q 391 1138 403 1126 q 379 1168 379 1149 q 394 1200 379 1189 q 432 1211 408 1211 l 769 1211 q 803 1200 792 1211 q 815 1169 815 1189 q 801 1138 815 1149 q 763 1126 786 1126 l 425 1126 m 650 1293 q 618 1278 632 1278 q 599 1286 607 1278 q 590 1306 590 1294 q 599 1329 590 1317 l 706 1478 q 753 1506 725 1506 q 785 1493 772 1506 q 799 1463 799 1481 q 779 1422 799 1442 l 650 1293 z "},"Ṑ":{"ha":1061,"x_min":96,"x_max":989,"o":"m 532 -12 q 299 43 397 -12 q 149 203 201 99 q 96 449 96 307 q 152 735 96 613 q 312 925 208 858 q 553 992 415 992 q 785 936 688 992 q 936 776 883 881 q 989 529 989 672 q 933 244 989 367 q 773 54 876 121 q 532 -12 669 -12 m 532 86 q 714 140 638 86 q 831 293 790 193 q 872 531 872 393 q 789 799 872 706 q 553 893 706 893 q 371 840 447 893 q 253 686 294 786 q 213 447 213 586 q 296 180 213 274 q 532 86 379 86 m 425 1126 q 391 1138 403 1126 q 379 1168 379 1149 q 394 1200 379 1189 q 432 1211 408 1211 l 769 1211 q 803 1200 792 1211 q 815 1169 815 1189 q 801 1138 815 1149 q 763 1126 786 1126 l 425 1126 m 453 1431 q 439 1464 439 1446 q 453 1494 439 1482 q 485 1507 467 1507 q 529 1478 514 1507 l 619 1325 q 625 1307 625 1315 q 615 1286 625 1294 q 593 1278 606 1278 q 563 1293 574 1278 l 453 1431 z "},"Ǫ":{"ha":1061,"x_min":96,"x_max":989,"o":"m 640 0 q 556 -41 583 -12 q 528 -112 528 -69 q 549 -174 528 -153 q 610 -194 571 -194 q 676 -178 638 -194 q 693 -174 688 -174 q 712 -181 706 -174 q 718 -201 718 -189 q 712 -224 718 -212 q 694 -242 706 -235 q 594 -268 646 -268 q 480 -229 522 -268 q 438 -128 438 -190 q 489 -10 438 -58 q 280 54 368 -3 q 144 213 192 111 q 96 449 96 314 q 152 735 96 613 q 312 925 208 858 q 553 992 415 992 q 786 936 688 992 q 937 776 885 881 q 989 529 989 672 q 893 173 989 310 q 640 0 797 36 m 213 447 q 296 180 213 274 q 532 86 379 86 q 714 140 638 86 q 831 293 790 193 q 872 531 872 393 q 789 799 872 706 q 553 893 706 893 q 371 840 447 893 q 253 686 294 786 q 213 447 213 586 z "},"Ø":{"ha":1061,"x_min":96,"x_max":989,"o":"m 858 882 q 989 529 989 758 q 933 244 989 367 q 773 54 876 121 q 532 -12 669 -12 q 301 42 401 -12 l 251 -32 q 210 -56 236 -56 q 178 -43 192 -56 q 165 -12 165 -31 q 175 17 165 1 l 228 96 q 130 245 164 156 q 96 449 96 335 q 152 735 96 613 q 312 925 208 858 q 553 992 415 992 q 785 936 686 992 l 835 1011 q 876 1036 850 1036 q 908 1023 894 1036 q 922 992 922 1010 q 913 963 922 976 l 858 882 m 213 447 q 289 188 213 281 l 728 850 q 553 893 654 893 q 371 840 447 893 q 253 686 294 786 q 213 447 213 586 m 532 86 q 714 140 638 86 q 831 293 790 193 q 872 531 872 393 q 797 789 872 694 l 358 128 q 532 86 429 86 z "},"Ǿ":{"ha":1061,"x_min":96,"x_max":989,"o":"m 858 882 q 989 529 989 758 q 933 244 989 367 q 773 54 876 121 q 532 -12 669 -12 q 301 42 401 -12 l 251 -32 q 210 -56 236 -56 q 178 -43 192 -56 q 165 -12 165 -31 q 175 17 165 1 l 228 96 q 130 245 164 156 q 96 449 96 335 q 152 735 96 613 q 312 925 208 858 q 553 992 415 992 q 785 936 686 992 l 835 1011 q 876 1036 850 1036 q 908 1023 894 1036 q 922 992 922 1010 q 913 963 922 976 l 858 882 m 213 447 q 289 188 213 281 l 728 850 q 553 893 654 893 q 371 840 447 893 q 253 686 294 786 q 213 447 213 586 m 532 86 q 714 140 638 86 q 831 293 790 193 q 872 531 872 393 q 797 789 872 694 l 358 128 q 532 86 429 86 m 632 1071 q 600 1056 614 1056 q 581 1064 589 1056 q 572 1083 572 1072 q 581 1107 572 1094 l 688 1256 q 735 1283 707 1283 q 767 1271 754 1283 q 781 1240 781 1258 q 761 1200 781 1219 l 632 1071 z "},"Õ":{"ha":1061,"x_min":96,"x_max":989,"o":"m 532 -12 q 299 43 397 -12 q 149 203 201 99 q 96 449 96 307 q 152 735 96 613 q 312 925 208 858 q 553 992 415 992 q 785 936 688 992 q 936 776 883 881 q 989 529 989 672 q 933 244 989 367 q 773 54 876 121 q 532 -12 669 -12 m 532 86 q 714 140 638 86 q 831 293 790 193 q 872 531 872 393 q 789 799 872 706 q 553 893 706 893 q 371 840 447 893 q 253 686 294 786 q 213 447 213 586 q 296 180 213 274 q 532 86 379 86 m 689 1094 q 642 1103 665 1094 q 582 1129 618 1111 q 500 1158 526 1158 q 463 1149 476 1158 q 433 1121 449 1139 q 418 1104 425 1110 q 401 1099 411 1099 q 382 1108 389 1099 q 375 1132 375 1117 q 392 1183 375 1157 q 438 1227 408 1210 q 506 1244 468 1244 q 553 1236 529 1244 q 613 1210 576 1228 q 694 1181 668 1181 q 732 1190 718 1181 q 761 1218 746 1200 q 792 1240 776 1240 q 813 1231 806 1240 q 819 1207 819 1222 q 803 1156 819 1182 q 756 1112 786 1129 q 689 1094 726 1094 z "},"Ṍ":{"ha":1061,"x_min":96,"x_max":989,"o":"m 532 -12 q 299 43 397 -12 q 149 203 201 99 q 96 449 96 307 q 152 735 96 613 q 312 925 208 858 q 553 992 415 992 q 785 936 688 992 q 936 776 883 881 q 989 529 989 672 q 933 244 989 367 q 773 54 876 121 q 532 -12 669 -12 m 532 86 q 714 140 638 86 q 831 293 790 193 q 872 531 872 393 q 789 799 872 706 q 553 893 706 893 q 371 840 447 893 q 253 686 294 786 q 213 447 213 586 q 296 180 213 274 q 532 86 379 86 m 689 1094 q 642 1103 665 1094 q 582 1129 618 1111 q 500 1158 526 1158 q 463 1149 476 1158 q 433 1121 449 1139 q 418 1104 425 1110 q 401 1099 411 1099 q 382 1108 389 1099 q 375 1132 375 1117 q 392 1183 375 1157 q 438 1227 408 1210 q 506 1244 468 1244 q 553 1236 529 1244 q 613 1210 576 1228 q 694 1181 668 1181 q 732 1190 718 1181 q 761 1218 746 1200 q 792 1240 776 1240 q 813 1231 806 1240 q 819 1207 819 1222 q 803 1156 819 1182 q 756 1112 786 1129 q 689 1094 726 1094 m 650 1293 q 618 1278 632 1278 q 599 1286 607 1278 q 590 1306 590 1294 q 599 1329 590 1317 l 706 1478 q 753 1506 725 1506 q 785 1493 772 1506 q 799 1463 799 1481 q 779 1422 799 1442 l 650 1293 z "},"Ṏ":{"ha":1061,"x_min":96,"x_max":989,"o":"m 532 -12 q 299 43 397 -12 q 149 203 201 99 q 96 449 96 307 q 152 735 96 613 q 312 925 208 858 q 553 992 415 992 q 785 936 688 992 q 936 776 883 881 q 989 529 989 672 q 933 244 989 367 q 773 54 876 121 q 532 -12 669 -12 m 532 86 q 714 140 638 86 q 831 293 790 193 q 872 531 872 393 q 789 799 872 706 q 553 893 706 893 q 371 840 447 893 q 253 686 294 786 q 213 447 213 586 q 296 180 213 274 q 532 86 379 86 m 689 1094 q 642 1103 665 1094 q 582 1129 618 1111 q 500 1158 526 1158 q 463 1149 476 1158 q 433 1121 449 1139 q 418 1104 425 1110 q 401 1099 411 1099 q 382 1108 389 1099 q 375 1132 375 1117 q 392 1183 375 1157 q 438 1227 408 1210 q 506 1244 468 1244 q 553 1236 529 1244 q 613 1210 576 1228 q 694 1181 668 1181 q 732 1190 718 1181 q 761 1218 746 1200 q 792 1240 776 1240 q 813 1231 806 1240 q 819 1207 819 1222 q 803 1156 819 1182 q 756 1112 786 1129 q 689 1094 726 1094 m 496 1325 q 447 1344 467 1325 q 428 1392 428 1363 q 447 1440 428 1421 q 496 1458 467 1458 q 545 1440 525 1458 q 565 1392 565 1421 q 546 1343 565 1361 q 496 1325 526 1325 m 735 1325 q 685 1344 706 1325 q 665 1392 665 1363 q 685 1440 665 1421 q 735 1458 706 1458 q 783 1440 764 1458 q 803 1392 803 1421 q 783 1344 803 1363 q 735 1325 764 1325 z "},"Ȭ":{"ha":1061,"x_min":96,"x_max":989,"o":"m 532 -12 q 299 43 397 -12 q 149 203 201 99 q 96 449 96 307 q 152 735 96 613 q 312 925 208 858 q 553 992 415 992 q 785 936 688 992 q 936 776 883 881 q 989 529 989 672 q 933 244 989 367 q 773 54 876 121 q 532 -12 669 -12 m 532 86 q 714 140 638 86 q 831 293 790 193 q 872 531 872 393 q 789 799 872 706 q 553 893 706 893 q 371 840 447 893 q 253 686 294 786 q 213 447 213 586 q 296 180 213 274 q 532 86 379 86 m 689 1094 q 642 1103 665 1094 q 582 1129 618 1111 q 500 1158 526 1158 q 463 1149 476 1158 q 433 1121 449 1139 q 418 1104 425 1110 q 401 1099 411 1099 q 382 1108 389 1099 q 375 1132 375 1117 q 392 1183 375 1157 q 438 1227 408 1210 q 506 1244 468 1244 q 553 1236 529 1244 q 613 1210 576 1228 q 694 1181 668 1181 q 732 1190 718 1181 q 761 1218 746 1200 q 792 1240 776 1240 q 813 1231 806 1240 q 819 1207 819 1222 q 803 1156 819 1182 q 756 1112 786 1129 q 689 1094 726 1094 m 443 1349 q 409 1360 421 1349 q 397 1390 397 1371 q 412 1422 397 1411 q 450 1433 426 1433 l 788 1433 q 822 1422 810 1433 q 833 1392 833 1411 q 819 1360 833 1371 q 781 1349 804 1349 l 443 1349 z "},"Œ":{"ha":1451,"x_min":96,"x_max":1442,"o":"m 1392 979 q 1428 967 1415 979 q 1442 933 1442 954 q 1428 897 1442 910 q 1388 885 1414 885 l 919 885 l 893 544 l 1329 544 q 1367 532 1354 544 q 1381 499 1381 519 q 1366 463 1381 476 q 1326 450 1351 450 l 885 450 l 857 94 l 1322 94 q 1359 82 1346 94 q 1372 49 1372 69 q 1358 13 1372 26 q 1318 0 1343 0 l 556 0 q 215 118 335 0 q 96 450 96 236 q 154 734 96 615 q 325 916 213 853 q 596 979 438 979 l 1392 979 m 807 885 l 601 885 q 311 772 410 885 q 213 449 213 660 q 301 185 213 275 q 564 94 389 94 l 744 94 l 807 885 z "},"P":{"ha":896,"x_min":96,"x_max":863,"o":"m 550 979 q 781 907 700 979 q 863 710 863 835 q 771 480 863 558 q 515 401 679 401 l 239 401 l 211 47 q 193 8 210 22 q 151 -7 176 -7 q 111 9 126 -7 q 97 51 96 25 l 167 924 q 226 979 171 979 l 550 979 m 510 496 q 750 704 750 496 q 540 885 750 885 l 278 885 l 247 496 l 510 496 z "},"Þ":{"ha":896,"x_min":97,"x_max":846,"o":"m 550 764 q 769 700 692 764 q 846 514 846 636 q 762 306 846 381 q 519 232 678 232 l 225 232 l 211 47 q 193 8 210 22 q 153 -7 176 -7 q 113 9 128 -7 q 99 51 97 25 l 168 932 q 185 972 169 957 q 226 986 201 986 q 267 970 251 986 q 281 928 282 954 l 268 764 l 550 764 m 514 325 q 735 508 735 325 q 686 631 735 592 q 540 669 638 669 l 260 669 l 233 325 l 514 325 z "},"Q":{"ha":1061,"x_min":96,"x_max":989,"o":"m 989 529 q 910 200 989 336 q 685 15 832 64 q 731 -18 711 4 q 772 -78 751 -40 l 825 -178 q 833 -207 833 -193 q 816 -242 833 -228 q 776 -256 799 -256 q 747 -247 761 -256 q 724 -224 732 -239 l 651 -90 q 504 -11 613 -14 q 289 49 381 -7 q 147 207 197 104 q 96 449 96 310 q 152 735 96 613 q 312 925 208 858 q 553 992 415 992 q 786 936 688 992 q 937 776 885 881 q 989 529 989 672 m 532 86 q 714 140 638 86 q 831 293 790 193 q 872 531 872 393 q 789 799 872 706 q 553 893 706 893 q 371 840 447 893 q 253 686 294 786 q 213 447 213 586 q 296 180 213 274 q 532 86 379 86 z "},"R":{"ha":953,"x_min":96,"x_max":882,"o":"m 843 68 q 850 43 850 54 q 832 7 850 22 q 792 -8 814 -8 q 763 0 776 -8 q 740 25 749 8 l 588 314 q 519 392 557 371 q 414 414 482 414 l 240 414 l 213 47 q 194 8 211 22 q 151 -7 178 -7 q 110 9 125 -7 q 99 53 96 25 l 167 924 q 185 965 168 950 q 226 979 201 979 l 571 979 q 801 912 721 979 q 882 718 882 844 q 813 515 882 590 q 606 425 743 440 q 660 390 636 414 q 707 321 683 365 l 843 68 m 533 508 q 712 558 653 508 q 771 711 771 608 q 719 842 771 800 q 563 885 667 885 l 276 885 l 247 508 l 533 508 z "},"Ŕ":{"ha":953,"x_min":99,"x_max":882,"o":"m 843 68 q 850 43 850 54 q 832 7 850 22 q 792 -8 814 -8 q 763 0 776 -8 q 740 25 749 8 l 588 314 q 519 392 557 371 q 414 414 482 414 l 240 414 l 213 47 q 194 8 211 22 q 151 -7 178 -7 q 110 9 125 -7 q 99 53 96 25 l 167 924 q 185 965 168 950 q 226 979 201 979 l 571 979 q 801 912 721 979 q 882 718 882 844 q 813 515 882 590 q 606 425 743 440 q 660 390 636 414 q 707 321 683 365 l 843 68 m 533 508 q 712 558 653 508 q 771 711 771 608 q 719 842 771 800 q 563 885 667 885 l 276 885 l 247 508 l 533 508 m 575 1071 q 543 1056 557 1056 q 524 1064 532 1056 q 515 1083 515 1072 q 524 1107 515 1094 l 631 1256 q 678 1283 650 1283 q 710 1271 697 1283 q 724 1240 724 1258 q 704 1200 724 1219 l 575 1071 z "},"Ř":{"ha":953,"x_min":99,"x_max":882,"o":"m 843 68 q 850 43 850 54 q 832 7 850 22 q 792 -8 814 -8 q 763 0 776 -8 q 740 25 749 8 l 588 314 q 519 392 557 371 q 414 414 482 414 l 240 414 l 213 47 q 194 8 211 22 q 151 -7 178 -7 q 110 9 125 -7 q 99 53 96 25 l 167 924 q 185 965 168 950 q 226 979 201 979 l 571 979 q 801 912 721 979 q 882 718 882 844 q 813 515 882 590 q 606 425 743 440 q 660 390 636 414 q 707 321 683 365 l 843 68 m 533 508 q 712 558 653 508 q 771 711 771 608 q 719 842 771 800 q 563 885 667 885 l 276 885 l 247 508 l 533 508 m 639 1261 q 678 1282 656 1282 q 706 1270 693 1282 q 718 1243 718 1258 q 707 1215 718 1228 l 585 1079 q 529 1054 561 1054 q 479 1079 499 1054 l 383 1211 q 372 1240 372 1226 q 385 1269 372 1257 q 414 1281 397 1281 q 456 1254 439 1281 l 533 1129 l 639 1261 z "},"Ŗ":{"ha":953,"x_min":99,"x_max":882,"o":"m 843 68 q 850 43 850 54 q 832 7 850 22 q 792 -8 814 -8 q 763 0 776 -8 q 740 25 749 8 l 588 314 q 519 392 557 371 q 414 414 482 414 l 240 414 l 213 47 q 194 8 211 22 q 151 -7 178 -7 q 110 9 125 -7 q 99 53 96 25 l 167 924 q 185 965 168 950 q 226 979 201 979 l 571 979 q 801 912 721 979 q 882 718 882 844 q 813 515 882 590 q 606 425 743 440 q 660 390 636 414 q 707 321 683 365 l 843 68 m 533 508 q 712 558 653 508 q 771 711 771 608 q 719 842 771 800 q 563 885 667 885 l 276 885 l 247 508 l 533 508 m 436 -93 q 492 -114 472 -93 q 511 -174 511 -135 q 493 -261 511 -218 q 440 -340 475 -304 q 406 -357 425 -357 q 384 -349 393 -357 q 375 -331 375 -342 q 386 -306 375 -317 q 432 -222 424 -262 l 431 -222 q 385 -206 403 -222 q 367 -162 367 -190 q 387 -112 367 -132 q 436 -93 407 -93 z "},"Ȑ":{"ha":953,"x_min":99,"x_max":882,"o":"m 843 68 q 850 43 850 54 q 832 7 850 22 q 792 -8 814 -8 q 763 0 776 -8 q 740 25 749 8 l 588 314 q 519 392 557 371 q 414 414 482 414 l 240 414 l 213 47 q 194 8 211 22 q 151 -7 178 -7 q 110 9 125 -7 q 99 53 96 25 l 167 924 q 185 965 168 950 q 226 979 201 979 l 571 979 q 801 912 721 979 q 882 718 882 844 q 813 515 882 590 q 606 425 743 440 q 660 390 636 414 q 707 321 683 365 l 843 68 m 533 508 q 712 558 653 508 q 771 711 771 608 q 719 842 771 800 q 563 885 667 885 l 276 885 l 247 508 l 533 508 m 329 1214 q 322 1238 322 1225 q 335 1268 322 1256 q 365 1281 349 1281 q 407 1246 396 1281 l 464 1096 q 467 1083 467 1088 q 458 1063 467 1071 q 439 1056 450 1056 q 415 1071 425 1056 l 329 1214 m 496 1214 q 489 1238 489 1225 q 502 1268 489 1256 q 532 1281 515 1281 q 574 1246 563 1281 l 632 1096 q 633 1085 633 1092 q 625 1064 633 1072 q 606 1056 617 1056 q 582 1071 590 1056 l 496 1214 z "},"Ṛ":{"ha":953,"x_min":99,"x_max":882,"o":"m 843 68 q 850 43 850 54 q 832 7 850 22 q 792 -8 814 -8 q 763 0 776 -8 q 740 25 749 8 l 588 314 q 519 392 557 371 q 414 414 482 414 l 240 414 l 213 47 q 194 8 211 22 q 151 -7 178 -7 q 110 9 125 -7 q 99 53 96 25 l 167 924 q 185 965 168 950 q 226 979 201 979 l 571 979 q 801 912 721 979 q 882 718 882 844 q 813 515 882 590 q 606 425 743 440 q 660 390 636 414 q 707 321 683 365 l 843 68 m 533 508 q 712 558 653 508 q 771 711 771 608 q 719 842 771 800 q 563 885 667 885 l 276 885 l 247 508 l 533 508 m 432 -260 q 381 -241 400 -260 q 361 -192 361 -222 q 381 -142 361 -161 q 432 -124 400 -124 q 483 -142 463 -124 q 503 -192 503 -161 q 483 -241 503 -222 q 432 -260 464 -260 z "},"Ȓ":{"ha":953,"x_min":99,"x_max":882,"o":"m 843 68 q 850 43 850 54 q 832 7 850 22 q 792 -8 814 -8 q 763 0 776 -8 q 740 25 749 8 l 588 314 q 519 392 557 371 q 414 414 482 414 l 240 414 l 213 47 q 194 8 211 22 q 151 -7 178 -7 q 110 9 125 -7 q 99 53 96 25 l 167 924 q 185 965 168 950 q 226 979 201 979 l 571 979 q 801 912 721 979 q 882 718 882 844 q 813 515 882 590 q 606 425 743 440 q 660 390 636 414 q 707 321 683 365 l 843 68 m 533 508 q 712 558 653 508 q 771 711 771 608 q 719 842 771 800 q 563 885 667 885 l 276 885 l 247 508 l 533 508 m 543 1258 q 668 1228 615 1258 q 747 1139 721 1197 q 753 1115 753 1128 q 742 1089 753 1099 q 717 1079 732 1079 q 676 1103 692 1079 q 619 1160 653 1142 q 540 1178 586 1178 q 396 1103 453 1178 q 351 1079 376 1079 q 326 1088 336 1079 q 315 1111 315 1097 q 325 1139 315 1125 q 417 1228 360 1197 q 543 1258 474 1258 z "},"Ṟ":{"ha":953,"x_min":99,"x_max":882,"o":"m 843 68 q 850 43 850 54 q 832 7 850 22 q 792 -8 814 -8 q 763 0 776 -8 q 740 25 749 8 l 588 314 q 519 392 557 371 q 414 414 482 414 l 240 414 l 213 47 q 194 8 211 22 q 151 -7 178 -7 q 110 9 125 -7 q 99 53 96 25 l 167 924 q 185 965 168 950 q 226 979 201 979 l 571 979 q 801 912 721 979 q 882 718 882 844 q 813 515 882 590 q 606 425 743 440 q 660 390 636 414 q 707 321 683 365 l 843 68 m 533 508 q 712 558 653 508 q 771 711 771 608 q 719 842 771 800 q 563 885 667 885 l 276 885 l 247 508 l 533 508 m 261 -233 q 226 -222 239 -233 q 214 -193 214 -211 q 228 -162 214 -172 q 267 -151 243 -151 l 604 -151 q 638 -162 626 -151 q 650 -190 650 -172 q 636 -222 650 -211 q 597 -233 622 -233 l 261 -233 z "},"S":{"ha":857,"x_min":44,"x_max":831,"o":"m 422 -11 q 72 96 201 -11 q 44 149 44 118 q 57 183 44 168 q 88 197 69 197 q 117 188 101 197 q 256 110 181 135 q 425 85 331 85 q 608 129 544 85 q 672 254 672 174 q 641 336 672 304 q 563 387 610 368 q 433 429 515 406 q 267 486 331 458 q 158 569 203 514 q 113 713 113 624 q 157 859 113 796 q 284 956 201 922 q 476 990 367 990 q 665 960 578 990 q 811 875 753 929 q 831 833 831 857 q 817 798 831 813 q 785 783 804 783 q 746 799 765 783 q 624 869 694 843 q 475 894 554 894 q 292 848 356 894 q 228 718 228 801 q 261 628 228 663 q 344 573 294 593 q 481 526 393 553 q 642 471 581 497 q 745 394 703 444 q 788 263 788 344 q 690 63 788 136 q 422 -11 592 -11 z "},"Ś":{"ha":857,"x_min":44,"x_max":831,"o":"m 422 -11 q 72 96 201 -11 q 44 149 44 118 q 57 183 44 168 q 88 197 69 197 q 117 188 101 197 q 256 110 181 135 q 425 85 331 85 q 608 129 544 85 q 672 254 672 174 q 641 336 672 304 q 563 387 610 368 q 433 429 515 406 q 267 486 331 458 q 158 569 203 514 q 113 713 113 624 q 157 859 113 796 q 284 956 201 922 q 476 990 367 990 q 665 960 578 990 q 811 875 753 929 q 831 833 831 857 q 817 798 831 813 q 785 783 804 783 q 746 799 765 783 q 624 869 694 843 q 475 894 554 894 q 292 848 356 894 q 228 718 228 801 q 261 628 228 663 q 344 573 294 593 q 481 526 393 553 q 642 471 581 497 q 745 394 703 444 q 788 263 788 344 q 690 63 788 136 q 422 -11 592 -11 m 531 1071 q 499 1056 513 1056 q 479 1064 488 1056 q 471 1083 471 1072 q 479 1107 471 1094 l 586 1256 q 633 1283 606 1283 q 666 1271 653 1283 q 679 1240 679 1258 q 660 1200 679 1219 l 531 1071 z "},"Ṥ":{"ha":857,"x_min":44,"x_max":831,"o":"m 422 -11 q 72 96 201 -11 q 44 149 44 118 q 57 183 44 168 q 88 197 69 197 q 117 188 101 197 q 256 110 181 135 q 425 85 331 85 q 608 129 544 85 q 672 254 672 174 q 641 336 672 304 q 563 387 610 368 q 433 429 515 406 q 267 486 331 458 q 158 569 203 514 q 113 713 113 624 q 157 859 113 796 q 284 956 201 922 q 476 990 367 990 q 665 960 578 990 q 811 875 753 929 q 831 833 831 857 q 817 798 831 813 q 785 783 804 783 q 746 799 765 783 q 624 869 694 843 q 475 894 554 894 q 292 848 356 894 q 228 718 228 801 q 261 628 228 663 q 344 573 294 593 q 481 526 393 553 q 642 471 581 497 q 745 394 703 444 q 788 263 788 344 q 690 63 788 136 q 422 -11 592 -11 m 542 1071 q 510 1056 524 1056 q 490 1064 499 1056 q 482 1083 482 1072 q 490 1107 482 1094 l 597 1256 q 644 1283 617 1283 q 677 1271 664 1283 q 690 1240 690 1258 q 671 1200 690 1219 l 542 1071 m 340 1139 q 286 1158 307 1139 q 265 1210 265 1178 q 286 1260 265 1242 q 340 1279 307 1279 q 394 1260 374 1279 q 415 1210 415 1242 q 394 1158 415 1178 q 340 1139 374 1139 z "},"Š":{"ha":857,"x_min":44,"x_max":831,"o":"m 422 -11 q 72 96 201 -11 q 44 149 44 118 q 57 183 44 168 q 88 197 69 197 q 117 188 101 197 q 256 110 181 135 q 425 85 331 85 q 608 129 544 85 q 672 254 672 174 q 641 336 672 304 q 563 387 610 368 q 433 429 515 406 q 267 486 331 458 q 158 569 203 514 q 113 713 113 624 q 157 859 113 796 q 284 956 201 922 q 476 990 367 990 q 665 960 578 990 q 811 875 753 929 q 831 833 831 857 q 817 798 831 813 q 785 783 804 783 q 746 799 765 783 q 624 869 694 843 q 475 894 554 894 q 292 848 356 894 q 228 718 228 801 q 261 628 228 663 q 344 573 294 593 q 481 526 393 553 q 642 471 581 497 q 745 394 703 444 q 788 263 788 344 q 690 63 788 136 q 422 -11 592 -11 m 594 1261 q 633 1282 611 1282 q 661 1270 649 1282 q 674 1243 674 1258 q 663 1215 674 1228 l 540 1079 q 485 1054 517 1054 q 435 1079 454 1054 l 339 1211 q 328 1240 328 1226 q 340 1269 328 1257 q 369 1281 353 1281 q 411 1254 394 1281 l 489 1129 l 594 1261 z "},"Ṧ":{"ha":857,"x_min":44,"x_max":831,"o":"m 422 -11 q 72 96 201 -11 q 44 149 44 118 q 57 183 44 168 q 88 197 69 197 q 117 188 101 197 q 256 110 181 135 q 425 85 331 85 q 608 129 544 85 q 672 254 672 174 q 641 336 672 304 q 563 387 610 368 q 433 429 515 406 q 267 486 331 458 q 158 569 203 514 q 113 713 113 624 q 157 859 113 796 q 284 956 201 922 q 476 990 367 990 q 665 960 578 990 q 811 875 753 929 q 831 833 831 857 q 817 798 831 813 q 785 783 804 783 q 746 799 765 783 q 624 869 694 843 q 475 894 554 894 q 292 848 356 894 q 228 718 228 801 q 261 628 228 663 q 344 573 294 593 q 481 526 393 553 q 642 471 581 497 q 745 394 703 444 q 788 263 788 344 q 690 63 788 136 q 422 -11 592 -11 m 594 1261 q 633 1282 611 1282 q 661 1270 649 1282 q 674 1243 674 1258 q 663 1215 674 1228 l 540 1079 q 485 1054 517 1054 q 435 1079 454 1054 l 339 1211 q 328 1240 328 1226 q 340 1269 328 1257 q 369 1281 353 1281 q 411 1254 394 1281 l 489 1129 l 594 1261 m 514 1321 q 460 1340 481 1321 q 439 1392 439 1360 q 460 1442 439 1424 q 514 1461 481 1461 q 568 1442 547 1461 q 589 1392 589 1424 q 568 1340 589 1360 q 514 1321 547 1321 z "},"Ş":{"ha":857,"x_min":44,"x_max":831,"o":"m 475 894 q 292 848 356 894 q 228 718 228 801 q 261 628 228 663 q 344 573 294 593 q 481 526 393 553 q 642 471 581 497 q 745 394 703 444 q 788 263 788 344 q 692 65 788 138 q 432 -11 597 -8 l 422 -58 q 451 -57 431 -57 q 525 -82 497 -57 q 553 -150 553 -107 q 508 -236 553 -204 q 389 -268 464 -268 q 289 -251 339 -268 q 265 -221 265 -242 q 278 -194 265 -206 q 310 -189 292 -183 q 389 -201 351 -201 q 469 -153 469 -201 q 457 -125 469 -135 q 422 -115 444 -115 q 384 -122 403 -115 q 360 -128 365 -128 q 341 -119 349 -128 q 335 -101 333 -111 l 354 -8 q 72 96 182 6 q 44 149 44 118 q 57 183 44 168 q 88 197 69 197 q 117 188 101 197 q 256 110 181 135 q 425 85 331 85 q 608 129 544 85 q 672 254 672 174 q 641 336 672 304 q 563 387 610 368 q 433 429 515 406 q 267 486 331 458 q 158 569 203 514 q 113 713 113 624 q 157 859 113 796 q 284 956 201 922 q 476 990 367 990 q 665 960 578 990 q 811 875 753 929 q 831 833 831 857 q 817 798 831 813 q 785 783 804 783 q 746 799 765 783 q 624 869 694 843 q 475 894 554 894 z "},"Ŝ":{"ha":857,"x_min":44,"x_max":831,"o":"m 422 -11 q 72 96 201 -11 q 44 149 44 118 q 57 183 44 168 q 88 197 69 197 q 117 188 101 197 q 256 110 181 135 q 425 85 331 85 q 608 129 544 85 q 672 254 672 174 q 641 336 672 304 q 563 387 610 368 q 433 429 515 406 q 267 486 331 458 q 158 569 203 514 q 113 713 113 624 q 157 859 113 796 q 284 956 201 922 q 476 990 367 990 q 665 960 578 990 q 811 875 753 929 q 831 833 831 857 q 817 798 831 813 q 785 783 804 783 q 746 799 765 783 q 624 869 694 843 q 475 894 554 894 q 292 848 356 894 q 228 718 228 801 q 261 628 228 663 q 344 573 294 593 q 481 526 393 553 q 642 471 581 497 q 745 394 703 444 q 788 263 788 344 q 690 63 788 136 q 422 -11 592 -11 m 396 1075 q 357 1054 376 1054 q 328 1066 340 1054 q 315 1093 315 1078 q 328 1121 315 1107 l 450 1257 q 506 1282 474 1282 q 556 1257 538 1282 l 651 1124 q 661 1096 661 1110 q 649 1067 661 1079 q 619 1056 636 1056 q 579 1082 596 1056 l 501 1206 l 396 1075 z "},"Ș":{"ha":857,"x_min":44,"x_max":831,"o":"m 422 -11 q 72 96 201 -11 q 44 149 44 118 q 57 183 44 168 q 88 197 69 197 q 117 188 101 197 q 256 110 181 135 q 425 85 331 85 q 608 129 544 85 q 672 254 672 174 q 641 336 672 304 q 563 387 610 368 q 433 429 515 406 q 267 486 331 458 q 158 569 203 514 q 113 713 113 624 q 157 859 113 796 q 284 956 201 922 q 476 990 367 990 q 665 960 578 990 q 811 875 753 929 q 831 833 831 857 q 817 798 831 813 q 785 783 804 783 q 746 799 765 783 q 624 869 694 843 q 475 894 554 894 q 292 848 356 894 q 228 718 228 801 q 261 628 228 663 q 344 573 294 593 q 481 526 393 553 q 642 471 581 497 q 745 394 703 444 q 788 263 788 344 q 690 63 788 136 q 422 -11 592 -11 m 396 -93 q 451 -114 432 -93 q 471 -174 471 -135 q 453 -261 471 -218 q 400 -340 435 -304 q 365 -357 385 -357 q 344 -349 353 -357 q 335 -331 335 -342 q 346 -306 335 -317 q 392 -222 383 -262 l 390 -222 q 344 -206 363 -222 q 326 -162 326 -190 q 347 -112 326 -132 q 396 -93 367 -93 z "},"Ṡ":{"ha":857,"x_min":44,"x_max":831,"o":"m 422 -11 q 72 96 201 -11 q 44 149 44 118 q 57 183 44 168 q 88 197 69 197 q 117 188 101 197 q 256 110 181 135 q 425 85 331 85 q 608 129 544 85 q 672 254 672 174 q 641 336 672 304 q 563 387 610 368 q 433 429 515 406 q 267 486 331 458 q 158 569 203 514 q 113 713 113 624 q 157 859 113 796 q 284 956 201 922 q 476 990 367 990 q 665 960 578 990 q 811 875 753 929 q 831 833 831 857 q 817 798 831 813 q 785 783 804 783 q 746 799 765 783 q 624 869 694 843 q 475 894 554 894 q 292 848 356 894 q 228 718 228 801 q 261 628 228 663 q 344 573 294 593 q 481 526 393 553 q 642 471 581 497 q 745 394 703 444 q 788 263 788 344 q 690 63 788 136 q 422 -11 592 -11 m 496 1099 q 442 1118 463 1099 q 421 1169 421 1138 q 442 1220 421 1201 q 496 1239 463 1239 q 550 1220 529 1239 q 571 1169 571 1201 q 550 1118 571 1138 q 496 1099 529 1099 z "},"Ṣ":{"ha":857,"x_min":44,"x_max":831,"o":"m 422 -11 q 72 96 201 -11 q 44 149 44 118 q 57 183 44 168 q 88 197 69 197 q 117 188 101 197 q 256 110 181 135 q 425 85 331 85 q 608 129 544 85 q 672 254 672 174 q 641 336 672 304 q 563 387 610 368 q 433 429 515 406 q 267 486 331 458 q 158 569 203 514 q 113 713 113 624 q 157 859 113 796 q 284 956 201 922 q 476 990 367 990 q 665 960 578 990 q 811 875 753 929 q 831 833 831 857 q 817 798 831 813 q 785 783 804 783 q 746 799 765 783 q 624 869 694 843 q 475 894 554 894 q 292 848 356 894 q 228 718 228 801 q 261 628 228 663 q 344 573 294 593 q 481 526 393 553 q 642 471 581 497 q 745 394 703 444 q 788 263 788 344 q 690 63 788 136 q 422 -11 592 -11 m 392 -260 q 340 -241 360 -260 q 321 -192 321 -222 q 340 -142 321 -161 q 392 -124 360 -124 q 442 -142 422 -124 q 463 -192 463 -161 q 443 -241 463 -222 q 392 -260 424 -260 z "},"Ṩ":{"ha":857,"x_min":44,"x_max":831,"o":"m 422 -11 q 72 96 201 -11 q 44 149 44 118 q 57 183 44 168 q 88 197 69 197 q 117 188 101 197 q 256 110 181 135 q 425 85 331 85 q 608 129 544 85 q 672 254 672 174 q 641 336 672 304 q 563 387 610 368 q 433 429 515 406 q 267 486 331 458 q 158 569 203 514 q 113 713 113 624 q 157 859 113 796 q 284 956 201 922 q 476 990 367 990 q 665 960 578 990 q 811 875 753 929 q 831 833 831 857 q 817 798 831 813 q 785 783 804 783 q 746 799 765 783 q 624 869 694 843 q 475 894 554 894 q 292 848 356 894 q 228 718 228 801 q 261 628 228 663 q 344 573 294 593 q 481 526 393 553 q 642 471 581 497 q 745 394 703 444 q 788 263 788 344 q 690 63 788 136 q 422 -11 592 -11 m 392 -260 q 340 -241 360 -260 q 321 -192 321 -222 q 340 -142 321 -161 q 392 -124 360 -124 q 442 -142 422 -124 q 463 -192 463 -161 q 443 -241 463 -222 q 392 -260 424 -260 m 496 1099 q 442 1118 463 1099 q 421 1169 421 1138 q 442 1220 421 1201 q 496 1239 463 1239 q 550 1220 529 1239 q 571 1169 571 1201 q 550 1118 571 1138 q 496 1099 529 1099 z "},"ẞ":{"ha":956,"x_min":94,"x_max":869,"o":"m 683 510 q 822 431 774 489 q 869 285 869 374 q 829 132 869 199 q 717 28 789 65 q 550 -10 644 -10 q 418 10 479 -10 q 314 68 357 31 q 294 108 294 83 q 308 142 294 128 q 340 157 321 157 q 374 146 357 157 q 544 86 454 86 q 701 138 644 86 q 757 286 757 190 q 703 408 757 368 q 538 449 649 449 l 406 449 q 367 463 381 449 q 354 494 354 476 q 369 529 354 514 q 408 544 383 544 l 508 544 q 669 594 613 544 q 726 736 726 644 q 672 850 726 808 q 526 892 618 892 q 331 829 394 892 q 256 633 267 767 l 210 50 q 191 8 208 24 q 149 -8 174 -8 q 108 8 122 -8 q 96 50 94 24 l 143 642 q 255 901 157 814 q 531 989 353 989 q 756 923 672 989 q 839 743 839 857 q 798 598 839 658 q 683 510 757 538 z "},"Ə":{"ha":1031,"x_min":94,"x_max":958,"o":"m 535 990 q 760 934 664 990 q 907 774 856 878 q 958 529 958 669 q 902 244 958 365 q 741 56 846 122 q 496 -11 636 -11 q 276 44 367 -11 q 140 196 186 99 q 94 418 94 293 q 99 492 94 457 q 115 531 100 517 q 153 544 129 544 l 842 544 q 754 803 839 713 q 517 893 669 893 q 238 797 361 893 q 197 782 217 782 q 172 794 181 782 q 163 824 163 806 q 188 875 163 853 q 340 961 251 932 q 535 990 429 990 m 497 86 q 731 181 642 86 q 838 449 819 276 l 211 449 q 210 411 210 436 q 283 172 210 257 q 497 86 357 86 z "},"T":{"ha":831,"x_min":54,"x_max":871,"o":"m 390 -7 q 350 9 365 -7 q 336 51 335 25 l 401 882 l 104 882 q 67 895 81 882 q 54 929 54 908 q 68 966 54 953 q 108 979 82 979 l 821 979 q 858 967 846 979 q 871 932 871 954 q 817 882 871 882 l 515 882 l 450 47 q 431 8 447 24 q 390 -7 415 -7 z "},"Ŧ":{"ha":831,"x_min":54,"x_max":871,"o":"m 821 979 q 858 967 846 979 q 871 932 871 954 q 817 882 871 882 l 515 882 l 489 543 l 644 543 q 680 531 667 543 q 693 497 693 518 q 679 463 693 475 q 642 450 665 450 l 482 450 l 450 47 q 431 8 447 24 q 390 -7 415 -7 q 350 9 365 -7 q 336 51 335 25 l 368 450 l 210 450 q 174 463 188 450 q 161 496 161 475 q 176 531 161 518 q 214 543 190 543 l 375 543 l 401 882 l 104 882 q 67 895 81 882 q 54 929 54 908 q 68 966 54 953 q 108 979 82 979 l 821 979 z "},"Ť":{"ha":831,"x_min":54,"x_max":871,"o":"m 390 -7 q 350 9 365 -7 q 336 51 335 25 l 401 882 l 104 882 q 67 895 81 882 q 54 929 54 908 q 68 966 54 953 q 108 979 82 979 l 821 979 q 858 967 846 979 q 871 932 871 954 q 817 882 871 882 l 515 882 l 450 47 q 431 8 447 24 q 390 -7 415 -7 m 581 1261 q 619 1282 597 1282 q 647 1270 635 1282 q 660 1243 660 1258 q 649 1215 660 1228 l 526 1079 q 471 1054 503 1054 q 421 1079 440 1054 l 325 1211 q 314 1240 314 1226 q 326 1269 314 1257 q 356 1281 339 1281 q 397 1254 381 1281 l 475 1129 l 581 1261 z "},"Ţ":{"ha":831,"x_min":54,"x_max":871,"o":"m 821 979 q 858 967 846 979 q 871 932 871 954 q 817 882 871 882 l 515 882 l 450 47 q 440 17 449 31 q 415 -3 431 4 l 404 -58 q 433 -57 413 -57 q 507 -82 479 -57 q 535 -150 535 -107 q 490 -236 535 -204 q 371 -268 446 -268 q 271 -251 321 -268 q 247 -221 247 -242 q 260 -194 247 -206 q 292 -189 274 -183 q 371 -201 333 -201 q 451 -153 451 -201 q 439 -125 451 -135 q 404 -115 426 -115 q 366 -122 385 -115 q 342 -128 347 -128 q 323 -119 331 -128 q 317 -101 315 -111 l 342 21 q 336 51 335 36 l 401 882 l 104 882 q 67 895 81 882 q 54 929 54 908 q 68 966 54 953 q 108 979 82 979 l 821 979 z "},"Ț":{"ha":831,"x_min":54,"x_max":871,"o":"m 390 -7 q 350 9 365 -7 q 336 51 335 25 l 401 882 l 104 882 q 67 895 81 882 q 54 929 54 908 q 68 966 54 953 q 108 979 82 979 l 821 979 q 858 967 846 979 q 871 932 871 954 q 817 882 871 882 l 515 882 l 450 47 q 431 8 447 24 q 390 -7 415 -7 m 378 -93 q 433 -114 414 -93 q 453 -174 453 -135 q 435 -261 453 -218 q 382 -340 417 -304 q 347 -357 367 -357 q 326 -349 335 -357 q 317 -331 317 -342 q 328 -306 317 -317 q 374 -222 365 -262 l 372 -222 q 326 -206 344 -222 q 308 -162 308 -190 q 328 -112 308 -132 q 378 -93 349 -93 z "},"Ṭ":{"ha":831,"x_min":54,"x_max":871,"o":"m 390 -7 q 350 9 365 -7 q 336 51 335 25 l 401 882 l 104 882 q 67 895 81 882 q 54 929 54 908 q 68 966 54 953 q 108 979 82 979 l 821 979 q 858 967 846 979 q 871 932 871 954 q 817 882 871 882 l 515 882 l 450 47 q 431 8 447 24 q 390 -7 415 -7 m 374 -260 q 322 -241 342 -260 q 303 -192 303 -222 q 322 -142 303 -161 q 374 -124 342 -124 q 424 -142 404 -124 q 444 -192 444 -161 q 425 -241 444 -222 q 374 -260 406 -260 z "},"Ṯ":{"ha":831,"x_min":54,"x_max":871,"o":"m 390 -7 q 350 9 365 -7 q 336 51 335 25 l 401 882 l 104 882 q 67 895 81 882 q 54 929 54 908 q 68 966 54 953 q 108 979 82 979 l 821 979 q 858 967 846 979 q 871 932 871 954 q 817 882 871 882 l 515 882 l 450 47 q 431 8 447 24 q 390 -7 415 -7 m 203 -233 q 168 -222 181 -233 q 156 -193 156 -211 q 170 -162 156 -172 q 208 -151 185 -151 l 546 -151 q 580 -162 568 -151 q 592 -190 592 -172 q 578 -222 592 -211 q 539 -233 564 -233 l 203 -233 z "},"U":{"ha":1006,"x_min":115,"x_max":940,"o":"m 485 -11 q 208 78 301 -11 q 115 335 115 167 q 117 386 115 368 l 161 932 q 179 971 163 956 q 219 986 196 986 q 260 970 244 986 q 274 928 275 954 l 231 388 q 229 343 229 372 q 293 150 229 214 q 488 86 357 86 q 697 156 624 86 q 781 371 769 225 l 825 932 q 844 971 828 956 q 883 986 860 986 q 924 970 908 986 q 939 928 940 954 l 894 382 q 776 87 879 185 q 485 -11 672 -11 z "},"Ú":{"ha":1006,"x_min":115,"x_max":939,"o":"m 485 -11 q 208 78 301 -11 q 115 335 115 167 q 117 386 115 368 l 161 932 q 179 971 163 956 q 219 986 196 986 q 260 970 244 986 q 274 928 275 954 l 231 388 q 229 343 229 372 q 293 150 229 214 q 488 86 357 86 q 697 156 624 86 q 781 371 769 225 l 825 932 q 844 971 828 956 q 883 986 860 986 q 924 970 908 986 q 939 928 940 954 l 894 382 q 776 87 879 185 q 485 -11 672 -11 m 604 1071 q 572 1056 586 1056 q 553 1064 561 1056 q 544 1083 544 1072 q 553 1107 544 1094 l 660 1256 q 707 1283 679 1283 q 740 1271 726 1283 q 753 1240 753 1258 q 733 1200 753 1219 l 604 1071 z "},"Ŭ":{"ha":1006,"x_min":115,"x_max":939,"o":"m 485 -11 q 208 78 301 -11 q 115 335 115 167 q 117 386 115 368 l 161 932 q 179 971 163 956 q 219 986 196 986 q 260 970 244 986 q 274 928 275 954 l 231 388 q 229 343 229 372 q 293 150 229 214 q 488 86 357 86 q 697 156 624 86 q 781 371 769 225 l 825 932 q 844 971 828 956 q 883 986 860 986 q 924 970 908 986 q 939 928 940 954 l 894 382 q 776 87 879 185 q 485 -11 672 -11 m 564 1079 q 440 1109 493 1079 q 360 1197 388 1139 q 354 1219 354 1208 q 365 1247 354 1236 q 393 1257 376 1257 q 432 1235 415 1257 q 568 1160 475 1160 q 713 1235 660 1160 q 756 1258 732 1258 q 781 1249 771 1258 q 792 1225 792 1239 q 783 1197 792 1213 q 692 1109 749 1139 q 564 1079 635 1079 z "},"Û":{"ha":1006,"x_min":115,"x_max":939,"o":"m 485 -11 q 208 78 301 -11 q 115 335 115 167 q 117 386 115 368 l 161 932 q 179 971 163 956 q 219 986 196 986 q 260 970 244 986 q 274 928 275 954 l 231 388 q 229 343 229 372 q 293 150 229 214 q 488 86 357 86 q 697 156 624 86 q 781 371 769 225 l 825 932 q 844 971 828 956 q 883 986 860 986 q 924 970 908 986 q 939 928 940 954 l 894 382 q 776 87 879 185 q 485 -11 672 -11 m 469 1075 q 431 1054 450 1054 q 401 1066 414 1054 q 389 1093 389 1078 q 401 1121 389 1107 l 524 1257 q 579 1282 547 1282 q 629 1257 611 1282 l 725 1124 q 735 1096 735 1110 q 722 1067 735 1079 q 693 1056 710 1056 q 653 1082 669 1056 l 575 1206 l 469 1075 z "},"Ȕ":{"ha":1006,"x_min":115,"x_max":939,"o":"m 485 -11 q 208 78 301 -11 q 115 335 115 167 q 117 386 115 368 l 161 932 q 179 971 163 956 q 219 986 196 986 q 260 970 244 986 q 274 928 275 954 l 231 388 q 229 343 229 372 q 293 150 229 214 q 488 86 357 86 q 697 156 624 86 q 781 371 769 225 l 825 932 q 844 971 828 956 q 883 986 860 986 q 924 970 908 986 q 939 928 940 954 l 894 382 q 776 87 879 185 q 485 -11 672 -11 m 358 1214 q 351 1238 351 1225 q 365 1268 351 1256 q 394 1281 378 1281 q 436 1246 425 1281 l 493 1096 q 496 1083 496 1088 q 488 1063 496 1071 q 468 1056 479 1056 q 444 1071 454 1056 l 358 1214 m 525 1214 q 518 1238 518 1225 q 531 1268 518 1256 q 561 1281 544 1281 q 603 1246 592 1281 l 661 1096 q 663 1085 663 1092 q 654 1064 663 1072 q 635 1056 646 1056 q 611 1071 619 1056 l 525 1214 z "},"Ü":{"ha":1006,"x_min":115,"x_max":939,"o":"m 485 -11 q 208 78 301 -11 q 115 335 115 167 q 117 386 115 368 l 161 932 q 179 971 163 956 q 219 986 196 986 q 260 970 244 986 q 274 928 275 954 l 231 388 q 229 343 229 372 q 293 150 229 214 q 488 86 357 86 q 697 156 624 86 q 781 371 769 225 l 825 932 q 844 971 828 956 q 883 986 860 986 q 924 970 908 986 q 939 928 940 954 l 894 382 q 776 87 879 185 q 485 -11 672 -11 m 450 1103 q 401 1122 421 1103 q 382 1169 382 1140 q 401 1217 382 1199 q 450 1236 421 1236 q 499 1217 479 1236 q 519 1169 519 1199 q 500 1121 519 1139 q 450 1103 481 1103 m 689 1103 q 640 1122 660 1103 q 619 1169 619 1140 q 640 1217 619 1199 q 689 1236 660 1236 q 738 1217 718 1236 q 757 1169 757 1199 q 738 1122 757 1140 q 689 1103 718 1103 z "},"Ụ":{"ha":1006,"x_min":115,"x_max":939,"o":"m 485 -11 q 208 78 301 -11 q 115 335 115 167 q 117 386 115 368 l 161 932 q 179 971 163 956 q 219 986 196 986 q 260 970 244 986 q 274 928 275 954 l 231 388 q 229 343 229 372 q 293 150 229 214 q 488 86 357 86 q 697 156 624 86 q 781 371 769 225 l 825 932 q 844 971 828 956 q 883 986 860 986 q 924 970 908 986 q 939 928 940 954 l 894 382 q 776 87 879 185 q 485 -11 672 -11 m 461 -260 q 410 -241 429 -260 q 390 -192 390 -222 q 410 -142 390 -161 q 461 -124 429 -124 q 512 -142 492 -124 q 532 -192 532 -161 q 513 -241 532 -222 q 461 -260 493 -260 z "},"Ù":{"ha":1006,"x_min":115,"x_max":939,"o":"m 485 -11 q 208 78 301 -11 q 115 335 115 167 q 117 386 115 368 l 161 932 q 179 971 163 956 q 219 986 196 986 q 260 970 244 986 q 274 928 275 954 l 231 388 q 229 343 229 372 q 293 150 229 214 q 488 86 357 86 q 697 156 624 86 q 781 371 769 225 l 825 932 q 844 971 828 956 q 883 986 860 986 q 924 970 908 986 q 939 928 940 954 l 894 382 q 776 87 879 185 q 485 -11 672 -11 m 407 1208 q 393 1242 393 1224 q 407 1272 393 1260 q 439 1285 421 1285 q 483 1256 468 1285 l 574 1103 q 579 1085 579 1093 q 569 1064 579 1072 q 547 1056 560 1056 q 517 1071 528 1056 l 407 1208 z "},"Ủ":{"ha":1006,"x_min":115,"x_max":939,"o":"m 485 -11 q 208 78 301 -11 q 115 335 115 167 q 117 386 115 368 l 161 932 q 179 971 163 956 q 219 986 196 986 q 260 970 244 986 q 274 928 275 954 l 231 388 q 229 343 229 372 q 293 150 229 214 q 488 86 357 86 q 697 156 624 86 q 781 371 769 225 l 825 932 q 844 971 828 956 q 883 986 860 986 q 924 970 908 986 q 939 928 940 954 l 894 382 q 776 87 879 185 q 485 -11 672 -11 m 601 1081 q 588 1062 599 1068 q 564 1056 578 1056 q 538 1065 549 1056 q 528 1092 526 1074 q 544 1126 529 1114 q 588 1154 558 1139 q 617 1171 607 1163 q 626 1189 626 1179 q 574 1213 626 1213 q 500 1201 538 1213 q 489 1200 496 1200 q 469 1208 476 1200 q 461 1228 461 1217 q 488 1263 461 1253 q 585 1279 526 1279 q 681 1257 646 1279 q 715 1197 715 1235 q 698 1152 715 1168 q 649 1121 681 1136 q 615 1101 626 1110 q 601 1081 604 1093 z "},"Ư":{"ha":1006,"x_min":115,"x_max":1117,"o":"m 1117 1126 q 1069 984 1117 1042 q 938 913 1022 926 l 894 382 q 776 87 879 185 q 485 -11 672 -11 q 208 78 301 -11 q 115 335 115 167 q 117 386 115 368 l 161 932 q 179 971 163 956 q 219 986 196 986 q 260 970 244 986 q 274 928 275 954 l 231 383 q 229 340 229 368 q 488 86 229 86 q 698 156 625 86 q 781 371 771 226 l 824 928 q 886 982 828 981 q 1015 1128 1004 982 q 1069 1179 1022 1179 q 1117 1126 1117 1179 z "},"Ứ":{"ha":1006,"x_min":115,"x_max":1117,"o":"m 1117 1126 q 1069 984 1117 1042 q 938 913 1022 926 l 894 382 q 776 87 879 185 q 485 -11 672 -11 q 208 78 301 -11 q 115 335 115 167 q 117 386 115 368 l 161 932 q 179 971 163 956 q 219 986 196 986 q 260 970 244 986 q 274 928 275 954 l 231 383 q 229 340 229 368 q 488 86 229 86 q 698 156 625 86 q 781 371 771 226 l 824 928 q 886 982 828 981 q 1015 1128 1004 982 q 1069 1179 1022 1179 q 1117 1126 1117 1179 m 604 1071 q 572 1056 586 1056 q 553 1064 561 1056 q 544 1083 544 1072 q 553 1107 544 1094 l 660 1256 q 707 1283 679 1283 q 740 1271 726 1283 q 753 1240 753 1258 q 733 1200 753 1219 l 604 1071 z "},"Ự":{"ha":1006,"x_min":115,"x_max":1117,"o":"m 1117 1126 q 1069 984 1117 1042 q 938 913 1022 926 l 894 382 q 776 87 879 185 q 485 -11 672 -11 q 208 78 301 -11 q 115 335 115 167 q 117 386 115 368 l 161 932 q 179 971 163 956 q 219 986 196 986 q 260 970 244 986 q 274 928 275 954 l 231 383 q 229 340 229 368 q 488 86 229 86 q 698 156 625 86 q 781 371 771 226 l 824 928 q 886 982 828 981 q 1015 1128 1004 982 q 1069 1179 1022 1179 q 1117 1126 1117 1179 m 461 -260 q 410 -241 429 -260 q 390 -192 390 -222 q 410 -142 390 -161 q 461 -124 429 -124 q 512 -142 492 -124 q 532 -192 532 -161 q 513 -241 532 -222 q 461 -260 493 -260 z "},"Ừ":{"ha":1006,"x_min":115,"x_max":1117,"o":"m 1117 1126 q 1069 984 1117 1042 q 938 913 1022 926 l 894 382 q 776 87 879 185 q 485 -11 672 -11 q 208 78 301 -11 q 115 335 115 167 q 117 386 115 368 l 161 932 q 179 971 163 956 q 219 986 196 986 q 260 970 244 986 q 274 928 275 954 l 231 383 q 229 340 229 368 q 488 86 229 86 q 698 156 625 86 q 781 371 771 226 l 824 928 q 886 982 828 981 q 1015 1128 1004 982 q 1069 1179 1022 1179 q 1117 1126 1117 1179 m 407 1208 q 393 1242 393 1224 q 407 1272 393 1260 q 439 1285 421 1285 q 483 1256 468 1285 l 574 1103 q 579 1085 579 1093 q 569 1064 579 1072 q 547 1056 560 1056 q 517 1071 528 1056 l 407 1208 z "},"Ử":{"ha":1006,"x_min":115,"x_max":1117,"o":"m 1117 1126 q 1069 984 1117 1042 q 938 913 1022 926 l 894 382 q 776 87 879 185 q 485 -11 672 -11 q 208 78 301 -11 q 115 335 115 167 q 117 386 115 368 l 161 932 q 179 971 163 956 q 219 986 196 986 q 260 970 244 986 q 274 928 275 954 l 231 383 q 229 340 229 368 q 488 86 229 86 q 698 156 625 86 q 781 371 771 226 l 824 928 q 886 982 828 981 q 1015 1128 1004 982 q 1069 1179 1022 1179 q 1117 1126 1117 1179 m 601 1081 q 588 1062 599 1068 q 564 1056 578 1056 q 538 1065 549 1056 q 528 1092 526 1074 q 544 1126 529 1114 q 588 1154 558 1139 q 617 1171 607 1163 q 626 1189 626 1179 q 574 1213 626 1213 q 500 1201 538 1213 q 489 1200 496 1200 q 469 1208 476 1200 q 461 1228 461 1217 q 488 1263 461 1253 q 585 1279 526 1279 q 681 1257 646 1279 q 715 1197 715 1235 q 698 1152 715 1168 q 649 1121 681 1136 q 615 1101 626 1110 q 601 1081 604 1093 z "},"Ữ":{"ha":1006,"x_min":115,"x_max":1117,"o":"m 1117 1126 q 1069 984 1117 1042 q 938 913 1022 926 l 894 382 q 776 87 879 185 q 485 -11 672 -11 q 208 78 301 -11 q 115 335 115 167 q 117 386 115 368 l 161 932 q 179 971 163 956 q 219 986 196 986 q 260 970 244 986 q 274 928 275 954 l 231 383 q 229 340 229 368 q 488 86 229 86 q 698 156 625 86 q 781 371 771 226 l 824 928 q 886 982 828 981 q 1015 1128 1004 982 q 1069 1179 1022 1179 q 1117 1126 1117 1179 m 661 1094 q 614 1103 638 1094 q 554 1129 590 1111 q 472 1158 499 1158 q 435 1149 449 1158 q 406 1121 421 1139 q 390 1104 397 1110 q 374 1099 383 1099 q 354 1108 361 1099 q 347 1132 347 1117 q 364 1183 347 1157 q 410 1227 381 1210 q 478 1244 440 1244 q 525 1236 501 1244 q 585 1210 549 1228 q 667 1181 640 1181 q 704 1190 690 1181 q 733 1218 718 1200 q 764 1240 749 1240 q 785 1231 778 1240 q 792 1207 792 1222 q 775 1156 792 1182 q 728 1112 758 1129 q 661 1094 699 1094 z "},"Ű":{"ha":1006,"x_min":115,"x_max":939,"o":"m 485 -11 q 208 78 301 -11 q 115 335 115 167 q 117 386 115 368 l 161 932 q 179 971 163 956 q 219 986 196 986 q 260 970 244 986 q 274 928 275 954 l 231 388 q 229 343 229 372 q 293 150 229 214 q 488 86 357 86 q 697 156 624 86 q 781 371 769 225 l 825 932 q 844 971 828 956 q 883 986 860 986 q 924 970 908 986 q 939 928 940 954 l 894 382 q 776 87 879 185 q 485 -11 672 -11 m 508 1069 q 483 1056 499 1056 q 469 1063 475 1056 q 463 1079 463 1069 q 465 1093 463 1088 l 544 1249 q 589 1281 561 1281 q 617 1269 606 1281 q 629 1242 629 1258 q 617 1210 629 1226 l 508 1069 m 676 1069 q 651 1056 664 1056 q 635 1063 642 1056 q 629 1079 629 1069 q 632 1093 629 1088 l 711 1249 q 756 1281 728 1281 q 784 1269 772 1281 q 796 1242 796 1258 q 783 1210 796 1226 l 676 1069 z "},"Ȗ":{"ha":1006,"x_min":115,"x_max":939,"o":"m 485 -11 q 208 78 301 -11 q 115 335 115 167 q 117 386 115 368 l 161 932 q 179 971 163 956 q 219 986 196 986 q 260 970 244 986 q 274 928 275 954 l 231 388 q 229 343 229 372 q 293 150 229 214 q 488 86 357 86 q 697 156 624 86 q 781 371 769 225 l 825 932 q 844 971 828 956 q 883 986 860 986 q 924 970 908 986 q 939 928 940 954 l 894 382 q 776 87 879 185 q 485 -11 672 -11 m 572 1258 q 697 1228 644 1258 q 776 1139 750 1197 q 782 1115 782 1128 q 772 1089 782 1099 q 746 1079 761 1079 q 706 1103 721 1079 q 649 1160 682 1142 q 569 1178 615 1178 q 425 1103 482 1178 q 381 1079 406 1079 q 355 1088 365 1079 q 344 1111 344 1097 q 354 1139 344 1125 q 446 1228 389 1197 q 572 1258 503 1258 z "},"Ū":{"ha":1006,"x_min":115,"x_max":939,"o":"m 485 -11 q 208 78 301 -11 q 115 335 115 167 q 117 386 115 368 l 161 932 q 179 971 163 956 q 219 986 196 986 q 260 970 244 986 q 274 928 275 954 l 231 388 q 229 343 229 372 q 293 150 229 214 q 488 86 357 86 q 697 156 624 86 q 781 371 769 225 l 825 932 q 844 971 828 956 q 883 986 860 986 q 924 970 908 986 q 939 928 940 954 l 894 382 q 776 87 879 185 q 485 -11 672 -11 m 397 1126 q 363 1138 375 1126 q 351 1168 351 1149 q 366 1200 351 1189 q 404 1211 381 1211 l 742 1211 q 776 1200 764 1211 q 788 1169 788 1189 q 773 1138 788 1149 q 735 1126 758 1126 l 397 1126 z "},"Ṻ":{"ha":1006,"x_min":115,"x_max":939,"o":"m 485 -11 q 208 78 301 -11 q 115 335 115 167 q 117 386 115 368 l 161 932 q 179 971 163 956 q 219 986 196 986 q 260 970 244 986 q 274 928 275 954 l 231 388 q 229 343 229 372 q 293 150 229 214 q 488 86 357 86 q 697 156 624 86 q 781 371 769 225 l 825 932 q 844 971 828 956 q 883 986 860 986 q 924 970 908 986 q 939 928 940 954 l 894 382 q 776 87 879 185 q 485 -11 672 -11 m 397 1126 q 363 1138 375 1126 q 351 1168 351 1149 q 366 1200 351 1189 q 404 1211 381 1211 l 742 1211 q 776 1200 764 1211 q 788 1169 788 1189 q 773 1138 788 1149 q 735 1126 758 1126 l 397 1126 m 468 1325 q 419 1344 439 1325 q 400 1392 400 1363 q 419 1440 400 1421 q 468 1458 439 1458 q 517 1440 497 1458 q 538 1392 538 1421 q 518 1343 538 1361 q 468 1325 499 1325 m 707 1325 q 658 1344 678 1325 q 638 1392 638 1363 q 658 1440 638 1421 q 707 1458 678 1458 q 756 1440 736 1458 q 775 1392 775 1421 q 756 1344 775 1363 q 707 1325 736 1325 z "},"Ų":{"ha":1006,"x_min":115,"x_max":940,"o":"m 883 986 q 924 970 908 986 q 939 928 940 954 l 894 382 q 628 6 869 72 q 538 -40 568 -11 q 508 -112 508 -68 q 530 -174 508 -153 q 592 -194 551 -194 q 657 -178 619 -194 q 675 -174 668 -174 q 692 -181 686 -174 q 699 -201 699 -189 q 675 -242 699 -228 q 575 -268 626 -268 q 462 -230 504 -268 q 419 -131 419 -192 q 478 -11 419 -54 q 207 78 299 -10 q 115 335 115 167 q 117 386 115 368 l 161 932 q 179 971 163 956 q 219 986 196 986 q 260 970 244 986 q 274 928 275 954 l 231 388 q 229 343 229 372 q 293 150 229 214 q 488 86 357 86 q 697 156 624 86 q 781 371 769 225 l 825 932 q 844 971 828 956 q 883 986 860 986 z "},"Ů":{"ha":1006,"x_min":115,"x_max":939,"o":"m 485 -11 q 208 78 301 -11 q 115 335 115 167 q 117 386 115 368 l 161 932 q 179 971 163 956 q 219 986 196 986 q 260 970 244 986 q 274 928 275 954 l 231 388 q 229 343 229 372 q 293 150 229 214 q 488 86 357 86 q 697 156 624 86 q 781 371 769 225 l 825 932 q 844 971 828 956 q 883 986 860 986 q 924 970 908 986 q 939 928 940 954 l 894 382 q 776 87 879 185 q 485 -11 672 -11 m 569 1056 q 470 1095 511 1056 q 429 1193 429 1135 q 470 1291 429 1251 q 569 1331 511 1331 q 669 1291 628 1331 q 710 1193 710 1251 q 669 1095 710 1135 q 569 1056 628 1056 m 569 1124 q 617 1144 599 1124 q 636 1193 636 1164 q 617 1242 636 1222 q 569 1263 599 1263 q 522 1242 540 1263 q 503 1193 503 1222 q 522 1144 503 1164 q 569 1124 540 1124 z "},"Ũ":{"ha":1006,"x_min":115,"x_max":939,"o":"m 485 -11 q 208 78 301 -11 q 115 335 115 167 q 117 386 115 368 l 161 932 q 179 971 163 956 q 219 986 196 986 q 260 970 244 986 q 274 928 275 954 l 231 388 q 229 343 229 372 q 293 150 229 214 q 488 86 357 86 q 697 156 624 86 q 781 371 769 225 l 825 932 q 844 971 828 956 q 883 986 860 986 q 924 970 908 986 q 939 928 940 954 l 894 382 q 776 87 879 185 q 485 -11 672 -11 m 661 1094 q 614 1103 638 1094 q 554 1129 590 1111 q 472 1158 499 1158 q 435 1149 449 1158 q 406 1121 421 1139 q 390 1104 397 1110 q 374 1099 383 1099 q 354 1108 361 1099 q 347 1132 347 1117 q 364 1183 347 1157 q 410 1227 381 1210 q 478 1244 440 1244 q 525 1236 501 1244 q 585 1210 549 1228 q 667 1181 640 1181 q 704 1190 690 1181 q 733 1218 718 1200 q 764 1240 749 1240 q 785 1231 778 1240 q 792 1207 792 1222 q 775 1156 792 1182 q 728 1112 758 1129 q 661 1094 699 1094 z "},"Ṹ":{"ha":1006,"x_min":115,"x_max":939,"o":"m 485 -11 q 208 78 301 -11 q 115 335 115 167 q 117 386 115 368 l 161 932 q 179 971 163 956 q 219 986 196 986 q 260 970 244 986 q 274 928 275 954 l 231 388 q 229 343 229 372 q 293 150 229 214 q 488 86 357 86 q 697 156 624 86 q 781 371 769 225 l 825 932 q 844 971 828 956 q 883 986 860 986 q 924 970 908 986 q 939 928 940 954 l 894 382 q 776 87 879 185 q 485 -11 672 -11 m 661 1094 q 614 1103 638 1094 q 554 1129 590 1111 q 472 1158 499 1158 q 435 1149 449 1158 q 406 1121 421 1139 q 390 1104 397 1110 q 374 1099 383 1099 q 354 1108 361 1099 q 347 1132 347 1117 q 364 1183 347 1157 q 410 1227 381 1210 q 478 1244 440 1244 q 525 1236 501 1244 q 585 1210 549 1228 q 667 1181 640 1181 q 704 1190 690 1181 q 733 1218 718 1200 q 764 1240 749 1240 q 785 1231 778 1240 q 792 1207 792 1222 q 775 1156 792 1182 q 728 1112 758 1129 q 661 1094 699 1094 m 622 1293 q 590 1278 604 1278 q 571 1286 579 1278 q 563 1306 563 1294 q 571 1329 563 1317 l 678 1478 q 725 1506 697 1506 q 758 1493 744 1506 q 771 1463 771 1481 q 751 1422 771 1442 l 622 1293 z "},"V":{"ha":960,"x_min":72,"x_max":979,"o":"m 876 957 q 925 986 890 986 q 963 973 946 986 q 979 939 979 960 q 971 911 979 926 l 518 31 q 491 1 508 11 q 454 -8 474 -8 q 416 3 433 -8 q 390 35 399 14 l 76 914 q 72 933 72 925 q 90 972 72 957 q 132 986 108 986 q 181 953 169 986 l 465 143 l 876 957 z "},"W":{"ha":1529,"x_min":110,"x_max":1510,"o":"m 1410 953 q 1431 978 1417 969 q 1461 988 1444 988 q 1495 975 1481 988 q 1510 942 1510 963 q 1504 914 1510 926 l 1126 32 q 1101 2 1118 13 q 1065 -8 1085 -8 q 1030 3 1046 -8 q 1008 36 1014 15 l 801 800 l 471 32 q 446 2 463 13 q 411 -8 429 -8 q 374 3 390 -8 q 353 36 358 15 l 113 915 l 110 932 q 127 972 110 957 q 168 986 144 986 q 200 976 186 986 q 219 947 214 967 l 425 163 l 758 944 q 783 976 768 965 q 815 986 799 986 q 848 975 833 986 q 868 944 863 964 l 1075 160 l 1410 953 z "},"Ẃ":{"ha":1529,"x_min":110,"x_max":1510,"o":"m 1410 953 q 1431 978 1417 969 q 1461 988 1444 988 q 1495 975 1481 988 q 1510 942 1510 963 q 1504 914 1510 926 l 1126 32 q 1101 2 1118 13 q 1065 -8 1085 -8 q 1030 3 1046 -8 q 1008 36 1014 15 l 801 800 l 471 32 q 446 2 463 13 q 411 -8 429 -8 q 374 3 390 -8 q 353 36 358 15 l 113 915 l 110 932 q 127 972 110 957 q 168 986 144 986 q 200 976 186 986 q 219 947 214 967 l 425 163 l 758 944 q 783 976 768 965 q 815 986 799 986 q 848 975 833 986 q 868 944 863 964 l 1075 160 l 1410 953 m 865 1071 q 833 1056 847 1056 q 814 1064 822 1056 q 806 1083 806 1072 q 814 1107 806 1094 l 921 1256 q 968 1283 940 1283 q 1001 1271 988 1283 q 1014 1240 1014 1258 q 994 1200 1014 1219 l 865 1071 z "},"Ŵ":{"ha":1529,"x_min":110,"x_max":1510,"o":"m 1410 953 q 1431 978 1417 969 q 1461 988 1444 988 q 1495 975 1481 988 q 1510 942 1510 963 q 1504 914 1510 926 l 1126 32 q 1101 2 1118 13 q 1065 -8 1085 -8 q 1030 3 1046 -8 q 1008 36 1014 15 l 801 800 l 471 32 q 446 2 463 13 q 411 -8 429 -8 q 374 3 390 -8 q 353 36 358 15 l 113 915 l 110 932 q 127 972 110 957 q 168 986 144 986 q 200 976 186 986 q 219 947 214 967 l 425 163 l 758 944 q 783 976 768 965 q 815 986 799 986 q 848 975 833 986 q 868 944 863 964 l 1075 160 l 1410 953 m 731 1075 q 692 1054 711 1054 q 663 1066 675 1054 q 650 1093 650 1078 q 663 1121 650 1107 l 785 1257 q 840 1282 808 1282 q 890 1257 872 1282 l 986 1124 q 996 1096 996 1110 q 983 1067 996 1079 q 954 1056 971 1056 q 914 1082 931 1056 l 836 1206 l 731 1075 z "},"Ẅ":{"ha":1529,"x_min":110,"x_max":1510,"o":"m 1410 953 q 1431 978 1417 969 q 1461 988 1444 988 q 1495 975 1481 988 q 1510 942 1510 963 q 1504 914 1510 926 l 1126 32 q 1101 2 1118 13 q 1065 -8 1085 -8 q 1030 3 1046 -8 q 1008 36 1014 15 l 801 800 l 471 32 q 446 2 463 13 q 411 -8 429 -8 q 374 3 390 -8 q 353 36 358 15 l 113 915 l 110 932 q 127 972 110 957 q 168 986 144 986 q 200 976 186 986 q 219 947 214 967 l 425 163 l 758 944 q 783 976 768 965 q 815 986 799 986 q 848 975 833 986 q 868 944 863 964 l 1075 160 l 1410 953 m 711 1103 q 663 1122 682 1103 q 643 1169 643 1140 q 663 1217 643 1199 q 711 1236 682 1236 q 760 1217 740 1236 q 781 1169 781 1199 q 761 1121 781 1139 q 711 1103 742 1103 m 950 1103 q 901 1122 921 1103 q 881 1169 881 1140 q 901 1217 881 1199 q 950 1236 921 1236 q 999 1217 979 1236 q 1018 1169 1018 1199 q 999 1122 1018 1140 q 950 1103 979 1103 z "},"Ẁ":{"ha":1529,"x_min":110,"x_max":1510,"o":"m 1410 953 q 1431 978 1417 969 q 1461 988 1444 988 q 1495 975 1481 988 q 1510 942 1510 963 q 1504 914 1510 926 l 1126 32 q 1101 2 1118 13 q 1065 -8 1085 -8 q 1030 3 1046 -8 q 1008 36 1014 15 l 801 800 l 471 32 q 446 2 463 13 q 411 -8 429 -8 q 374 3 390 -8 q 353 36 358 15 l 113 915 l 110 932 q 127 972 110 957 q 168 986 144 986 q 200 976 186 986 q 219 947 214 967 l 425 163 l 758 944 q 783 976 768 965 q 815 986 799 986 q 848 975 833 986 q 868 944 863 964 l 1075 160 l 1410 953 m 668 1208 q 654 1242 654 1224 q 668 1272 654 1260 q 700 1285 682 1285 q 744 1256 729 1285 l 835 1103 q 840 1085 840 1093 q 831 1064 840 1072 q 808 1056 821 1056 q 778 1071 789 1056 l 668 1208 z "},"X":{"ha":897,"x_min":21,"x_max":882,"o":"m 788 967 q 829 988 807 988 q 866 972 850 988 q 882 936 882 957 q 867 899 882 915 l 528 500 l 822 81 q 833 47 833 65 q 816 9 833 25 q 776 -7 799 -7 q 733 15 750 -7 l 457 418 l 114 13 q 72 -8 97 -8 q 36 6 51 -8 q 21 42 21 21 q 38 82 21 61 l 396 503 l 119 899 q 108 931 108 917 q 126 969 108 953 q 167 986 144 986 q 208 964 192 986 l 468 585 l 788 967 z "},"Y":{"ha":835,"x_min":61,"x_max":864,"o":"m 765 960 q 815 986 786 986 q 849 972 835 986 q 864 940 864 958 q 849 901 864 918 l 483 463 l 451 47 q 433 8 450 22 q 393 -7 417 -7 q 352 9 368 -7 q 338 51 336 25 l 369 463 l 72 901 q 61 935 61 917 q 78 971 61 956 q 118 986 96 986 q 160 963 144 986 l 432 558 l 765 960 z "},"Ý":{"ha":835,"x_min":61,"x_max":864,"o":"m 765 960 q 815 986 786 986 q 849 972 835 986 q 864 940 864 958 q 849 901 864 918 l 483 463 l 451 47 q 433 8 450 22 q 393 -7 417 -7 q 352 9 368 -7 q 338 51 336 25 l 369 463 l 72 901 q 61 935 61 917 q 78 971 61 956 q 118 986 96 986 q 160 963 144 986 l 432 558 l 765 960 m 518 1071 q 486 1056 500 1056 q 467 1064 475 1056 q 458 1083 458 1072 q 467 1107 458 1094 l 574 1256 q 621 1283 593 1283 q 653 1271 640 1283 q 667 1240 667 1258 q 647 1200 667 1219 l 518 1071 z "},"Ŷ":{"ha":835,"x_min":61,"x_max":864,"o":"m 765 960 q 815 986 786 986 q 849 972 835 986 q 864 940 864 958 q 849 901 864 918 l 483 463 l 451 47 q 433 8 450 22 q 393 -7 417 -7 q 352 9 368 -7 q 338 51 336 25 l 369 463 l 72 901 q 61 935 61 917 q 78 971 61 956 q 118 986 96 986 q 160 963 144 986 l 432 558 l 765 960 m 383 1075 q 344 1054 364 1054 q 315 1066 328 1054 q 303 1093 303 1078 q 315 1121 303 1107 l 438 1257 q 493 1282 461 1282 q 543 1257 525 1282 l 639 1124 q 649 1096 649 1110 q 636 1067 649 1079 q 607 1056 624 1056 q 567 1082 583 1056 l 489 1206 l 383 1075 z "},"Ÿ":{"ha":835,"x_min":61,"x_max":864,"o":"m 765 960 q 815 986 786 986 q 849 972 835 986 q 864 940 864 958 q 849 901 864 918 l 483 463 l 451 47 q 433 8 450 22 q 393 -7 417 -7 q 352 9 368 -7 q 338 51 336 25 l 369 463 l 72 901 q 61 935 61 917 q 78 971 61 956 q 118 986 96 986 q 160 963 144 986 l 432 558 l 765 960 m 364 1103 q 315 1122 335 1103 q 296 1169 296 1140 q 315 1217 296 1199 q 364 1236 335 1236 q 413 1217 393 1236 q 433 1169 433 1199 q 414 1121 433 1139 q 364 1103 394 1103 m 603 1103 q 553 1122 574 1103 q 533 1169 533 1140 q 553 1217 533 1199 q 603 1236 574 1236 q 651 1217 632 1236 q 671 1169 671 1199 q 651 1122 671 1140 q 603 1103 632 1103 z "},"Ẏ":{"ha":835,"x_min":61,"x_max":864,"o":"m 765 960 q 815 986 786 986 q 849 972 835 986 q 864 940 864 958 q 849 901 864 918 l 483 463 l 451 47 q 433 8 450 22 q 393 -7 417 -7 q 352 9 368 -7 q 338 51 336 25 l 369 463 l 72 901 q 61 935 61 917 q 78 971 61 956 q 118 986 96 986 q 160 963 144 986 l 432 558 l 765 960 m 483 1099 q 429 1118 450 1099 q 408 1169 408 1138 q 429 1220 408 1201 q 483 1239 450 1239 q 538 1220 517 1239 q 558 1169 558 1201 q 538 1118 558 1138 q 483 1099 517 1099 z "},"Ỵ":{"ha":835,"x_min":61,"x_max":864,"o":"m 765 960 q 815 986 786 986 q 849 972 835 986 q 864 940 864 958 q 849 901 864 918 l 483 463 l 451 47 q 433 8 450 22 q 393 -7 417 -7 q 352 9 368 -7 q 338 51 336 25 l 369 463 l 72 901 q 61 935 61 917 q 78 971 61 956 q 118 986 96 986 q 160 963 144 986 l 432 558 l 765 960 m 375 -260 q 324 -241 343 -260 q 304 -192 304 -222 q 324 -142 304 -161 q 375 -124 343 -124 q 426 -142 406 -124 q 446 -192 446 -161 q 426 -241 446 -222 q 375 -260 407 -260 z "},"Ỳ":{"ha":835,"x_min":61,"x_max":864,"o":"m 765 960 q 815 986 786 986 q 849 972 835 986 q 864 940 864 958 q 849 901 864 918 l 483 463 l 451 47 q 433 8 450 22 q 393 -7 417 -7 q 352 9 368 -7 q 338 51 336 25 l 369 463 l 72 901 q 61 935 61 917 q 78 971 61 956 q 118 986 96 986 q 160 963 144 986 l 432 558 l 765 960 m 321 1208 q 307 1242 307 1224 q 321 1272 307 1260 q 353 1285 335 1285 q 397 1256 382 1285 l 488 1103 q 493 1085 493 1093 q 483 1064 493 1072 q 461 1056 474 1056 q 431 1071 442 1056 l 321 1208 z "},"Ỷ":{"ha":835,"x_min":61,"x_max":864,"o":"m 765 960 q 815 986 786 986 q 849 972 835 986 q 864 940 864 958 q 849 901 864 918 l 483 463 l 451 47 q 433 8 450 22 q 393 -7 417 -7 q 352 9 368 -7 q 338 51 336 25 l 369 463 l 72 901 q 61 935 61 917 q 78 971 61 956 q 118 986 96 986 q 160 963 144 986 l 432 558 l 765 960 m 515 1081 q 502 1062 513 1068 q 478 1056 492 1056 q 451 1065 463 1056 q 442 1092 440 1074 q 458 1126 443 1114 q 501 1154 472 1139 q 531 1171 521 1163 q 540 1189 540 1179 q 488 1213 540 1213 q 414 1201 451 1213 q 403 1200 410 1200 q 383 1208 390 1200 q 375 1228 375 1217 q 401 1263 375 1253 q 499 1279 440 1279 q 594 1257 560 1279 q 629 1197 629 1235 q 612 1152 629 1168 q 563 1121 594 1136 q 529 1101 540 1110 q 515 1081 518 1093 z "},"Ȳ":{"ha":835,"x_min":61,"x_max":864,"o":"m 765 960 q 815 986 786 986 q 849 972 835 986 q 864 940 864 958 q 849 901 864 918 l 483 463 l 451 47 q 433 8 450 22 q 393 -7 417 -7 q 352 9 368 -7 q 338 51 336 25 l 369 463 l 72 901 q 61 935 61 917 q 78 971 61 956 q 118 986 96 986 q 160 963 144 986 l 432 558 l 765 960 m 311 1126 q 277 1138 289 1126 q 265 1168 265 1149 q 280 1200 265 1189 q 318 1211 294 1211 l 656 1211 q 690 1200 678 1211 q 701 1169 701 1189 q 687 1138 701 1149 q 649 1126 672 1126 l 311 1126 z "},"Ỹ":{"ha":835,"x_min":61,"x_max":864,"o":"m 765 960 q 815 986 786 986 q 849 972 835 986 q 864 940 864 958 q 849 901 864 918 l 483 463 l 451 47 q 433 8 450 22 q 393 -7 417 -7 q 352 9 368 -7 q 338 51 336 25 l 369 463 l 72 901 q 61 935 61 917 q 78 971 61 956 q 118 986 96 986 q 160 963 144 986 l 432 558 l 765 960 m 575 1094 q 528 1103 551 1094 q 468 1129 504 1111 q 386 1158 413 1158 q 349 1149 363 1158 q 319 1121 335 1139 q 304 1104 311 1110 q 288 1099 297 1099 q 268 1108 275 1099 q 261 1132 261 1117 q 278 1183 261 1157 q 324 1227 294 1210 q 392 1244 354 1244 q 439 1236 415 1244 q 499 1210 463 1228 q 581 1181 554 1181 q 618 1190 604 1181 q 647 1218 632 1200 q 678 1240 663 1240 q 699 1231 692 1240 q 706 1207 706 1222 q 689 1156 706 1182 q 642 1112 672 1129 q 575 1094 613 1094 z "},"Z":{"ha":819,"x_min":31,"x_max":808,"o":"m 763 979 q 796 966 783 979 q 808 933 808 953 q 793 890 808 910 l 179 96 l 706 96 q 744 83 731 96 q 757 50 757 71 q 743 13 757 26 q 703 0 729 0 l 79 0 q 44 13 57 0 q 31 46 31 26 q 47 89 31 68 l 661 883 l 150 883 q 113 896 126 883 q 100 929 100 908 q 154 979 100 979 l 763 979 z "},"Ź":{"ha":819,"x_min":31,"x_max":808,"o":"m 763 979 q 796 966 783 979 q 808 933 808 953 q 793 890 808 910 l 179 96 l 706 96 q 744 83 731 96 q 757 50 757 71 q 743 13 757 26 q 703 0 729 0 l 79 0 q 44 13 57 0 q 31 46 31 26 q 47 89 31 68 l 661 883 l 150 883 q 113 896 126 883 q 100 929 100 908 q 154 979 100 979 l 763 979 m 511 1071 q 479 1056 493 1056 q 460 1064 468 1056 q 451 1083 451 1072 q 460 1107 451 1094 l 567 1256 q 614 1283 586 1283 q 647 1271 633 1283 q 660 1240 660 1258 q 640 1200 660 1219 l 511 1071 z "},"Ž":{"ha":819,"x_min":31,"x_max":808,"o":"m 763 979 q 796 966 783 979 q 808 933 808 953 q 793 890 808 910 l 179 96 l 706 96 q 744 83 731 96 q 757 50 757 71 q 743 13 757 26 q 703 0 729 0 l 79 0 q 44 13 57 0 q 31 46 31 26 q 47 89 31 68 l 661 883 l 150 883 q 113 896 126 883 q 100 929 100 908 q 154 979 100 979 l 763 979 m 575 1261 q 614 1282 592 1282 q 642 1270 629 1282 q 654 1243 654 1258 q 643 1215 654 1228 l 521 1079 q 465 1054 497 1054 q 415 1079 435 1054 l 319 1211 q 308 1240 308 1226 q 321 1269 308 1257 q 350 1281 333 1281 q 392 1254 375 1281 l 469 1129 l 575 1261 z "},"Ż":{"ha":819,"x_min":31,"x_max":808,"o":"m 763 979 q 796 966 783 979 q 808 933 808 953 q 793 890 808 910 l 179 96 l 706 96 q 744 83 731 96 q 757 50 757 71 q 743 13 757 26 q 703 0 729 0 l 79 0 q 44 13 57 0 q 31 46 31 26 q 47 89 31 68 l 661 883 l 150 883 q 113 896 126 883 q 100 929 100 908 q 154 979 100 979 l 763 979 m 476 1099 q 422 1118 443 1099 q 401 1169 401 1138 q 422 1220 401 1201 q 476 1239 443 1239 q 531 1220 510 1239 q 551 1169 551 1201 q 531 1118 551 1138 q 476 1099 510 1099 z "},"Ẓ":{"ha":819,"x_min":31,"x_max":808,"o":"m 763 979 q 796 966 783 979 q 808 933 808 953 q 793 890 808 910 l 179 96 l 706 96 q 744 83 731 96 q 757 50 757 71 q 743 13 757 26 q 703 0 729 0 l 79 0 q 44 13 57 0 q 31 46 31 26 q 47 89 31 68 l 661 883 l 150 883 q 113 896 126 883 q 100 929 100 908 q 154 979 100 979 l 763 979 m 374 -260 q 322 -241 342 -260 q 303 -192 303 -222 q 322 -142 303 -161 q 374 -124 342 -124 q 424 -142 404 -124 q 444 -192 444 -161 q 425 -241 444 -222 q 374 -260 406 -260 z "},"a":{"ha":736,"x_min":71,"x_max":643,"o":"m 399 693 q 643 461 643 693 q 642 424 643 436 l 613 44 q 596 6 611 19 q 557 -7 581 -7 q 517 9 532 -7 q 504 49 501 25 l 508 110 q 424 22 478 53 q 301 -10 371 -10 q 135 45 200 -10 q 71 185 71 100 q 111 306 71 261 q 240 372 151 351 q 481 393 329 393 l 531 393 l 533 433 l 535 460 q 499 566 535 532 q 390 600 464 600 q 175 532 290 600 q 153 525 161 525 q 125 538 136 525 q 114 569 114 551 q 140 617 114 600 q 260 672 190 651 q 399 693 331 693 m 325 79 q 460 135 404 79 q 521 278 515 190 l 524 321 l 485 321 q 305 309 369 321 q 213 270 240 297 q 185 194 185 243 q 222 110 185 142 q 325 79 260 79 z "},"á":{"ha":736,"x_min":71,"x_max":672,"o":"m 399 693 q 643 461 643 693 q 642 424 643 436 l 613 44 q 596 6 611 19 q 557 -7 581 -7 q 517 9 532 -7 q 504 49 501 25 l 508 110 q 424 22 478 53 q 301 -10 371 -10 q 135 45 200 -10 q 71 185 71 100 q 111 306 71 261 q 240 372 151 351 q 481 393 329 393 l 531 393 l 533 433 l 535 460 q 499 566 535 532 q 390 600 464 600 q 175 532 290 600 q 153 525 161 525 q 125 538 136 525 q 114 569 114 551 q 140 617 114 600 q 260 672 190 651 q 399 693 331 693 m 325 79 q 460 135 404 79 q 521 278 515 190 l 524 321 l 485 321 q 305 309 369 321 q 213 270 240 297 q 185 194 185 243 q 222 110 185 142 q 325 79 260 79 m 453 772 q 425 758 439 758 q 403 767 413 758 q 394 789 394 776 q 401 811 394 803 l 571 1026 q 618 1054 590 1054 q 656 1040 639 1054 q 672 1004 672 1025 q 653 964 672 983 l 453 772 z "},"ă":{"ha":736,"x_min":71,"x_max":650,"o":"m 399 693 q 643 461 643 693 q 642 424 643 436 l 613 44 q 596 6 611 19 q 557 -7 581 -7 q 517 9 532 -7 q 504 49 501 25 l 508 110 q 424 22 478 53 q 301 -10 371 -10 q 135 45 200 -10 q 71 185 71 100 q 111 306 71 261 q 240 372 151 351 q 481 393 329 393 l 531 393 l 533 433 l 535 460 q 499 566 535 532 q 390 600 464 600 q 175 532 290 600 q 153 525 161 525 q 125 538 136 525 q 114 569 114 551 q 140 617 114 600 q 260 672 190 651 q 399 693 331 693 m 325 79 q 460 135 404 79 q 521 278 515 190 l 524 321 l 485 321 q 305 309 369 321 q 213 270 240 297 q 185 194 185 243 q 222 110 185 142 q 325 79 260 79 m 419 807 q 294 844 347 807 q 214 949 240 881 q 210 968 210 960 q 222 998 210 986 q 250 1010 233 1010 q 290 982 276 1010 q 344 914 310 938 q 426 890 379 890 q 572 982 519 890 q 614 1010 588 1010 q 640 1000 629 1010 q 650 974 650 990 q 644 949 650 960 q 553 844 613 881 q 419 807 493 807 z "},"ắ":{"ha":736,"x_min":71,"x_max":644,"o":"m 399 693 q 643 461 643 693 q 642 424 643 436 l 613 44 q 596 6 611 19 q 557 -7 581 -7 q 517 9 532 -7 q 504 49 501 25 l 508 110 q 424 22 478 53 q 301 -10 371 -10 q 135 45 200 -10 q 71 185 71 100 q 111 306 71 261 q 240 372 151 351 q 481 393 329 393 l 531 393 l 533 433 l 535 460 q 499 566 535 532 q 390 600 464 600 q 175 532 290 600 q 153 525 161 525 q 125 538 136 525 q 114 569 114 551 q 140 617 114 600 q 260 672 190 651 q 399 693 331 693 m 325 79 q 460 135 404 79 q 521 278 515 190 l 524 321 l 485 321 q 305 309 369 321 q 213 270 240 297 q 185 194 185 243 q 222 110 185 142 q 325 79 260 79 m 461 911 q 435 900 450 900 q 417 907 424 900 q 410 924 410 914 q 418 946 410 936 l 525 1090 q 569 1118 544 1118 q 601 1104 588 1118 q 615 1072 615 1090 q 600 1039 615 1053 l 461 911 m 418 758 q 292 789 346 758 q 213 878 239 819 q 207 899 207 892 q 217 925 207 915 q 243 935 228 935 q 278 914 264 935 q 337 854 301 874 q 422 835 372 835 q 572 914 514 835 q 613 936 590 936 q 635 927 626 936 q 644 904 644 918 q 636 878 644 893 q 545 789 603 819 q 418 758 488 758 z "},"ặ":{"ha":736,"x_min":71,"x_max":650,"o":"m 399 693 q 643 461 643 693 q 642 424 643 436 l 613 44 q 596 6 611 19 q 557 -7 581 -7 q 517 9 532 -7 q 504 49 501 25 l 508 110 q 424 22 478 53 q 301 -10 371 -10 q 135 45 200 -10 q 71 185 71 100 q 111 306 71 261 q 240 372 151 351 q 481 393 329 393 l 531 393 l 533 433 l 535 460 q 499 566 535 532 q 390 600 464 600 q 175 532 290 600 q 153 525 161 525 q 125 538 136 525 q 114 569 114 551 q 140 617 114 600 q 260 672 190 651 q 399 693 331 693 m 325 79 q 460 135 404 79 q 521 278 515 190 l 524 321 l 485 321 q 305 309 369 321 q 213 270 240 297 q 185 194 185 243 q 222 110 185 142 q 325 79 260 79 m 335 -260 q 283 -241 303 -260 q 264 -192 264 -222 q 283 -142 264 -161 q 335 -124 303 -124 q 385 -142 365 -124 q 406 -192 406 -161 q 386 -241 406 -222 q 335 -260 367 -260 m 419 807 q 294 844 347 807 q 214 949 240 881 q 210 968 210 960 q 222 998 210 986 q 250 1010 233 1010 q 290 982 276 1010 q 344 914 310 938 q 426 890 379 890 q 572 982 519 890 q 614 1010 588 1010 q 640 1000 629 1010 q 650 974 650 990 q 644 949 650 960 q 553 844 613 881 q 419 807 493 807 z "},"ằ":{"ha":736,"x_min":71,"x_max":644,"o":"m 399 693 q 643 461 643 693 q 642 424 643 436 l 613 44 q 596 6 611 19 q 557 -7 581 -7 q 517 9 532 -7 q 504 49 501 25 l 508 110 q 424 22 478 53 q 301 -10 371 -10 q 135 45 200 -10 q 71 185 71 100 q 111 306 71 261 q 240 372 151 351 q 481 393 329 393 l 531 393 l 533 433 l 535 460 q 499 566 535 532 q 390 600 464 600 q 175 532 290 600 q 153 525 161 525 q 125 538 136 525 q 114 569 114 551 q 140 617 114 600 q 260 672 190 651 q 399 693 331 693 m 325 79 q 460 135 404 79 q 521 278 515 190 l 524 321 l 485 321 q 305 309 369 321 q 213 270 240 297 q 185 194 185 243 q 222 110 185 142 q 325 79 260 79 m 275 1042 q 260 1076 260 1061 q 273 1105 260 1093 q 303 1117 286 1117 q 346 1090 328 1117 l 435 949 q 440 931 440 942 q 431 910 440 918 q 411 901 422 901 q 383 915 396 901 l 275 1042 m 418 758 q 292 789 346 758 q 213 878 239 819 q 207 899 207 892 q 217 925 207 915 q 243 935 228 935 q 278 914 264 935 q 337 854 301 874 q 422 835 372 835 q 572 914 514 835 q 613 936 590 936 q 635 927 626 936 q 644 904 644 918 q 636 878 644 893 q 545 789 603 819 q 418 758 488 758 z "},"ẳ":{"ha":736,"x_min":71,"x_max":644,"o":"m 399 693 q 643 461 643 693 q 642 424 643 436 l 613 44 q 596 6 611 19 q 557 -7 581 -7 q 517 9 532 -7 q 504 49 501 25 l 508 110 q 424 22 478 53 q 301 -10 371 -10 q 135 45 200 -10 q 71 185 71 100 q 111 306 71 261 q 240 372 151 351 q 481 393 329 393 l 531 393 l 533 433 l 535 460 q 499 566 535 532 q 390 600 464 600 q 175 532 290 600 q 153 525 161 525 q 125 538 136 525 q 114 569 114 551 q 140 617 114 600 q 260 672 190 651 q 399 693 331 693 m 325 79 q 460 135 404 79 q 521 278 515 190 l 524 321 l 485 321 q 305 309 369 321 q 213 270 240 297 q 185 194 185 243 q 222 110 185 142 q 325 79 260 79 m 465 925 q 452 908 463 914 q 429 901 442 901 q 406 910 415 901 q 396 933 396 918 q 412 970 396 957 q 456 994 428 983 q 483 1008 475 1003 q 492 1024 492 1014 q 439 1046 492 1046 q 365 1036 404 1046 l 357 1035 q 335 1042 343 1035 q 326 1063 326 1050 q 351 1096 326 1086 q 450 1113 397 1113 q 546 1090 511 1113 q 581 1033 581 1068 q 563 989 581 1004 q 513 961 544 974 q 480 944 492 951 q 465 925 468 936 m 418 758 q 292 789 346 758 q 213 878 239 819 q 207 899 207 892 q 217 925 207 915 q 243 935 228 935 q 278 914 264 935 q 337 854 301 874 q 422 835 372 835 q 572 914 514 835 q 613 936 590 936 q 635 927 626 936 q 644 904 644 918 q 636 878 644 893 q 545 789 603 819 q 418 758 488 758 z "},"ẵ":{"ha":736,"x_min":71,"x_max":660,"o":"m 399 693 q 643 461 643 693 q 642 424 643 436 l 613 44 q 596 6 611 19 q 557 -7 581 -7 q 517 9 532 -7 q 504 49 501 25 l 508 110 q 424 22 478 53 q 301 -10 371 -10 q 135 45 200 -10 q 71 185 71 100 q 111 306 71 261 q 240 372 151 351 q 481 393 329 393 l 531 393 l 533 433 l 535 460 q 499 566 535 532 q 390 600 464 600 q 175 532 290 600 q 153 525 161 525 q 125 538 136 525 q 114 569 114 551 q 140 617 114 600 q 260 672 190 651 q 399 693 331 693 m 325 79 q 460 135 404 79 q 521 278 515 190 l 524 321 l 485 321 q 305 309 369 321 q 213 270 240 297 q 185 194 185 243 q 222 110 185 142 q 325 79 260 79 m 531 975 q 480 984 506 975 q 419 1008 454 993 q 372 1028 390 1022 q 338 1035 353 1035 q 302 1026 315 1035 q 274 1000 289 1018 q 258 983 265 989 q 242 978 251 978 q 222 986 229 978 q 215 1010 215 994 q 233 1055 215 1031 q 280 1096 250 1079 q 344 1113 310 1113 q 394 1104 368 1113 q 454 1079 419 1096 q 502 1059 483 1065 q 536 1053 521 1053 q 572 1061 558 1053 q 600 1088 585 1069 q 615 1104 608 1099 q 632 1110 622 1110 q 652 1101 644 1110 q 660 1078 660 1092 q 642 1033 660 1057 q 595 992 625 1008 q 531 975 565 975 m 418 758 q 292 789 346 758 q 213 878 239 819 q 207 899 207 892 q 217 926 207 915 q 243 936 228 936 q 278 914 264 936 q 337 854 301 874 q 422 835 372 835 q 572 914 514 835 q 613 936 590 936 q 635 927 626 936 q 644 904 644 918 q 636 878 644 893 q 545 789 603 819 q 418 758 488 758 z "},"ǎ":{"ha":736,"x_min":71,"x_max":643,"o":"m 399 693 q 643 461 643 693 q 642 424 643 436 l 613 44 q 596 6 611 19 q 557 -7 581 -7 q 517 9 532 -7 q 504 49 501 25 l 508 110 q 424 22 478 53 q 301 -10 371 -10 q 135 45 200 -10 q 71 185 71 100 q 111 306 71 261 q 240 372 151 351 q 481 393 329 393 l 531 393 l 533 433 l 535 460 q 499 566 535 532 q 390 600 464 600 q 175 532 290 600 q 153 525 161 525 q 125 538 136 525 q 114 569 114 551 q 140 617 114 600 q 260 672 190 651 q 399 693 331 693 m 325 79 q 460 135 404 79 q 521 278 515 190 l 524 321 l 485 321 q 305 309 369 321 q 213 270 240 297 q 185 194 185 243 q 222 110 185 142 q 325 79 260 79 m 525 1026 q 543 1046 532 1039 q 565 1053 554 1053 q 595 1040 582 1053 q 608 1011 608 1028 q 599 982 608 996 l 474 793 q 414 758 449 758 q 361 793 379 758 l 265 985 q 260 1008 260 996 q 274 1040 260 1026 q 307 1053 289 1053 q 344 1025 332 1053 l 421 847 l 525 1026 z "},"â":{"ha":736,"x_min":71,"x_max":643,"o":"m 399 693 q 643 461 643 693 q 642 424 643 436 l 613 44 q 596 6 611 19 q 557 -7 581 -7 q 517 9 532 -7 q 504 49 501 25 l 508 110 q 424 22 478 53 q 301 -10 371 -10 q 135 45 200 -10 q 71 185 71 100 q 111 306 71 261 q 240 372 151 351 q 481 393 329 393 l 531 393 l 533 433 l 535 460 q 499 566 535 532 q 390 600 464 600 q 175 532 290 600 q 153 525 161 525 q 125 538 136 525 q 114 569 114 551 q 140 617 114 600 q 260 672 190 651 q 399 693 331 693 m 325 79 q 460 135 404 79 q 521 278 515 190 l 524 321 l 485 321 q 305 309 369 321 q 213 270 240 297 q 185 194 185 243 q 222 110 185 142 q 325 79 260 79 m 328 785 q 286 758 311 758 q 256 771 269 758 q 243 800 243 783 q 253 829 243 815 l 379 1018 q 438 1053 401 1053 q 468 1044 454 1053 q 490 1018 482 1035 l 588 826 q 593 803 593 815 q 578 772 593 785 q 546 758 564 758 q 507 786 519 758 l 431 964 l 328 785 z "},"ấ":{"ha":736,"x_min":71,"x_max":760,"o":"m 399 693 q 643 461 643 693 q 642 424 643 436 l 613 44 q 596 6 611 19 q 557 -7 581 -7 q 517 9 532 -7 q 504 49 501 25 l 508 110 q 424 22 478 53 q 301 -10 371 -10 q 135 45 200 -10 q 71 185 71 100 q 111 306 71 261 q 240 372 151 351 q 481 393 329 393 l 531 393 l 533 433 l 535 460 q 499 566 535 532 q 390 600 464 600 q 175 532 290 600 q 153 525 161 525 q 125 538 136 525 q 114 569 114 551 q 140 617 114 600 q 260 672 190 651 q 399 693 331 693 m 325 79 q 460 135 404 79 q 521 278 515 190 l 524 321 l 485 321 q 305 309 369 321 q 213 270 240 297 q 185 194 185 243 q 222 110 185 142 q 325 79 260 79 m 611 911 q 588 901 600 901 q 568 910 576 901 q 560 929 560 918 q 568 950 560 940 l 671 1090 q 715 1115 688 1115 q 747 1103 733 1115 q 760 1072 760 1090 q 739 1031 760 1050 l 611 911 m 321 774 q 288 757 306 757 q 260 769 272 757 q 247 797 247 782 q 260 825 247 813 l 379 954 q 433 981 403 981 q 482 954 464 981 l 578 825 q 589 797 589 810 q 577 769 589 781 q 549 758 565 758 q 510 781 526 758 l 428 903 l 321 774 z "},"ậ":{"ha":736,"x_min":71,"x_max":643,"o":"m 399 693 q 643 461 643 693 q 642 424 643 436 l 613 44 q 596 6 611 19 q 557 -7 581 -7 q 517 9 532 -7 q 504 49 501 25 l 508 110 q 424 22 478 53 q 301 -10 371 -10 q 135 45 200 -10 q 71 185 71 100 q 111 306 71 261 q 240 372 151 351 q 481 393 329 393 l 531 393 l 533 433 l 535 460 q 499 566 535 532 q 390 600 464 600 q 175 532 290 600 q 153 525 161 525 q 125 538 136 525 q 114 569 114 551 q 140 617 114 600 q 260 672 190 651 q 399 693 331 693 m 325 79 q 460 135 404 79 q 521 278 515 190 l 524 321 l 485 321 q 305 309 369 321 q 213 270 240 297 q 185 194 185 243 q 222 110 185 142 q 325 79 260 79 m 335 -260 q 283 -241 303 -260 q 264 -192 264 -222 q 283 -142 264 -161 q 335 -124 303 -124 q 385 -142 365 -124 q 406 -192 406 -161 q 386 -241 406 -222 q 335 -260 367 -260 m 328 785 q 286 758 311 758 q 256 771 269 758 q 243 800 243 783 q 253 829 243 815 l 379 1018 q 438 1053 401 1053 q 468 1044 454 1053 q 490 1018 482 1035 l 588 826 q 593 803 593 815 q 578 772 593 785 q 546 758 564 758 q 507 786 519 758 l 431 964 l 328 785 z "},"ầ":{"ha":736,"x_min":71,"x_max":656,"o":"m 399 693 q 643 461 643 693 q 642 424 643 436 l 613 44 q 596 6 611 19 q 557 -7 581 -7 q 517 9 532 -7 q 504 49 501 25 l 508 110 q 424 22 478 53 q 301 -10 371 -10 q 135 45 200 -10 q 71 185 71 100 q 111 306 71 261 q 240 372 151 351 q 481 393 329 393 l 531 393 l 533 433 l 535 460 q 499 566 535 532 q 390 600 464 600 q 175 532 290 600 q 153 525 161 525 q 125 538 136 525 q 114 569 114 551 q 140 617 114 600 q 260 672 190 651 q 399 693 331 693 m 325 79 q 460 135 404 79 q 521 278 515 190 l 524 321 l 485 321 q 305 309 369 321 q 213 270 240 297 q 185 194 185 243 q 222 110 185 142 q 325 79 260 79 m 508 1039 q 496 1071 496 1056 q 512 1104 496 1090 q 547 1118 528 1118 q 593 1086 579 1118 l 653 946 l 656 935 q 646 913 656 922 q 624 903 636 903 q 600 915 608 903 l 508 1039 m 321 774 q 288 757 306 757 q 260 769 272 757 q 247 797 247 782 q 260 825 247 813 l 379 954 q 433 981 403 981 q 482 954 464 981 l 578 825 q 589 797 589 810 q 577 769 589 781 q 549 758 565 758 q 510 781 526 758 l 428 903 l 321 774 z "},"ẩ":{"ha":736,"x_min":71,"x_max":735,"o":"m 399 693 q 643 461 643 693 q 642 424 643 436 l 613 44 q 596 6 611 19 q 557 -7 581 -7 q 517 9 532 -7 q 504 49 501 25 l 508 110 q 424 22 478 53 q 301 -10 371 -10 q 135 45 200 -10 q 71 185 71 100 q 111 306 71 261 q 240 372 151 351 q 481 393 329 393 l 531 393 l 533 433 l 535 460 q 499 566 535 532 q 390 600 464 600 q 175 532 290 600 q 153 525 161 525 q 125 538 136 525 q 114 569 114 551 q 140 617 114 600 q 260 672 190 651 q 399 693 331 693 m 325 79 q 460 135 404 79 q 521 278 515 190 l 524 321 l 485 321 q 305 309 369 321 q 213 270 240 297 q 185 194 185 243 q 222 110 185 142 q 325 79 260 79 m 617 926 q 604 909 614 915 q 582 903 594 903 q 556 912 567 903 q 547 938 546 921 q 564 970 549 958 q 608 996 579 982 q 636 1010 626 1003 q 646 1025 646 1017 q 632 1042 646 1036 q 592 1047 618 1047 q 518 1038 567 1047 l 510 1036 q 488 1044 496 1036 q 479 1064 479 1051 q 504 1097 479 1088 q 603 1114 550 1114 q 700 1092 665 1114 q 735 1035 735 1071 q 717 989 735 1004 q 664 960 699 974 q 631 944 643 951 q 617 926 619 938 m 321 774 q 288 757 306 757 q 260 769 272 757 q 247 797 247 782 q 260 825 247 813 l 379 954 q 433 981 403 981 q 482 954 464 981 l 578 825 q 589 797 589 810 q 577 769 589 781 q 549 758 565 758 q 510 781 526 758 l 428 903 l 321 774 z "},"ẫ":{"ha":736,"x_min":71,"x_max":661,"o":"m 399 693 q 643 461 643 693 q 642 424 643 436 l 613 44 q 596 6 611 19 q 557 -7 581 -7 q 517 9 532 -7 q 504 49 501 25 l 508 110 q 424 22 478 53 q 301 -10 371 -10 q 135 45 200 -10 q 71 185 71 100 q 111 306 71 261 q 240 372 151 351 q 481 393 329 393 l 531 393 l 533 433 l 535 460 q 499 566 535 532 q 390 600 464 600 q 175 532 290 600 q 153 525 161 525 q 125 538 136 525 q 114 569 114 551 q 140 617 114 600 q 260 672 190 651 q 399 693 331 693 m 325 79 q 460 135 404 79 q 521 278 515 190 l 524 321 l 485 321 q 305 309 369 321 q 213 270 240 297 q 185 194 185 243 q 222 110 185 142 q 325 79 260 79 m 531 993 q 481 1001 507 993 q 421 1024 456 1008 q 376 1041 399 1033 q 339 1049 354 1049 q 303 1040 317 1049 q 275 1015 290 1032 q 259 999 265 1004 q 243 994 253 994 q 224 1003 231 994 q 217 1026 217 1013 q 233 1071 217 1047 q 280 1110 250 1094 q 344 1126 310 1126 q 390 1119 368 1126 q 456 1096 413 1113 q 500 1078 478 1086 q 538 1071 522 1071 q 575 1080 561 1071 q 601 1104 589 1089 q 616 1117 608 1111 q 632 1124 624 1124 q 653 1115 646 1124 q 661 1092 661 1107 q 644 1048 661 1071 q 597 1009 626 1025 q 531 993 567 993 m 321 774 q 288 757 306 757 q 260 769 272 757 q 247 797 247 782 q 260 825 247 813 l 379 954 q 433 981 403 981 q 482 954 464 981 l 578 825 q 589 797 589 810 q 577 769 589 781 q 549 758 565 758 q 510 781 526 758 l 428 903 l 321 774 z "},"ȁ":{"ha":736,"x_min":71,"x_max":643,"o":"m 399 693 q 643 461 643 693 q 642 424 643 436 l 613 44 q 596 6 611 19 q 557 -7 581 -7 q 517 9 532 -7 q 504 49 501 25 l 508 110 q 424 22 478 53 q 301 -10 371 -10 q 135 45 200 -10 q 71 185 71 100 q 111 306 71 261 q 240 372 151 351 q 481 393 329 393 l 531 393 l 533 433 l 535 460 q 499 566 535 532 q 390 600 464 600 q 175 532 290 600 q 153 525 161 525 q 125 538 136 525 q 114 569 114 551 q 140 617 114 600 q 260 672 190 651 q 399 693 331 693 m 325 79 q 460 135 404 79 q 521 278 515 190 l 524 321 l 485 321 q 305 309 369 321 q 213 270 240 297 q 185 194 185 243 q 222 110 185 142 q 325 79 260 79 m 231 990 q 228 1008 228 997 q 242 1041 228 1029 q 275 1053 256 1053 q 306 1042 292 1053 q 321 1010 319 1031 l 354 790 l 354 786 q 346 766 354 774 q 328 758 338 758 q 301 778 307 758 l 231 990 m 400 989 q 397 1008 397 996 q 411 1041 397 1029 q 443 1053 425 1053 q 473 1042 460 1053 q 489 1010 486 1032 l 522 790 l 522 786 q 514 766 522 774 q 494 758 506 758 q 468 778 474 758 l 400 989 z "},"ä":{"ha":736,"x_min":71,"x_max":643,"o":"m 399 693 q 643 461 643 693 q 642 424 643 436 l 613 44 q 596 6 611 19 q 557 -7 581 -7 q 517 9 532 -7 q 504 49 501 25 l 508 110 q 424 22 478 53 q 301 -10 371 -10 q 135 45 200 -10 q 71 185 71 100 q 111 306 71 261 q 240 372 151 351 q 481 393 329 393 l 531 393 l 533 433 l 535 460 q 499 566 535 532 q 390 600 464 600 q 175 532 290 600 q 153 525 161 525 q 125 538 136 525 q 114 569 114 551 q 140 617 114 600 q 260 672 190 651 q 399 693 331 693 m 325 79 q 460 135 404 79 q 521 278 515 190 l 524 321 l 485 321 q 305 309 369 321 q 213 270 240 297 q 185 194 185 243 q 222 110 185 142 q 325 79 260 79 m 307 840 q 258 859 278 840 q 239 907 239 878 q 258 954 239 936 q 307 972 278 972 q 356 954 336 972 q 376 907 376 936 q 357 858 376 876 q 307 840 338 840 m 546 840 q 497 859 517 840 q 476 907 476 878 q 497 954 476 936 q 546 972 517 972 q 594 954 575 972 q 614 907 614 936 q 594 859 614 878 q 546 840 575 840 z "},"ȧ":{"ha":736,"x_min":71,"x_max":643,"o":"m 399 693 q 643 461 643 693 q 642 424 643 436 l 613 44 q 596 6 611 19 q 557 -7 581 -7 q 517 9 532 -7 q 504 49 501 25 l 508 110 q 424 22 478 53 q 301 -10 371 -10 q 135 45 200 -10 q 71 185 71 100 q 111 306 71 261 q 240 372 151 351 q 481 393 329 393 l 531 393 l 533 433 l 535 460 q 499 566 535 532 q 390 600 464 600 q 175 532 290 600 q 153 525 161 525 q 125 538 136 525 q 114 569 114 551 q 140 617 114 600 q 260 672 190 651 q 399 693 331 693 m 325 79 q 460 135 404 79 q 521 278 515 190 l 524 321 l 485 321 q 305 309 369 321 q 213 270 240 297 q 185 194 185 243 q 222 110 185 142 q 325 79 260 79 m 426 836 q 372 856 393 836 q 351 907 351 875 q 372 957 351 938 q 426 976 393 976 q 481 957 460 976 q 501 907 501 938 q 481 856 501 875 q 426 836 460 836 z "},"ạ":{"ha":736,"x_min":71,"x_max":643,"o":"m 399 693 q 643 461 643 693 q 642 424 643 436 l 613 44 q 596 6 611 19 q 557 -7 581 -7 q 517 9 532 -7 q 504 49 501 25 l 508 110 q 424 22 478 53 q 301 -10 371 -10 q 135 45 200 -10 q 71 185 71 100 q 111 306 71 261 q 240 372 151 351 q 481 393 329 393 l 531 393 l 533 433 l 535 460 q 499 566 535 532 q 390 600 464 600 q 175 532 290 600 q 153 525 161 525 q 125 538 136 525 q 114 569 114 551 q 140 617 114 600 q 260 672 190 651 q 399 693 331 693 m 325 79 q 460 135 404 79 q 521 278 515 190 l 524 321 l 485 321 q 305 309 369 321 q 213 270 240 297 q 185 194 185 243 q 222 110 185 142 q 325 79 260 79 m 335 -260 q 283 -241 303 -260 q 264 -192 264 -222 q 283 -142 264 -161 q 335 -124 303 -124 q 385 -142 365 -124 q 406 -192 406 -161 q 386 -241 406 -222 q 335 -260 367 -260 z "},"à":{"ha":736,"x_min":71,"x_max":643,"o":"m 399 693 q 643 461 643 693 q 642 424 643 436 l 613 44 q 596 6 611 19 q 557 -7 581 -7 q 517 9 532 -7 q 504 49 501 25 l 508 110 q 424 22 478 53 q 301 -10 371 -10 q 135 45 200 -10 q 71 185 71 100 q 111 306 71 261 q 240 372 151 351 q 481 393 329 393 l 531 393 l 533 433 l 535 460 q 499 566 535 532 q 390 600 464 600 q 175 532 290 600 q 153 525 161 525 q 125 538 136 525 q 114 569 114 551 q 140 617 114 600 q 260 672 190 651 q 399 693 331 693 m 325 79 q 460 135 404 79 q 521 278 515 190 l 524 321 l 485 321 q 305 309 369 321 q 213 270 240 297 q 185 194 185 243 q 222 110 185 142 q 325 79 260 79 m 256 974 q 244 1008 244 990 q 260 1043 244 1029 q 294 1057 275 1057 q 344 1019 329 1057 l 435 806 q 439 789 439 797 q 430 767 439 775 q 407 760 421 760 q 369 779 383 760 l 256 974 z "},"ả":{"ha":736,"x_min":71,"x_max":643,"o":"m 399 693 q 643 461 643 693 q 642 424 643 436 l 613 44 q 596 6 611 19 q 557 -7 581 -7 q 517 9 532 -7 q 504 49 501 25 l 508 110 q 424 22 478 53 q 301 -10 371 -10 q 135 45 200 -10 q 71 185 71 100 q 111 306 71 261 q 240 372 151 351 q 481 393 329 393 l 531 393 l 533 433 l 535 460 q 499 566 535 532 q 390 600 464 600 q 175 532 290 600 q 153 525 161 525 q 125 538 136 525 q 114 569 114 551 q 140 617 114 600 q 260 672 190 651 q 399 693 331 693 m 325 79 q 460 135 404 79 q 521 278 515 190 l 524 321 l 485 321 q 305 309 369 321 q 213 270 240 297 q 185 194 185 243 q 222 110 185 142 q 325 79 260 79 m 457 794 q 444 768 456 778 q 418 758 432 758 q 393 769 403 758 q 383 800 383 779 q 399 850 383 829 q 443 897 414 871 q 474 926 464 914 q 483 950 483 938 q 431 982 483 982 q 361 971 396 982 q 349 969 357 969 q 328 977 336 969 q 321 997 321 985 q 328 1018 321 1008 q 349 1033 335 1028 q 443 1051 396 1051 q 540 1026 504 1051 q 575 961 575 1001 q 559 908 575 929 q 511 864 543 888 q 473 830 486 844 q 457 794 460 815 z "},"ȃ":{"ha":736,"x_min":71,"x_max":643,"o":"m 399 693 q 643 461 643 693 q 642 424 643 436 l 613 44 q 596 6 611 19 q 557 -7 581 -7 q 517 9 532 -7 q 504 49 501 25 l 508 110 q 424 22 478 53 q 301 -10 371 -10 q 135 45 200 -10 q 71 185 71 100 q 111 306 71 261 q 240 372 151 351 q 481 393 329 393 l 531 393 l 533 433 l 535 460 q 499 566 535 532 q 390 600 464 600 q 175 532 290 600 q 153 525 161 525 q 125 538 136 525 q 114 569 114 551 q 140 617 114 600 q 260 672 190 651 q 399 693 331 693 m 325 79 q 460 135 404 79 q 521 278 515 190 l 524 321 l 485 321 q 305 309 369 321 q 213 270 240 297 q 185 194 185 243 q 222 110 185 142 q 325 79 260 79 m 431 1010 q 556 974 503 1010 q 636 869 610 938 q 640 849 640 860 q 628 819 640 831 q 600 808 617 808 q 560 836 574 808 q 506 903 542 881 q 425 926 471 926 q 279 836 329 926 q 259 815 271 822 q 236 807 247 807 q 210 817 221 807 q 200 843 200 826 q 207 869 200 853 q 299 973 239 936 q 431 1010 358 1010 z "},"ā":{"ha":736,"x_min":71,"x_max":644,"o":"m 399 693 q 643 461 643 693 q 642 424 643 436 l 613 44 q 596 6 611 19 q 557 -7 581 -7 q 517 9 532 -7 q 504 49 501 25 l 508 110 q 424 22 478 53 q 301 -10 371 -10 q 135 45 200 -10 q 71 185 71 100 q 111 306 71 261 q 240 372 151 351 q 481 393 329 393 l 531 393 l 533 433 l 535 460 q 499 566 535 532 q 390 600 464 600 q 175 532 290 600 q 153 525 161 525 q 125 538 136 525 q 114 569 114 551 q 140 617 114 600 q 260 672 190 651 q 399 693 331 693 m 325 79 q 460 135 404 79 q 521 278 515 190 l 524 321 l 485 321 q 305 309 369 321 q 213 270 240 297 q 185 194 185 243 q 222 110 185 142 q 325 79 260 79 m 254 864 q 220 875 232 864 q 208 906 208 886 q 223 938 208 926 q 261 949 238 949 l 599 949 q 633 938 621 949 q 644 907 644 926 q 630 875 644 886 q 592 864 615 864 l 254 864 z "},"ą":{"ha":736,"x_min":71,"x_max":658,"o":"m 617 -178 q 633 -174 628 -174 q 652 -181 646 -174 q 658 -201 658 -189 q 635 -242 658 -228 q 535 -268 586 -268 q 422 -231 464 -268 q 379 -131 379 -193 q 412 -31 379 -74 q 504 35 444 13 l 504 49 l 508 110 q 422 21 476 51 q 300 -10 368 -10 q 135 44 199 -10 q 71 185 71 99 q 111 306 71 261 q 240 372 151 351 q 481 393 329 393 l 531 393 l 533 433 l 535 460 q 500 566 535 532 q 390 600 465 600 q 175 532 289 600 q 151 525 161 525 q 124 538 135 525 q 114 569 114 551 q 140 617 114 601 q 262 672 192 651 q 399 693 332 693 q 643 461 643 693 q 642 424 643 436 l 613 46 q 578 1 611 8 q 499 -37 531 -8 q 468 -112 468 -67 q 490 -173 468 -151 q 551 -194 511 -194 q 617 -178 579 -194 m 325 79 q 460 135 404 79 q 521 278 515 190 l 524 321 l 485 321 q 298 308 363 321 q 209 267 233 294 q 185 193 185 240 q 222 110 185 142 q 325 79 260 79 z "},"å":{"ha":736,"x_min":71,"x_max":643,"o":"m 399 693 q 643 461 643 693 q 642 424 643 436 l 613 44 q 596 6 611 19 q 557 -7 581 -7 q 517 9 532 -7 q 504 49 501 25 l 508 110 q 424 22 478 53 q 301 -10 371 -10 q 135 45 200 -10 q 71 185 71 100 q 111 306 71 261 q 240 372 151 351 q 481 393 329 393 l 531 393 l 533 433 l 535 460 q 499 566 535 532 q 390 600 464 600 q 175 532 290 600 q 153 525 161 525 q 125 538 136 525 q 114 569 114 551 q 140 617 114 600 q 260 672 190 651 q 399 693 331 693 m 325 79 q 460 135 404 79 q 521 278 515 190 l 524 321 l 485 321 q 305 309 369 321 q 213 270 240 297 q 185 194 185 243 q 222 110 185 142 q 325 79 260 79 m 425 768 q 326 808 367 768 q 285 906 285 847 q 326 1003 285 964 q 425 1043 367 1043 q 524 1003 483 1043 q 565 906 565 964 q 524 808 565 847 q 425 768 483 768 m 425 836 q 473 856 454 836 q 492 906 492 876 q 473 955 492 935 q 425 975 454 975 q 377 955 396 975 q 358 906 358 935 q 377 856 358 876 q 425 836 396 836 z "},"ǻ":{"ha":736,"x_min":71,"x_max":728,"o":"m 626 1164 q 674 1188 649 1188 q 712 1172 696 1188 q 728 1133 728 1156 q 697 1083 728 1103 l 547 979 q 567 907 567 947 q 526 809 567 849 q 426 769 485 769 q 327 809 368 769 q 286 907 286 849 q 327 1005 286 965 q 426 1044 368 1044 q 503 1024 465 1044 l 626 1164 m 426 838 q 474 858 456 838 q 493 907 493 878 q 474 956 493 936 q 426 976 456 976 q 378 956 397 976 q 360 907 360 936 q 378 858 360 878 q 426 838 397 838 m 399 693 q 643 461 643 693 q 642 424 643 436 l 613 44 q 596 6 611 19 q 557 -7 581 -7 q 518 8 533 -7 q 504 49 503 22 l 508 110 q 423 21 476 51 q 301 -10 369 -10 q 135 45 200 -10 q 71 185 71 100 q 111 306 71 261 q 240 372 151 351 q 481 393 329 393 l 531 393 l 533 433 l 535 458 q 499 565 535 531 q 390 600 464 600 q 175 532 290 600 q 151 525 161 525 q 124 538 135 525 q 114 569 114 551 q 140 617 114 601 q 260 672 190 651 q 399 693 331 693 m 325 79 q 460 135 404 79 q 521 278 515 190 l 524 321 l 485 321 q 298 308 363 321 q 209 268 233 294 q 185 194 185 242 q 222 110 185 142 q 325 79 260 79 z "},"ã":{"ha":736,"x_min":71,"x_max":649,"o":"m 399 693 q 643 461 643 693 q 642 424 643 436 l 613 44 q 596 6 611 19 q 557 -7 581 -7 q 517 9 532 -7 q 504 49 501 25 l 508 110 q 424 22 478 53 q 301 -10 371 -10 q 135 45 200 -10 q 71 185 71 100 q 111 306 71 261 q 240 372 151 351 q 481 393 329 393 l 531 393 l 533 433 l 535 460 q 499 566 535 532 q 390 600 464 600 q 175 532 290 600 q 153 525 161 525 q 125 538 136 525 q 114 569 114 551 q 140 617 114 600 q 260 672 190 651 q 399 693 331 693 m 325 79 q 460 135 404 79 q 521 278 515 190 l 524 321 l 485 321 q 305 309 369 321 q 213 270 240 297 q 185 194 185 243 q 222 110 185 142 q 325 79 260 79 m 517 821 q 467 833 490 821 q 408 869 443 846 q 364 898 382 889 q 331 907 346 907 q 295 895 308 907 q 264 860 282 883 q 231 829 246 829 q 210 839 218 829 q 203 864 203 849 q 221 920 203 889 q 269 973 239 951 q 335 994 300 994 q 385 982 361 994 q 443 946 408 969 q 488 917 469 926 q 522 908 506 908 q 560 921 546 908 q 588 956 574 933 q 606 978 599 971 q 622 986 613 986 q 649 951 649 986 q 631 895 649 926 q 582 842 613 864 q 517 821 551 821 z "},"æ":{"ha":1185,"x_min":71,"x_max":1129,"o":"m 638 321 l 638 315 q 692 143 638 204 q 853 82 747 82 q 948 98 900 82 q 1035 143 996 114 q 1064 153 1049 153 q 1091 140 1081 153 q 1101 111 1101 128 q 1079 65 1101 86 q 976 12 1042 33 q 849 -10 910 -10 q 674 35 744 -10 q 569 163 603 79 q 465 35 535 81 q 306 -10 396 -10 q 136 44 201 -10 q 71 185 71 99 q 111 306 71 261 q 240 372 151 351 q 481 393 329 393 l 533 393 l 536 433 q 538 463 538 443 q 502 566 538 532 q 393 600 467 600 q 175 532 288 600 q 151 525 161 525 q 124 538 135 525 q 114 569 114 551 q 140 617 114 600 q 262 672 192 651 q 404 693 332 693 q 619 581 569 693 q 722 664 661 635 q 858 693 782 693 q 1058 612 988 693 q 1129 376 1129 531 q 1115 335 1129 349 q 1078 321 1101 321 l 638 321 m 860 606 q 714 551 769 606 q 643 393 658 496 l 1029 393 q 988 551 1033 497 q 860 606 942 606 m 322 79 q 460 137 404 79 q 525 286 517 194 l 528 321 l 485 321 q 298 308 363 321 q 209 267 233 294 q 185 193 185 240 q 222 110 185 142 q 322 79 260 79 z "},"ǽ":{"ha":1185,"x_min":71,"x_max":1129,"o":"m 638 321 l 638 315 q 692 143 638 204 q 853 82 747 82 q 948 98 900 82 q 1035 143 996 114 q 1064 153 1049 153 q 1091 140 1081 153 q 1101 111 1101 128 q 1079 65 1101 86 q 976 12 1042 33 q 849 -10 910 -10 q 674 35 744 -10 q 569 163 603 79 q 465 35 535 81 q 306 -10 396 -10 q 136 44 201 -10 q 71 185 71 99 q 111 306 71 261 q 240 372 151 351 q 481 393 329 393 l 533 393 l 536 433 q 538 463 538 443 q 502 566 538 532 q 393 600 467 600 q 175 532 288 600 q 151 525 161 525 q 124 538 135 525 q 114 569 114 551 q 140 617 114 600 q 262 672 192 651 q 404 693 332 693 q 619 581 569 693 q 722 664 661 635 q 858 693 782 693 q 1058 612 988 693 q 1129 376 1129 531 q 1115 335 1129 349 q 1078 321 1101 321 l 638 321 m 860 606 q 714 551 769 606 q 643 393 658 496 l 1029 393 q 988 551 1033 497 q 860 606 942 606 m 322 79 q 460 137 404 79 q 525 286 517 194 l 528 321 l 485 321 q 298 308 363 321 q 209 267 233 294 q 185 193 185 240 q 222 110 185 142 q 322 79 260 79 m 657 772 q 629 758 643 758 q 608 767 617 758 q 599 789 599 776 q 606 811 599 803 l 775 1026 q 822 1054 794 1054 q 860 1040 843 1054 q 876 1004 876 1025 q 857 964 876 983 l 657 772 z "},"b":{"ha":808,"x_min":79,"x_max":746,"o":"m 458 693 q 608 653 543 693 q 710 538 674 613 q 746 365 746 464 q 706 169 746 254 q 594 37 667 83 q 428 -10 522 -10 q 288 25 347 -10 q 199 124 229 60 l 193 49 q 174 8 192 22 q 133 -7 157 -7 q 94 8 108 -7 q 81 49 79 22 l 151 936 q 171 974 153 960 q 213 988 189 988 q 251 974 238 988 q 264 936 265 961 l 236 576 q 330 663 271 632 q 458 693 389 693 m 418 83 q 574 158 517 83 q 631 365 631 233 q 578 538 631 476 q 429 600 525 600 q 272 524 329 600 q 215 317 215 449 q 267 143 215 203 q 418 83 319 83 z "},"c":{"ha":665,"x_min":64,"x_max":653,"o":"m 378 -10 q 212 31 283 -10 q 102 144 140 71 q 64 317 64 218 q 106 515 64 431 q 225 647 147 600 q 408 693 303 693 q 536 673 476 693 q 632 622 596 653 q 653 579 653 606 q 640 544 653 560 q 610 528 628 528 q 586 536 599 528 q 408 599 503 599 q 240 524 300 599 q 181 315 181 449 q 235 145 181 207 q 388 83 289 83 q 476 99 436 83 q 557 144 517 114 q 583 154 571 154 q 610 141 600 154 q 621 110 621 128 q 603 71 621 88 q 503 12 563 33 q 378 -10 443 -10 z "},"ć":{"ha":665,"x_min":64,"x_max":681,"o":"m 378 -10 q 212 31 283 -10 q 102 144 140 71 q 64 317 64 218 q 106 515 64 431 q 225 647 147 600 q 408 693 303 693 q 536 673 476 693 q 632 622 596 653 q 653 579 653 606 q 640 544 653 560 q 610 528 628 528 q 586 536 599 528 q 408 599 503 599 q 240 524 300 599 q 181 315 181 449 q 235 145 181 207 q 388 83 289 83 q 476 99 436 83 q 557 144 517 114 q 583 154 571 154 q 610 141 600 154 q 621 110 621 128 q 603 71 621 88 q 503 12 563 33 q 378 -10 443 -10 m 461 772 q 433 758 447 758 q 412 767 421 758 q 403 789 403 776 q 410 811 403 803 l 579 1026 q 626 1054 599 1054 q 664 1040 647 1054 q 681 1004 681 1025 q 661 964 681 983 l 461 772 z "},"č":{"ha":665,"x_min":64,"x_max":653,"o":"m 378 -10 q 212 31 283 -10 q 102 144 140 71 q 64 317 64 218 q 106 515 64 431 q 225 647 147 600 q 408 693 303 693 q 536 673 476 693 q 632 622 596 653 q 653 579 653 606 q 640 544 653 560 q 610 528 628 528 q 586 536 599 528 q 408 599 503 599 q 240 524 300 599 q 181 315 181 449 q 235 145 181 207 q 388 83 289 83 q 476 99 436 83 q 557 144 517 114 q 583 154 571 154 q 610 141 600 154 q 621 110 621 128 q 603 71 621 88 q 503 12 563 33 q 378 -10 443 -10 m 533 1026 q 551 1046 540 1039 q 574 1053 563 1053 q 603 1040 590 1053 q 617 1011 617 1028 q 607 982 617 996 l 482 793 q 422 758 457 758 q 369 793 388 758 l 274 985 q 268 1008 268 996 q 283 1040 268 1026 q 315 1053 297 1053 q 353 1025 340 1053 l 429 847 l 533 1026 z "},"ç":{"ha":665,"x_min":64,"x_max":653,"o":"m 408 599 q 240 524 300 599 q 181 315 181 449 q 235 145 181 207 q 388 83 289 83 q 476 99 436 83 q 557 144 517 114 q 583 154 571 154 q 610 141 600 154 q 621 110 621 128 q 603 71 621 88 q 504 13 563 35 q 382 -10 446 -8 l 372 -58 q 401 -57 381 -57 q 475 -82 447 -57 q 503 -150 503 -107 q 458 -236 503 -204 q 339 -268 414 -268 q 239 -251 289 -268 q 215 -221 215 -242 q 228 -194 215 -206 q 260 -189 242 -183 q 339 -201 301 -201 q 419 -153 419 -201 q 407 -125 419 -135 q 372 -115 394 -115 q 334 -122 353 -115 q 310 -128 315 -128 q 291 -119 299 -128 q 285 -101 283 -111 l 304 -3 q 128 103 192 18 q 64 317 64 188 q 106 515 64 431 q 225 647 147 600 q 408 693 303 693 q 536 673 476 693 q 632 622 596 653 q 653 579 653 606 q 640 544 653 560 q 610 528 628 528 q 586 536 599 528 q 408 599 503 599 z "},"ḉ":{"ha":665,"x_min":64,"x_max":681,"o":"m 579 1026 q 626 1054 599 1054 q 664 1040 647 1054 q 681 1004 681 1025 q 661 964 681 983 l 461 772 q 433 758 447 758 q 412 767 421 758 q 403 789 403 776 q 410 811 403 803 l 579 1026 m 632 622 q 653 579 653 606 q 640 544 653 560 q 610 528 628 528 q 586 536 599 528 q 408 599 503 599 q 240 524 300 599 q 181 315 181 449 q 235 145 181 207 q 388 83 289 83 q 476 99 436 83 q 557 144 517 114 q 583 154 571 154 q 610 141 600 154 q 621 110 621 128 q 603 71 621 88 q 504 13 563 35 q 382 -10 446 -8 l 372 -58 q 401 -57 381 -57 q 475 -82 447 -57 q 503 -150 503 -107 q 458 -236 503 -204 q 339 -268 414 -268 q 239 -251 289 -268 q 215 -221 215 -242 q 228 -194 215 -206 q 260 -189 242 -183 q 339 -201 301 -201 q 419 -153 419 -201 q 407 -125 419 -135 q 372 -115 394 -115 q 334 -122 353 -115 q 310 -128 315 -128 q 291 -119 299 -128 q 285 -101 283 -111 l 304 -3 q 128 103 192 18 q 64 317 64 188 q 106 515 64 431 q 225 647 147 600 q 408 693 303 693 q 536 673 476 693 q 632 622 596 653 z "},"ĉ":{"ha":665,"x_min":64,"x_max":653,"o":"m 378 -10 q 212 31 283 -10 q 102 144 140 71 q 64 317 64 218 q 106 515 64 431 q 225 647 147 600 q 408 693 303 693 q 536 673 476 693 q 632 622 596 653 q 653 579 653 606 q 640 544 653 560 q 610 528 628 528 q 586 536 599 528 q 408 599 503 599 q 240 524 300 599 q 181 315 181 449 q 235 145 181 207 q 388 83 289 83 q 476 99 436 83 q 557 144 517 114 q 583 154 571 154 q 610 141 600 154 q 621 110 621 128 q 603 71 621 88 q 503 12 563 33 q 378 -10 443 -10 m 336 785 q 294 758 319 758 q 265 771 278 758 q 251 800 251 783 q 261 829 251 815 l 388 1018 q 446 1053 410 1053 q 476 1044 463 1053 q 499 1018 490 1035 l 596 826 q 601 803 601 815 q 587 772 601 785 q 554 758 572 758 q 515 786 528 758 l 439 964 l 336 785 z "}}}
